%TF.GenerationSoftware,KiCad,Pcbnew,9.0.1*%
%TF.CreationDate,2026-09-05T14:03:46+03:00*%
%TF.ProjectId,12-3v3-buck,31322d33-7633-42d6-9275-636b2e6b6963,rev?*%
%TF.SameCoordinates,Original*%
%TF.FileFunction,Copper,L1,Top*%
%TF.FilePolarity,Positive*%
%FSLAX46Y46*%
G04 Gerber Fmt 4.6, Leading zero omitted, Abs format (unit mm)*
G04 Created by KiCad (PCBNEW 9.0.1) date 2026-09-05 14:03:46*
%MOMM*%
%LPD*%
G01*
G04 APERTURE LIST*
G04 Aperture macros list*
%AMRoundRect*
0 Rectangle with rounded corners*
0 $1 Rounding radius*
0 $2 $3 $4 $5 $6 $7 $8 $9 X,Y pos of 4 corners*
0 Add a 4 corners polygon primitive as box body*
4,1,4,$2,$3,$4,$5,$6,$7,$8,$9,$2,$3,0*
0 Add four circle primitives for the rounded corners*
1,1,$1+$1,$2,$3*
1,1,$1+$1,$4,$5*
1,1,$1+$1,$6,$7*
1,1,$1+$1,$8,$9*
0 Add four rect primitives between the rounded corners*
20,1,$1+$1,$2,$3,$4,$5,0*
20,1,$1+$1,$4,$5,$6,$7,0*
20,1,$1+$1,$6,$7,$8,$9,0*
20,1,$1+$1,$8,$9,$2,$3,0*%
G04 Aperture macros list end*
%TA.AperFunction,Conductor*%
%ADD10C,0.200000*%
%TD*%
%TA.AperFunction,EtchedComponent*%
%ADD11C,0.000000*%
%TD*%
%TA.AperFunction,SMDPad,CuDef*%
%ADD12RoundRect,0.250000X0.412500X0.650000X-0.412500X0.650000X-0.412500X-0.650000X0.412500X-0.650000X0*%
%TD*%
%TA.AperFunction,ComponentPad*%
%ADD13C,2.000000*%
%TD*%
%TA.AperFunction,SMDPad,CuDef*%
%ADD14RoundRect,0.250000X0.337500X0.475000X-0.337500X0.475000X-0.337500X-0.475000X0.337500X-0.475000X0*%
%TD*%
%TA.AperFunction,SMDPad,CuDef*%
%ADD15RoundRect,0.250000X-0.475000X0.337500X-0.475000X-0.337500X0.475000X-0.337500X0.475000X0.337500X0*%
%TD*%
%TA.AperFunction,SMDPad,CuDef*%
%ADD16RoundRect,0.250000X0.450000X-0.350000X0.450000X0.350000X-0.450000X0.350000X-0.450000X-0.350000X0*%
%TD*%
%TA.AperFunction,SMDPad,CuDef*%
%ADD17RoundRect,0.250000X0.650000X-0.412500X0.650000X0.412500X-0.650000X0.412500X-0.650000X-0.412500X0*%
%TD*%
%TA.AperFunction,SMDPad,CuDef*%
%ADD18RoundRect,0.250000X-2.600000X0.600000X-2.600000X-0.600000X2.600000X-0.600000X2.600000X0.600000X0*%
%TD*%
%TA.AperFunction,SMDPad,CuDef*%
%ADD19RoundRect,0.250000X-0.350000X-0.450000X0.350000X-0.450000X0.350000X0.450000X-0.350000X0.450000X0*%
%TD*%
%TA.AperFunction,ComponentPad*%
%ADD20R,1.700000X1.700000*%
%TD*%
%TA.AperFunction,ComponentPad*%
%ADD21C,1.700000*%
%TD*%
%TA.AperFunction,SMDPad,CuDef*%
%ADD22RoundRect,0.050000X-0.285000X-0.100000X0.285000X-0.100000X0.285000X0.100000X-0.285000X0.100000X0*%
%TD*%
%TA.AperFunction,SMDPad,CuDef*%
%ADD23RoundRect,0.250000X-0.650000X0.412500X-0.650000X-0.412500X0.650000X-0.412500X0.650000X0.412500X0*%
%TD*%
%TA.AperFunction,WasherPad*%
%ADD24O,1.905000X1.117600*%
%TD*%
%TA.AperFunction,WasherPad*%
%ADD25O,2.209800X1.117600*%
%TD*%
%TA.AperFunction,SMDPad,CuDef*%
%ADD26R,0.127000X0.127000*%
%TD*%
%TA.AperFunction,SMDPad,CuDef*%
%ADD27R,1.143000X0.304800*%
%TD*%
%TA.AperFunction,ViaPad*%
%ADD28C,2.000000*%
%TD*%
%TA.AperFunction,ViaPad*%
%ADD29C,0.600000*%
%TD*%
%TA.AperFunction,Conductor*%
%ADD30C,0.600000*%
%TD*%
%TA.AperFunction,Conductor*%
%ADD31C,1.000000*%
%TD*%
%TA.AperFunction,Conductor*%
%ADD32C,0.300000*%
%TD*%
%TA.AperFunction,Conductor*%
%ADD33C,1.500000*%
%TD*%
G04 APERTURE END LIST*
D10*
%TO.N,Vout*%
X130350000Y-88100000D02*
X130320000Y-89720000D01*
X126800000Y-93060000D01*
X126800000Y-86000000D01*
X130350000Y-88100000D01*
%TA.AperFunction,Conductor*%
G36*
X130350000Y-88100000D02*
G01*
X130320000Y-89720000D01*
X126800000Y-93060000D01*
X126800000Y-86000000D01*
X130350000Y-88100000D01*
G37*
%TD.AperFunction*%
%TO.N,VBUS*%
X126838975Y-81367453D02*
X126870000Y-82050000D01*
X125148404Y-82241870D01*
X121643197Y-82504760D01*
X118380000Y-86310000D01*
X118430000Y-81230000D01*
X118450000Y-80970000D01*
X118920000Y-80530000D01*
X122408264Y-80530000D01*
X126838975Y-81367453D01*
%TA.AperFunction,Conductor*%
G36*
X126838975Y-81367453D02*
G01*
X126870000Y-82050000D01*
X125148404Y-82241870D01*
X121643197Y-82504760D01*
X118380000Y-86310000D01*
X118430000Y-81230000D01*
X118450000Y-80970000D01*
X118920000Y-80530000D01*
X122408264Y-80530000D01*
X126838975Y-81367453D01*
G37*
%TD.AperFunction*%
%TO.N,Net-(U2-SW)*%
X130990000Y-82440000D02*
X133090000Y-83680000D01*
X133050000Y-84970000D01*
X127820000Y-85010000D01*
X127655613Y-83801272D01*
X127872142Y-82398988D01*
X127980000Y-82390000D01*
X130990000Y-82440000D01*
%TA.AperFunction,Conductor*%
G36*
X130990000Y-82440000D02*
G01*
X133090000Y-83680000D01*
X133050000Y-84970000D01*
X127820000Y-85010000D01*
X127655613Y-83801272D01*
X127872142Y-82398988D01*
X127980000Y-82390000D01*
X130990000Y-82440000D01*
G37*
%TD.AperFunction*%
%TO.N,Vout*%
X124340000Y-86000000D02*
X126800000Y-86000000D01*
X126800000Y-93060000D01*
X124340000Y-93060000D01*
X124340000Y-86000000D01*
%TA.AperFunction,Conductor*%
G36*
X124340000Y-86000000D02*
G01*
X126800000Y-86000000D01*
X126800000Y-93060000D01*
X124340000Y-93060000D01*
X124340000Y-86000000D01*
G37*
%TD.AperFunction*%
D11*
%TA.AperFunction,EtchedComponent*%
%TD*%
%TO.C,J1*%
G36*
X117881500Y-80776907D02*
G01*
X116738500Y-80776907D01*
X116738500Y-80167307D01*
X117881500Y-80167307D01*
X117881500Y-80776907D01*
G37*
%TD.AperFunction*%
%TA.AperFunction,EtchedComponent*%
%TO.C,J1*%
G36*
X117881500Y-81581833D02*
G01*
X116738500Y-81581833D01*
X116738500Y-80972233D01*
X117881500Y-80972233D01*
X117881500Y-81581833D01*
G37*
%TD.AperFunction*%
%TA.AperFunction,EtchedComponent*%
G36*
X117881500Y-86387767D02*
G01*
X116738500Y-86387767D01*
X116738500Y-85778167D01*
X117881500Y-85778167D01*
X117881500Y-86387767D01*
G37*
%TD.AperFunction*%
%TA.AperFunction,EtchedComponent*%
G36*
X117881500Y-87192693D02*
G01*
X116738500Y-87192693D01*
X116738500Y-86583093D01*
X117881500Y-86583093D01*
X117881500Y-87192693D01*
G37*
%TD.AperFunction*%
%TD*%
D12*
%TO.P,C5,1*%
%TO.N,Vout*%
X125902500Y-87190000D03*
%TO.P,C5,2*%
%TO.N,GNDREF*%
X122777500Y-87190000D03*
%TD*%
D13*
%TO.P,U1,1,1*%
%TO.N,Net-(R4-Pad1)*%
X143650000Y-82340000D03*
%TO.P,U1,2,2*%
%TO.N,Net-(R5-Pad1)*%
X141110000Y-82340000D03*
%TO.P,U1,3,3*%
%TO.N,Net-(R6-Pad1)*%
X138570000Y-82340000D03*
%TO.P,U1,4,4*%
%TO.N,Net-(R7-Pad1)*%
X136030000Y-82340000D03*
%TO.P,U1,5,C*%
%TO.N,Vout*%
X141110000Y-89960000D03*
%TD*%
D14*
%TO.P,C7,1*%
%TO.N,Vout*%
X125277500Y-92150000D03*
%TO.P,C7,2*%
%TO.N,GNDREF*%
X123202500Y-92150000D03*
%TD*%
D15*
%TO.P,C4,1*%
%TO.N,Net-(U2-BST)*%
X130330000Y-80172500D03*
%TO.P,C4,2*%
%TO.N,Net-(U2-SW)*%
X130330000Y-82247500D03*
%TD*%
D16*
%TO.P,R6,1*%
%TO.N,Net-(R6-Pad1)*%
X138540000Y-79380000D03*
%TO.P,R6,2*%
%TO.N,Net-(U2-FB)*%
X138540000Y-77380000D03*
%TD*%
D15*
%TO.P,C2,1*%
%TO.N,VBUS*%
X124730000Y-81740000D03*
%TO.P,C2,2*%
%TO.N,GNDREF*%
X124730000Y-83815000D03*
%TD*%
D17*
%TO.P,C3,1*%
%TO.N,VBUS*%
X119600000Y-81182500D03*
%TO.P,C3,2*%
%TO.N,GNDREF*%
X119600000Y-78057500D03*
%TD*%
D18*
%TO.P,L1,1,1*%
%TO.N,Net-(U2-SW)*%
X130390000Y-84380000D03*
%TO.P,L1,2,2*%
%TO.N,Vout*%
X130390000Y-88880000D03*
%TD*%
D19*
%TO.P,R2,1*%
%TO.N,Net-(J1-CC1)*%
X115290000Y-76920000D03*
%TO.P,R2,2*%
%TO.N,GNDREF*%
X117290000Y-76920000D03*
%TD*%
D16*
%TO.P,R5,1*%
%TO.N,Net-(R5-Pad1)*%
X141150000Y-79380000D03*
%TO.P,R5,2*%
%TO.N,Net-(U2-FB)*%
X141150000Y-77380000D03*
%TD*%
D19*
%TO.P,R3,1*%
%TO.N,GNDREF*%
X125850000Y-79170000D03*
%TO.P,R3,2*%
%TO.N,Net-(U2-FB)*%
X127850000Y-79170000D03*
%TD*%
D20*
%TO.P,J2,1,Pin_1*%
%TO.N,GNDREF*%
X149370000Y-81140000D03*
D21*
%TO.P,J2,2,Pin_2*%
%TO.N,Vout*%
X149370000Y-83680000D03*
%TO.P,J2,3,Pin_3*%
%TO.N,VBUS*%
X149370000Y-86220000D03*
%TD*%
D16*
%TO.P,R4,1*%
%TO.N,Net-(R4-Pad1)*%
X143730000Y-79350000D03*
%TO.P,R4,2*%
%TO.N,Net-(U2-FB)*%
X143730000Y-77350000D03*
%TD*%
D19*
%TO.P,R1,1*%
%TO.N,Net-(J1-CC2)*%
X115310000Y-90440000D03*
%TO.P,R1,2*%
%TO.N,GNDREF*%
X117310000Y-90440000D03*
%TD*%
D22*
%TO.P,U2,1,RT*%
%TO.N,unconnected-(U2-RT-Pad1)*%
X126620000Y-80947500D03*
%TO.P,U2,2,EN*%
%TO.N,VBUS*%
X126620000Y-81447500D03*
%TO.P,U2,3,VIN*%
X126620000Y-81947500D03*
%TO.P,U2,4,GND*%
%TO.N,GNDREF*%
X126620000Y-82447500D03*
%TO.P,U2,5,SW*%
%TO.N,Net-(U2-SW)*%
X128100000Y-82447500D03*
%TO.P,U2,6,BST*%
%TO.N,Net-(U2-BST)*%
X128100000Y-81947500D03*
%TO.P,U2,7,PG*%
%TO.N,unconnected-(U2-PG-Pad7)*%
X128100000Y-81447500D03*
%TO.P,U2,8,FB*%
%TO.N,Net-(U2-FB)*%
X128100000Y-80947500D03*
%TD*%
D16*
%TO.P,R7,1*%
%TO.N,Net-(R7-Pad1)*%
X135930000Y-79380000D03*
%TO.P,R7,2*%
%TO.N,Net-(U2-FB)*%
X135930000Y-77380000D03*
%TD*%
D23*
%TO.P,C1,1*%
%TO.N,VBUS*%
X122280000Y-81215000D03*
%TO.P,C1,2*%
%TO.N,GNDREF*%
X122280000Y-84340000D03*
%TD*%
D12*
%TO.P,C6,1*%
%TO.N,Vout*%
X125852500Y-89750000D03*
%TO.P,C6,2*%
%TO.N,GNDREF*%
X122727500Y-89750000D03*
%TD*%
D24*
%TO.P,J1,*%
%TO.N,*%
X112569000Y-79359968D03*
D25*
X116719000Y-79359998D03*
X116719000Y-88000002D03*
D24*
X112569000Y-88000032D03*
D26*
%TO.P,J1,A1,GND*%
%TO.N,GNDREF*%
X117310000Y-80319707D03*
%TO.P,J1,A4,VBUS*%
%TO.N,VBUS*%
X117310000Y-81124633D03*
D27*
%TO.P,J1,A5,CC1*%
%TO.N,Net-(J1-CC1)*%
X117310000Y-82429685D03*
%TO.P,J1,A6,DP1*%
%TO.N,unconnected-(J1-DP1-PadA6)*%
X117310000Y-83429937D03*
%TO.P,J1,A7,DN1*%
%TO.N,unconnected-(J1-DN1-PadA7)*%
X117310000Y-83930063D03*
%TO.P,J1,A8,SBU1*%
%TO.N,unconnected-(J1-SBU1-PadA8)*%
X117310000Y-81929559D03*
D26*
%TO.P,J1,A9,VBUS*%
%TO.N,VBUS*%
X117310000Y-86235367D03*
%TO.P,J1,A12,GND*%
%TO.N,GNDREF*%
X117310000Y-87040293D03*
%TO.P,J1,B1,GND*%
X117310000Y-86735493D03*
%TO.P,J1,B4,VBUS*%
%TO.N,VBUS*%
X117310000Y-85930567D03*
D27*
%TO.P,J1,B5,CC2*%
%TO.N,Net-(J1-CC2)*%
X117310000Y-85430441D03*
%TO.P,J1,B6,DP2*%
%TO.N,unconnected-(J1-DP2-PadB6)*%
X117310000Y-84430189D03*
%TO.P,J1,B7,DN2*%
%TO.N,unconnected-(J1-DN2-PadB7)*%
X117310000Y-82929811D03*
%TO.P,J1,B8,SBU2*%
%TO.N,unconnected-(J1-SBU2-PadB8)*%
X117310000Y-84930315D03*
D26*
%TO.P,J1,B9,VBUS*%
%TO.N,VBUS*%
X117310000Y-81429433D03*
%TO.P,J1,B12,GND*%
%TO.N,GNDREF*%
X117310000Y-80624507D03*
%TD*%
D28*
%TO.N,GNDREF*%
X152090000Y-76520000D03*
D29*
X138231660Y-84761346D03*
X133200000Y-91850000D03*
X121757035Y-91465775D03*
X115910000Y-80500000D03*
X145363902Y-89673605D03*
D28*
X152090000Y-94100000D03*
D29*
X149311192Y-79052005D03*
X118880000Y-88210000D03*
X118600382Y-90637545D03*
D28*
X110790000Y-76520000D03*
D29*
X126540000Y-84020000D03*
D28*
X110790000Y-94100000D03*
D29*
X121335106Y-87371503D03*
X111960000Y-83180000D03*
X123913560Y-85324367D03*
X118800000Y-76430000D03*
X122718783Y-76570294D03*
X125820000Y-77790000D03*
X132915395Y-79430034D03*
X147080000Y-81140000D03*
%TO.N,Net-(J1-CC2)*%
X115980000Y-85060000D03*
X114370000Y-89080000D03*
%TO.N,Net-(J1-CC1)*%
X114580000Y-78490000D03*
X116250000Y-82440000D03*
%TD*%
D10*
%TO.N,GNDREF*%
X119600000Y-78057500D02*
X118427500Y-78057500D01*
X112720000Y-79220000D02*
X116290000Y-79220000D01*
X125850000Y-79170000D02*
X120712500Y-79170000D01*
X146590000Y-78360000D02*
X149370000Y-81140000D01*
X124730000Y-83815000D02*
X126335000Y-83815000D01*
X122777500Y-87190000D02*
X122777500Y-89700000D01*
X128740000Y-75910000D02*
X146590000Y-75910000D01*
X125850000Y-78800000D02*
X128740000Y-75910000D01*
X116990000Y-77220000D02*
X117290000Y-76920000D01*
X123913560Y-85324367D02*
X123264367Y-85324367D01*
X125850000Y-77820000D02*
X125960000Y-77710000D01*
X147080000Y-81140000D02*
X149370000Y-81140000D01*
X117310000Y-90440000D02*
X118640000Y-90440000D01*
X120712500Y-79170000D02*
X119600000Y-78057500D01*
X117310000Y-86887893D02*
X117310000Y-87640000D01*
X116990000Y-79160000D02*
X116990000Y-77220000D01*
X122727500Y-89750000D02*
X123202500Y-90225000D01*
X112620000Y-88210000D02*
X113060000Y-87770000D01*
X116950000Y-88130000D02*
X112700000Y-88130000D01*
X126335000Y-83815000D02*
X126540000Y-84020000D01*
X149311192Y-79052005D02*
X149311192Y-81081192D01*
X125850000Y-79170000D02*
X125850000Y-78800000D01*
X146590000Y-75910000D02*
X146590000Y-78360000D01*
X117310000Y-90440000D02*
X118000000Y-89750000D01*
X121757035Y-91465775D02*
X122518275Y-91465775D01*
X122280000Y-86692500D02*
X122280000Y-84340000D01*
X149311192Y-81081192D02*
X149370000Y-81140000D01*
X118800000Y-77257500D02*
X119600000Y-78057500D01*
X122805000Y-83815000D02*
X122280000Y-84340000D01*
X122777500Y-87190000D02*
X122280000Y-86692500D01*
X115910000Y-80500000D02*
X115910000Y-79820000D01*
X115910000Y-79820000D02*
X116400000Y-79330000D01*
X112700000Y-88130000D02*
X112620000Y-88210000D01*
X118640000Y-90440000D02*
X118720000Y-90520000D01*
X118880000Y-88210000D02*
X117110000Y-88210000D01*
X124730000Y-83815000D02*
X122805000Y-83815000D01*
X118000000Y-89750000D02*
X122727500Y-89750000D01*
X117310000Y-87640000D02*
X117190000Y-87760000D01*
X121335106Y-87371503D02*
X122595997Y-87371503D01*
X125850000Y-79170000D02*
X125850000Y-77820000D01*
X118800000Y-76430000D02*
X118800000Y-77257500D01*
X116290000Y-79220000D02*
X116400000Y-79330000D01*
X125252500Y-83815000D02*
X126620000Y-82447500D01*
X123264367Y-85324367D02*
X122280000Y-84340000D01*
X118427500Y-78057500D02*
X117290000Y-76920000D01*
X123202500Y-90225000D02*
X123202500Y-92150000D01*
X117310000Y-80472107D02*
X117310000Y-79540000D01*
X122518275Y-91465775D02*
X123202500Y-92150000D01*
X124730000Y-83815000D02*
X125252500Y-83815000D01*
X117310000Y-79540000D02*
X117160000Y-79390000D01*
X122595997Y-87371503D02*
X122777500Y-87190000D01*
X122777500Y-89700000D02*
X122727500Y-89750000D01*
D30*
%TO.N,VBUS*%
X114153333Y-86070000D02*
X114183333Y-86100000D01*
X117310000Y-81277033D02*
X118420000Y-81277033D01*
D31*
X110430000Y-89840000D02*
X114580000Y-93990000D01*
D10*
X149715000Y-85960000D02*
X149855000Y-86100000D01*
X126620000Y-81947500D02*
X126620000Y-81447500D01*
X122247500Y-81182500D02*
X122280000Y-81215000D01*
X122280000Y-81215000D02*
X122805000Y-81740000D01*
D30*
X118420000Y-81277033D02*
X119505467Y-81277033D01*
D31*
X145430000Y-93990000D02*
X149370000Y-90050000D01*
X110430000Y-87750000D02*
X110430000Y-89840000D01*
D30*
X114183333Y-86100000D02*
X117292967Y-86100000D01*
D10*
X124937500Y-81947500D02*
X124730000Y-81740000D01*
D31*
X149370000Y-90050000D02*
X149370000Y-86220000D01*
D10*
X117310000Y-86082967D02*
X117292967Y-86100000D01*
X119600000Y-81182500D02*
X122247500Y-81182500D01*
D31*
X112110000Y-86070000D02*
X110430000Y-87750000D01*
D10*
X124730000Y-81740000D02*
X126327500Y-81740000D01*
X126327500Y-81740000D02*
X126620000Y-81447500D01*
X122805000Y-81740000D02*
X124730000Y-81740000D01*
D31*
X114580000Y-93990000D02*
X145430000Y-93990000D01*
D30*
X117327033Y-86100000D02*
X118340000Y-86100000D01*
D31*
X114153333Y-86070000D02*
X112110000Y-86070000D01*
D10*
X117310000Y-86082967D02*
X117327033Y-86100000D01*
X119505467Y-81277033D02*
X119600000Y-81182500D01*
D32*
%TO.N,Net-(U2-BST)*%
X128555000Y-81947500D02*
X130330000Y-80172500D01*
X128100000Y-81947500D02*
X128555000Y-81947500D01*
D10*
%TO.N,Net-(U2-SW)*%
X128100000Y-82447500D02*
X130130000Y-82447500D01*
X130130000Y-82447500D02*
X130330000Y-82247500D01*
D33*
%TO.N,Vout*%
X140030000Y-88880000D02*
X141110000Y-89960000D01*
D10*
X125902500Y-87190000D02*
X125902500Y-89700000D01*
X125852500Y-89750000D02*
X125852500Y-91575000D01*
D33*
X145110000Y-85880000D02*
X147310000Y-83680000D01*
X130390000Y-88880000D02*
X140030000Y-88880000D01*
D10*
X125852500Y-91575000D02*
X125277500Y-92150000D01*
D33*
X140030000Y-88880000D02*
X142190000Y-88880000D01*
X147310000Y-83680000D02*
X149370000Y-83680000D01*
D10*
X125902500Y-89700000D02*
X125852500Y-89750000D01*
X129520000Y-89750000D02*
X130390000Y-88880000D01*
D33*
X141110000Y-89960000D02*
X142745000Y-88325000D01*
D10*
X125852500Y-89750000D02*
X129520000Y-89750000D01*
D33*
X142745000Y-88325000D02*
X145110000Y-85960000D01*
D10*
X142190000Y-88880000D02*
X142745000Y-88325000D01*
X145110000Y-85960000D02*
X145110000Y-85880000D01*
%TO.N,Net-(J1-CC2)*%
X116010441Y-85430441D02*
X117310000Y-85430441D01*
X114370000Y-89080000D02*
X114370000Y-89500000D01*
X115980000Y-85060000D02*
X115980000Y-85400000D01*
X115980000Y-85400000D02*
X116010441Y-85430441D01*
X114370000Y-89500000D02*
X115310000Y-90440000D01*
%TO.N,Net-(J1-CC1)*%
X117310000Y-82429685D02*
X116260315Y-82429685D01*
X114580000Y-77630000D02*
X115290000Y-76920000D01*
X116260315Y-82429685D02*
X116250000Y-82440000D01*
X114580000Y-78490000D02*
X114580000Y-77630000D01*
%TO.N,Net-(U2-FB)*%
X129640000Y-77380000D02*
X127850000Y-79170000D01*
X135960000Y-77350000D02*
X135930000Y-77380000D01*
X127850000Y-80697500D02*
X128100000Y-80947500D01*
X143730000Y-77350000D02*
X135960000Y-77350000D01*
X135930000Y-77380000D02*
X129640000Y-77380000D01*
X127850000Y-79170000D02*
X127850000Y-80697500D01*
%TO.N,Net-(R4-Pad1)*%
X143730000Y-79350000D02*
X143730000Y-82260000D01*
X143730000Y-82260000D02*
X143650000Y-82340000D01*
%TO.N,Net-(R5-Pad1)*%
X141150000Y-82300000D02*
X141110000Y-82340000D01*
X141150000Y-79380000D02*
X141150000Y-82300000D01*
%TO.N,Net-(R6-Pad1)*%
X138540000Y-82310000D02*
X138570000Y-82340000D01*
X138540000Y-79380000D02*
X138540000Y-82310000D01*
%TO.N,Net-(R7-Pad1)*%
X136030000Y-79480000D02*
X135930000Y-79380000D01*
X136030000Y-82340000D02*
X136030000Y-79480000D01*
%TD*%
%TA.AperFunction,Conductor*%
%TO.N,GNDREF*%
G36*
X153032539Y-75540185D02*
G01*
X153078294Y-75592989D01*
X153089500Y-75644500D01*
X153089500Y-94975500D01*
X153069815Y-95042539D01*
X153017011Y-95088294D01*
X152965500Y-95099500D01*
X109914500Y-95099500D01*
X109847461Y-95079815D01*
X109801706Y-95027011D01*
X109790500Y-94975500D01*
X109790500Y-90561230D01*
X109810185Y-90494191D01*
X109862989Y-90448436D01*
X109932147Y-90438492D01*
X109995703Y-90467517D01*
X110002181Y-90473549D01*
X114101580Y-94572948D01*
X114101584Y-94572951D01*
X114224498Y-94655080D01*
X114224511Y-94655087D01*
X114361082Y-94711656D01*
X114361087Y-94711658D01*
X114361091Y-94711658D01*
X114361092Y-94711659D01*
X114506079Y-94740500D01*
X114506082Y-94740500D01*
X145503920Y-94740500D01*
X145601462Y-94721096D01*
X145648913Y-94711658D01*
X145785495Y-94655084D01*
X145834729Y-94622186D01*
X145908416Y-94572952D01*
X149952951Y-90528416D01*
X150035084Y-90405495D01*
X150091658Y-90268913D01*
X150106262Y-90195494D01*
X150117930Y-90136840D01*
X150120500Y-90123919D01*
X150120500Y-87077204D01*
X150140185Y-87010165D01*
X150156819Y-86989523D01*
X150167291Y-86979051D01*
X150209414Y-86936928D01*
X150311232Y-86796788D01*
X150389873Y-86642445D01*
X150443402Y-86477701D01*
X150470500Y-86306611D01*
X150470500Y-86133389D01*
X150443402Y-85962299D01*
X150389873Y-85797555D01*
X150311232Y-85643212D01*
X150209414Y-85503072D01*
X150086928Y-85380586D01*
X149946788Y-85278768D01*
X149792445Y-85200127D01*
X149627701Y-85146598D01*
X149627699Y-85146597D01*
X149627698Y-85146597D01*
X149496271Y-85125781D01*
X149456611Y-85119500D01*
X149283389Y-85119500D01*
X149243728Y-85125781D01*
X149112302Y-85146597D01*
X148947552Y-85200128D01*
X148793211Y-85278768D01*
X148737149Y-85319500D01*
X148653072Y-85380586D01*
X148653070Y-85380588D01*
X148653069Y-85380588D01*
X148530588Y-85503069D01*
X148530588Y-85503070D01*
X148530586Y-85503072D01*
X148511156Y-85529815D01*
X148428768Y-85643211D01*
X148350128Y-85797552D01*
X148296597Y-85962302D01*
X148269500Y-86133389D01*
X148269500Y-86306610D01*
X148290312Y-86438017D01*
X148296598Y-86477701D01*
X148341698Y-86616504D01*
X148350128Y-86642447D01*
X148356969Y-86655874D01*
X148428768Y-86796788D01*
X148530586Y-86936928D01*
X148530588Y-86936930D01*
X148583181Y-86989523D01*
X148616666Y-87050846D01*
X148619500Y-87077204D01*
X148619500Y-89687770D01*
X148599815Y-89754809D01*
X148583181Y-89775451D01*
X145155451Y-93203181D01*
X145094128Y-93236666D01*
X145067770Y-93239500D01*
X127438136Y-93239500D01*
X127371097Y-93219815D01*
X127325342Y-93167011D01*
X127315398Y-93097853D01*
X127344423Y-93034297D01*
X127352785Y-93025549D01*
X128203814Y-92218039D01*
X130526055Y-90014547D01*
X130588235Y-89982683D01*
X130611406Y-89980499D01*
X133037871Y-89980499D01*
X133037872Y-89980499D01*
X133097483Y-89974091D01*
X133232331Y-89923796D01*
X133257128Y-89905233D01*
X133322592Y-89880816D01*
X133331439Y-89880500D01*
X139564218Y-89880500D01*
X139631257Y-89900185D01*
X139651899Y-89916819D01*
X139843431Y-90108351D01*
X139876916Y-90169674D01*
X139878223Y-90176634D01*
X139890290Y-90252826D01*
X139951117Y-90440029D01*
X140040476Y-90615405D01*
X140156172Y-90774646D01*
X140295354Y-90913828D01*
X140454595Y-91029524D01*
X140537455Y-91071743D01*
X140629970Y-91118882D01*
X140629972Y-91118882D01*
X140629975Y-91118884D01*
X140730317Y-91151487D01*
X140817173Y-91179709D01*
X141011578Y-91210500D01*
X141011583Y-91210500D01*
X141208422Y-91210500D01*
X141402826Y-91179709D01*
X141417319Y-91175000D01*
X141590025Y-91118884D01*
X141765405Y-91029524D01*
X141924646Y-90913828D01*
X142063828Y-90774646D01*
X142179524Y-90615405D01*
X142268884Y-90440025D01*
X142329709Y-90252826D01*
X142341776Y-90176631D01*
X142371704Y-90113499D01*
X142376550Y-90108368D01*
X142827778Y-89657141D01*
X142827782Y-89657139D01*
X142967139Y-89517782D01*
X142967141Y-89517778D01*
X143522139Y-88962781D01*
X145887139Y-86597781D01*
X145996631Y-86433914D01*
X146005311Y-86412957D01*
X146032189Y-86372729D01*
X147688101Y-84716819D01*
X147749424Y-84683334D01*
X147775782Y-84680500D01*
X148879763Y-84680500D01*
X148936059Y-84694016D01*
X148947550Y-84699871D01*
X148947552Y-84699871D01*
X148947555Y-84699873D01*
X149112299Y-84753402D01*
X149283389Y-84780500D01*
X149283390Y-84780500D01*
X149456610Y-84780500D01*
X149456611Y-84780500D01*
X149627701Y-84753402D01*
X149792445Y-84699873D01*
X149946788Y-84621232D01*
X150086928Y-84519414D01*
X150209414Y-84396928D01*
X150311232Y-84256788D01*
X150389873Y-84102445D01*
X150443402Y-83937701D01*
X150470500Y-83766611D01*
X150470500Y-83593389D01*
X150443402Y-83422299D01*
X150389873Y-83257555D01*
X150311232Y-83103212D01*
X150209414Y-82963072D01*
X150086928Y-82840586D01*
X149946788Y-82738768D01*
X149792445Y-82660127D01*
X149627701Y-82606598D01*
X149627699Y-82606597D01*
X149627698Y-82606597D01*
X149496271Y-82585781D01*
X149456611Y-82579500D01*
X149283389Y-82579500D01*
X149243728Y-82585781D01*
X149112302Y-82606597D01*
X148947550Y-82660128D01*
X148936059Y-82665984D01*
X148879763Y-82679500D01*
X147211458Y-82679500D01*
X147174968Y-82686758D01*
X147156164Y-82690499D01*
X147018164Y-82717949D01*
X146967903Y-82738768D01*
X146960061Y-82742015D01*
X146960050Y-82742019D01*
X146836092Y-82793364D01*
X146836079Y-82793371D01*
X146672219Y-82902859D01*
X146636827Y-82938252D01*
X146532861Y-83042218D01*
X144332863Y-85242215D01*
X144332862Y-85242216D01*
X144223367Y-85406089D01*
X144214686Y-85427046D01*
X144187808Y-85467270D01*
X142107219Y-87547861D01*
X141811899Y-87843181D01*
X141750576Y-87876666D01*
X141724218Y-87879500D01*
X133331439Y-87879500D01*
X133264400Y-87859815D01*
X133257128Y-87854767D01*
X133232331Y-87836204D01*
X133232328Y-87836202D01*
X133097482Y-87785908D01*
X133097483Y-87785908D01*
X133037883Y-87779501D01*
X133037881Y-87779500D01*
X133037873Y-87779500D01*
X133037865Y-87779500D01*
X130540372Y-87779500D01*
X130477239Y-87762225D01*
X126981015Y-85694035D01*
X126981003Y-85694029D01*
X126980998Y-85694026D01*
X126942803Y-85674443D01*
X126942800Y-85674442D01*
X126920981Y-85668916D01*
X126877766Y-85657973D01*
X126846144Y-85649500D01*
X126844309Y-85649500D01*
X126835270Y-85647211D01*
X126835269Y-85647210D01*
X126829363Y-85645714D01*
X126829352Y-85645714D01*
X126788784Y-85649076D01*
X126778543Y-85649500D01*
X124386144Y-85649500D01*
X124293856Y-85649500D01*
X124204712Y-85673386D01*
X124204711Y-85673386D01*
X124204709Y-85673387D01*
X124204706Y-85673388D01*
X124124794Y-85719526D01*
X124124785Y-85719533D01*
X124059533Y-85784785D01*
X124059526Y-85784794D01*
X124013388Y-85864706D01*
X124013387Y-85864709D01*
X123989500Y-85953856D01*
X123989500Y-91139192D01*
X123969815Y-91206231D01*
X123917011Y-91251986D01*
X123847853Y-91261930D01*
X123791190Y-91238460D01*
X123782088Y-91231646D01*
X123782086Y-91231645D01*
X123647379Y-91181403D01*
X123647372Y-91181401D01*
X123587844Y-91175000D01*
X123327500Y-91175000D01*
X123327500Y-92026000D01*
X123324949Y-92034685D01*
X123326238Y-92043647D01*
X123315259Y-92067687D01*
X123307815Y-92093039D01*
X123300974Y-92098966D01*
X123297213Y-92107203D01*
X123274978Y-92121492D01*
X123255011Y-92138794D01*
X123244496Y-92141081D01*
X123238435Y-92144977D01*
X123203500Y-92150000D01*
X123202500Y-92150000D01*
X123202500Y-92151000D01*
X123182815Y-92218039D01*
X123130011Y-92263794D01*
X123078500Y-92275000D01*
X122365000Y-92275000D01*
X122365000Y-92672844D01*
X122371401Y-92732372D01*
X122371403Y-92732379D01*
X122421645Y-92867086D01*
X122421649Y-92867093D01*
X122507809Y-92982187D01*
X122553289Y-93016234D01*
X122595159Y-93072168D01*
X122600143Y-93141860D01*
X122566657Y-93203182D01*
X122505333Y-93236667D01*
X122478977Y-93239500D01*
X114942229Y-93239500D01*
X114875190Y-93219815D01*
X114854548Y-93203181D01*
X113278522Y-91627155D01*
X122365000Y-91627155D01*
X122365000Y-92025000D01*
X123077500Y-92025000D01*
X123077500Y-91175000D01*
X122817155Y-91175000D01*
X122757627Y-91181401D01*
X122757620Y-91181403D01*
X122622913Y-91231645D01*
X122622906Y-91231649D01*
X122507812Y-91317809D01*
X122507809Y-91317812D01*
X122421649Y-91432906D01*
X122421645Y-91432913D01*
X122371403Y-91567620D01*
X122371401Y-91567627D01*
X122365000Y-91627155D01*
X113278522Y-91627155D01*
X111216819Y-89565451D01*
X111183334Y-89504128D01*
X111180500Y-89477770D01*
X111180500Y-89007525D01*
X113819500Y-89007525D01*
X113819500Y-89152475D01*
X113857016Y-89292485D01*
X113857017Y-89292488D01*
X113929488Y-89418011D01*
X113929493Y-89418017D01*
X113983956Y-89472480D01*
X114017441Y-89533803D01*
X114019213Y-89543969D01*
X114019498Y-89546139D01*
X114030576Y-89587482D01*
X114030577Y-89587482D01*
X114030577Y-89587483D01*
X114043386Y-89635288D01*
X114043388Y-89635291D01*
X114089527Y-89715208D01*
X114089531Y-89715213D01*
X114423181Y-90048863D01*
X114456666Y-90110186D01*
X114459500Y-90136544D01*
X114459500Y-90937870D01*
X114459501Y-90937876D01*
X114465908Y-90997483D01*
X114516202Y-91132328D01*
X114516206Y-91132335D01*
X114602452Y-91247544D01*
X114602455Y-91247547D01*
X114717664Y-91333793D01*
X114717671Y-91333797D01*
X114852517Y-91384091D01*
X114852516Y-91384091D01*
X114859444Y-91384835D01*
X114912127Y-91390500D01*
X115707872Y-91390499D01*
X115767483Y-91384091D01*
X115902331Y-91333796D01*
X116017546Y-91247546D01*
X116103796Y-91132331D01*
X116154091Y-90997483D01*
X116160500Y-90937873D01*
X116160500Y-90937844D01*
X116460000Y-90937844D01*
X116466401Y-90997372D01*
X116466403Y-90997379D01*
X116516645Y-91132086D01*
X116516649Y-91132093D01*
X116602809Y-91247187D01*
X116602812Y-91247190D01*
X116717906Y-91333350D01*
X116717913Y-91333354D01*
X116852620Y-91383596D01*
X116852627Y-91383598D01*
X116912155Y-91389999D01*
X116912172Y-91390000D01*
X117185000Y-91390000D01*
X117435000Y-91390000D01*
X117707828Y-91390000D01*
X117707844Y-91389999D01*
X117767372Y-91383598D01*
X117767379Y-91383596D01*
X117902086Y-91333354D01*
X117902093Y-91333350D01*
X118017187Y-91247190D01*
X118017190Y-91247187D01*
X118103350Y-91132093D01*
X118103354Y-91132086D01*
X118153596Y-90997379D01*
X118153598Y-90997372D01*
X118159999Y-90937844D01*
X118160000Y-90937827D01*
X118160000Y-90565000D01*
X117435000Y-90565000D01*
X117435000Y-91390000D01*
X117185000Y-91390000D01*
X117185000Y-90565000D01*
X116460000Y-90565000D01*
X116460000Y-90937844D01*
X116160500Y-90937844D01*
X116160499Y-90447844D01*
X121815000Y-90447844D01*
X121821401Y-90507372D01*
X121821403Y-90507379D01*
X121871645Y-90642086D01*
X121871649Y-90642093D01*
X121957809Y-90757187D01*
X121957812Y-90757190D01*
X122072906Y-90843350D01*
X122072913Y-90843354D01*
X122207620Y-90893596D01*
X122207627Y-90893598D01*
X122267155Y-90899999D01*
X122267172Y-90900000D01*
X122602500Y-90900000D01*
X122852500Y-90900000D01*
X123187828Y-90900000D01*
X123187844Y-90899999D01*
X123247372Y-90893598D01*
X123247379Y-90893596D01*
X123382086Y-90843354D01*
X123382093Y-90843350D01*
X123497187Y-90757190D01*
X123497190Y-90757187D01*
X123583350Y-90642093D01*
X123583354Y-90642086D01*
X123633596Y-90507379D01*
X123633598Y-90507372D01*
X123639999Y-90447844D01*
X123640000Y-90447827D01*
X123640000Y-89875000D01*
X122852500Y-89875000D01*
X122852500Y-90900000D01*
X122602500Y-90900000D01*
X122602500Y-89875000D01*
X121815000Y-89875000D01*
X121815000Y-90447844D01*
X116160499Y-90447844D01*
X116160499Y-90438492D01*
X116160499Y-89942155D01*
X116460000Y-89942155D01*
X116460000Y-90315000D01*
X117185000Y-90315000D01*
X117435000Y-90315000D01*
X118160000Y-90315000D01*
X118160000Y-89942172D01*
X118159999Y-89942155D01*
X118153598Y-89882627D01*
X118153596Y-89882620D01*
X118147760Y-89866971D01*
X118103354Y-89747913D01*
X118103350Y-89747906D01*
X118017190Y-89632812D01*
X118017187Y-89632809D01*
X117902093Y-89546649D01*
X117902086Y-89546645D01*
X117767379Y-89496403D01*
X117767372Y-89496401D01*
X117707844Y-89490000D01*
X117435000Y-89490000D01*
X117435000Y-90315000D01*
X117185000Y-90315000D01*
X117185000Y-89490000D01*
X116912155Y-89490000D01*
X116852627Y-89496401D01*
X116852620Y-89496403D01*
X116717913Y-89546645D01*
X116717906Y-89546649D01*
X116602812Y-89632809D01*
X116602809Y-89632812D01*
X116516649Y-89747906D01*
X116516645Y-89747913D01*
X116466403Y-89882620D01*
X116466401Y-89882627D01*
X116460000Y-89942155D01*
X116160499Y-89942155D01*
X116160499Y-89942129D01*
X116160498Y-89942123D01*
X116154091Y-89882516D01*
X116103797Y-89747671D01*
X116103793Y-89747664D01*
X116017547Y-89632455D01*
X116017544Y-89632452D01*
X115902335Y-89546206D01*
X115902328Y-89546202D01*
X115767482Y-89495908D01*
X115767483Y-89495908D01*
X115707883Y-89489501D01*
X115707881Y-89489500D01*
X115707873Y-89489500D01*
X115707865Y-89489500D01*
X114984011Y-89489500D01*
X114916972Y-89469815D01*
X114871217Y-89417011D01*
X114861273Y-89347853D01*
X114876627Y-89303495D01*
X114882984Y-89292485D01*
X114920500Y-89152475D01*
X114920500Y-89052155D01*
X121815000Y-89052155D01*
X121815000Y-89625000D01*
X122602500Y-89625000D01*
X122852500Y-89625000D01*
X123640000Y-89625000D01*
X123640000Y-89052172D01*
X123639999Y-89052155D01*
X123633598Y-88992627D01*
X123633596Y-88992620D01*
X123583354Y-88857913D01*
X123583350Y-88857906D01*
X123497190Y-88742812D01*
X123497187Y-88742809D01*
X123382093Y-88656649D01*
X123382086Y-88656645D01*
X123247379Y-88606403D01*
X123247372Y-88606401D01*
X123187844Y-88600000D01*
X122852500Y-88600000D01*
X122852500Y-89625000D01*
X122602500Y-89625000D01*
X122602500Y-88600000D01*
X122267155Y-88600000D01*
X122207627Y-88606401D01*
X122207620Y-88606403D01*
X122072913Y-88656645D01*
X122072906Y-88656649D01*
X121957812Y-88742809D01*
X121957809Y-88742812D01*
X121871649Y-88857906D01*
X121871645Y-88857913D01*
X121821403Y-88992620D01*
X121821401Y-88992627D01*
X121815000Y-89052155D01*
X114920500Y-89052155D01*
X114920500Y-89007525D01*
X114882984Y-88867515D01*
X114877440Y-88857913D01*
X114810511Y-88741988D01*
X114810506Y-88741982D01*
X114708017Y-88639493D01*
X114708011Y-88639488D01*
X114582488Y-88567017D01*
X114582489Y-88567017D01*
X114571006Y-88563940D01*
X114442475Y-88529500D01*
X114297525Y-88529500D01*
X114168993Y-88563940D01*
X114157511Y-88567017D01*
X114031988Y-88639488D01*
X114031982Y-88639493D01*
X113929493Y-88741982D01*
X113929488Y-88741988D01*
X113857017Y-88867511D01*
X113857016Y-88867515D01*
X113819500Y-89007525D01*
X111180500Y-89007525D01*
X111180500Y-88336564D01*
X111200185Y-88269525D01*
X111252989Y-88223770D01*
X111322147Y-88213826D01*
X111385703Y-88242851D01*
X111419061Y-88289112D01*
X111458104Y-88383372D01*
X111458111Y-88383385D01*
X111546675Y-88515930D01*
X111546678Y-88515934D01*
X111659397Y-88628653D01*
X111659401Y-88628656D01*
X111791946Y-88717220D01*
X111791952Y-88717223D01*
X111791953Y-88717224D01*
X111939236Y-88778231D01*
X112095435Y-88809301D01*
X112095586Y-88809331D01*
X112095589Y-88809332D01*
X112095591Y-88809332D01*
X113042411Y-88809332D01*
X113042412Y-88809331D01*
X113198764Y-88778231D01*
X113346047Y-88717224D01*
X113478599Y-88628656D01*
X113591324Y-88515931D01*
X113679892Y-88383379D01*
X113740899Y-88236096D01*
X113772000Y-88079741D01*
X113772000Y-87920323D01*
X113772000Y-87920320D01*
X113771999Y-87920318D01*
X113771993Y-87920288D01*
X113740899Y-87763968D01*
X113679892Y-87616685D01*
X113679891Y-87616684D01*
X113679888Y-87616678D01*
X113591324Y-87484133D01*
X113591321Y-87484129D01*
X113478602Y-87371410D01*
X113478598Y-87371407D01*
X113346053Y-87282843D01*
X113346044Y-87282838D01*
X113198764Y-87221833D01*
X113198756Y-87221831D01*
X113042412Y-87190732D01*
X113042409Y-87190732D01*
X112349998Y-87190732D01*
X112328752Y-87184493D01*
X112306664Y-87182914D01*
X112295880Y-87174841D01*
X112282959Y-87171047D01*
X112268459Y-87154313D01*
X112250731Y-87141042D01*
X112246023Y-87128421D01*
X112237204Y-87118243D01*
X112234052Y-87096325D01*
X112226314Y-87075578D01*
X112229176Y-87062417D01*
X112227260Y-87049085D01*
X112236459Y-87028941D01*
X112241166Y-87007305D01*
X112254434Y-86989579D01*
X112256285Y-86985529D01*
X112262317Y-86979051D01*
X112384549Y-86856819D01*
X112445872Y-86823334D01*
X112472230Y-86820500D01*
X114227253Y-86820500D01*
X114346456Y-86796788D01*
X114372246Y-86791658D01*
X114508828Y-86735084D01*
X114512228Y-86732812D01*
X114604142Y-86671398D01*
X114670820Y-86650520D01*
X114673033Y-86650500D01*
X116359000Y-86650500D01*
X116426039Y-86670185D01*
X116471794Y-86722989D01*
X116483000Y-86774500D01*
X116483000Y-87066702D01*
X116463315Y-87133741D01*
X116410511Y-87179496D01*
X116359000Y-87190702D01*
X116093188Y-87190702D01*
X115936843Y-87221801D01*
X115936835Y-87221803D01*
X115789555Y-87282808D01*
X115789546Y-87282813D01*
X115657001Y-87371377D01*
X115656997Y-87371380D01*
X115544278Y-87484099D01*
X115544275Y-87484103D01*
X115455711Y-87616648D01*
X115455706Y-87616657D01*
X115394701Y-87763937D01*
X115394699Y-87763945D01*
X115363600Y-87920288D01*
X115363600Y-88079715D01*
X115394699Y-88236058D01*
X115394701Y-88236066D01*
X115455706Y-88383346D01*
X115455711Y-88383355D01*
X115544275Y-88515900D01*
X115544278Y-88515904D01*
X115656997Y-88628623D01*
X115657001Y-88628626D01*
X115789546Y-88717190D01*
X115789555Y-88717195D01*
X115822919Y-88731014D01*
X115936836Y-88778201D01*
X116093186Y-88809301D01*
X116093189Y-88809302D01*
X116093191Y-88809302D01*
X117344811Y-88809302D01*
X117344812Y-88809301D01*
X117501164Y-88778201D01*
X117648447Y-88717194D01*
X117780999Y-88628626D01*
X117893724Y-88515901D01*
X117982292Y-88383349D01*
X118043299Y-88236066D01*
X118074400Y-88079711D01*
X118074400Y-87920293D01*
X118074400Y-87920290D01*
X118074399Y-87920288D01*
X118067945Y-87887844D01*
X121865000Y-87887844D01*
X121871401Y-87947372D01*
X121871403Y-87947379D01*
X121921645Y-88082086D01*
X121921649Y-88082093D01*
X122007809Y-88197187D01*
X122007812Y-88197190D01*
X122122906Y-88283350D01*
X122122913Y-88283354D01*
X122257620Y-88333596D01*
X122257627Y-88333598D01*
X122317155Y-88339999D01*
X122317172Y-88340000D01*
X122652500Y-88340000D01*
X122902500Y-88340000D01*
X123237828Y-88340000D01*
X123237844Y-88339999D01*
X123297372Y-88333598D01*
X123297379Y-88333596D01*
X123432086Y-88283354D01*
X123432093Y-88283350D01*
X123547187Y-88197190D01*
X123547190Y-88197187D01*
X123633350Y-88082093D01*
X123633354Y-88082086D01*
X123683596Y-87947379D01*
X123683598Y-87947372D01*
X123689999Y-87887844D01*
X123690000Y-87887827D01*
X123690000Y-87315000D01*
X122902500Y-87315000D01*
X122902500Y-88340000D01*
X122652500Y-88340000D01*
X122652500Y-87315000D01*
X121865000Y-87315000D01*
X121865000Y-87887844D01*
X118067945Y-87887844D01*
X118059061Y-87843181D01*
X118043299Y-87763938D01*
X117982305Y-87616687D01*
X117982293Y-87616657D01*
X117982287Y-87616647D01*
X117963449Y-87588454D01*
X117942570Y-87521777D01*
X117961054Y-87454397D01*
X117997656Y-87416462D01*
X118062166Y-87373359D01*
X118117551Y-87290469D01*
X118119074Y-87282813D01*
X118127701Y-87239446D01*
X118127701Y-87239445D01*
X118136999Y-87192697D01*
X118137000Y-87192695D01*
X118137000Y-86774500D01*
X118139550Y-86765814D01*
X118138262Y-86756853D01*
X118149240Y-86732812D01*
X118156685Y-86707461D01*
X118163525Y-86701533D01*
X118167287Y-86693297D01*
X118189521Y-86679007D01*
X118209489Y-86661706D01*
X118220003Y-86659418D01*
X118226065Y-86655523D01*
X118261000Y-86650500D01*
X118276009Y-86650500D01*
X118312118Y-86655874D01*
X118333863Y-86662493D01*
X118450817Y-86658375D01*
X118560097Y-86616505D01*
X118582399Y-86597848D01*
X118599958Y-86585574D01*
X118678015Y-86540509D01*
X118726369Y-86492155D01*
X121865000Y-86492155D01*
X121865000Y-87065000D01*
X122652500Y-87065000D01*
X122902500Y-87065000D01*
X123690000Y-87065000D01*
X123690000Y-86492172D01*
X123689999Y-86492155D01*
X123683598Y-86432627D01*
X123683596Y-86432620D01*
X123633354Y-86297913D01*
X123633350Y-86297906D01*
X123547190Y-86182812D01*
X123547187Y-86182809D01*
X123432093Y-86096649D01*
X123432086Y-86096645D01*
X123297379Y-86046403D01*
X123297372Y-86046401D01*
X123237844Y-86040000D01*
X122902500Y-86040000D01*
X122902500Y-87065000D01*
X122652500Y-87065000D01*
X122652500Y-86040000D01*
X122317155Y-86040000D01*
X122257627Y-86046401D01*
X122257620Y-86046403D01*
X122122913Y-86096645D01*
X122122906Y-86096649D01*
X122007812Y-86182809D01*
X122007809Y-86182812D01*
X121921649Y-86297906D01*
X121921645Y-86297913D01*
X121871403Y-86432620D01*
X121871401Y-86432627D01*
X121865000Y-86492155D01*
X118726369Y-86492155D01*
X118780509Y-86438015D01*
X118852984Y-86312485D01*
X118853584Y-86310242D01*
X118858671Y-86301341D01*
X118862930Y-86297243D01*
X118872205Y-86282141D01*
X118999768Y-86133389D01*
X120142925Y-84800344D01*
X121130000Y-84800344D01*
X121136401Y-84859872D01*
X121136403Y-84859879D01*
X121186645Y-84994586D01*
X121186649Y-84994593D01*
X121272809Y-85109687D01*
X121272812Y-85109690D01*
X121387906Y-85195850D01*
X121387913Y-85195854D01*
X121522620Y-85246096D01*
X121522627Y-85246098D01*
X121582155Y-85252499D01*
X121582172Y-85252500D01*
X122155000Y-85252500D01*
X122405000Y-85252500D01*
X122977828Y-85252500D01*
X122977844Y-85252499D01*
X123037372Y-85246098D01*
X123037379Y-85246096D01*
X123172086Y-85195854D01*
X123172093Y-85195850D01*
X123287187Y-85109690D01*
X123287190Y-85109687D01*
X123373350Y-84994593D01*
X123373354Y-84994586D01*
X123423596Y-84859879D01*
X123423598Y-84859872D01*
X123429999Y-84800344D01*
X123430000Y-84800327D01*
X123430000Y-84465000D01*
X122405000Y-84465000D01*
X122405000Y-85252500D01*
X122155000Y-85252500D01*
X122155000Y-84465000D01*
X121130000Y-84465000D01*
X121130000Y-84800344D01*
X120142925Y-84800344D01*
X120911872Y-83903669D01*
X120970455Y-83865594D01*
X121040323Y-83865235D01*
X121099295Y-83902707D01*
X121128646Y-83966113D01*
X121130000Y-83984390D01*
X121130000Y-84215000D01*
X122155000Y-84215000D01*
X122405000Y-84215000D01*
X123430000Y-84215000D01*
X123430000Y-84200344D01*
X123755000Y-84200344D01*
X123761401Y-84259872D01*
X123761403Y-84259879D01*
X123811645Y-84394586D01*
X123811649Y-84394593D01*
X123897809Y-84509687D01*
X123897812Y-84509690D01*
X124012906Y-84595850D01*
X124012913Y-84595854D01*
X124147620Y-84646096D01*
X124147627Y-84646098D01*
X124207155Y-84652499D01*
X124207172Y-84652500D01*
X124605000Y-84652500D01*
X124855000Y-84652500D01*
X125252828Y-84652500D01*
X125252844Y-84652499D01*
X125312372Y-84646098D01*
X125312379Y-84646096D01*
X125447086Y-84595854D01*
X125447093Y-84595850D01*
X125562187Y-84509690D01*
X125562190Y-84509687D01*
X125648350Y-84394593D01*
X125648354Y-84394586D01*
X125698596Y-84259879D01*
X125698598Y-84259872D01*
X125704999Y-84200344D01*
X125705000Y-84200327D01*
X125705000Y-83940000D01*
X124855000Y-83940000D01*
X124855000Y-84652500D01*
X124605000Y-84652500D01*
X124605000Y-83940000D01*
X123755000Y-83940000D01*
X123755000Y-84200344D01*
X123430000Y-84200344D01*
X123430000Y-83879672D01*
X123429999Y-83879655D01*
X123423598Y-83820127D01*
X123423596Y-83820120D01*
X123373354Y-83685413D01*
X123373350Y-83685406D01*
X123287190Y-83570313D01*
X123227486Y-83525618D01*
X123227485Y-83525617D01*
X123172089Y-83484147D01*
X123172086Y-83484145D01*
X123037379Y-83433903D01*
X123037372Y-83433901D01*
X122997885Y-83429655D01*
X123755000Y-83429655D01*
X123755000Y-83690000D01*
X124605000Y-83690000D01*
X124855000Y-83690000D01*
X125705000Y-83690000D01*
X125705000Y-83429672D01*
X125704999Y-83429655D01*
X125698598Y-83370127D01*
X125698596Y-83370120D01*
X125648354Y-83235413D01*
X125648350Y-83235406D01*
X125562190Y-83120312D01*
X125562187Y-83120309D01*
X125447093Y-83034149D01*
X125447086Y-83034145D01*
X125312379Y-82983903D01*
X125312372Y-82983901D01*
X125252844Y-82977500D01*
X124855000Y-82977500D01*
X124855000Y-83690000D01*
X124605000Y-83690000D01*
X124605000Y-82977500D01*
X124207155Y-82977500D01*
X124147627Y-82983901D01*
X124147620Y-82983903D01*
X124012913Y-83034145D01*
X124012906Y-83034149D01*
X123897812Y-83120309D01*
X123897809Y-83120312D01*
X123811649Y-83235406D01*
X123811645Y-83235413D01*
X123761403Y-83370120D01*
X123761401Y-83370127D01*
X123755000Y-83429655D01*
X122997885Y-83429655D01*
X122977844Y-83427500D01*
X122405000Y-83427500D01*
X122405000Y-84215000D01*
X122155000Y-84215000D01*
X122155000Y-83427500D01*
X121589900Y-83427500D01*
X121522861Y-83407815D01*
X121477106Y-83355011D01*
X121467162Y-83285853D01*
X121495771Y-83222780D01*
X121545316Y-83165005D01*
X121783459Y-82887304D01*
X121842040Y-82849230D01*
X121851408Y-82847498D01*
X126396775Y-82847498D01*
X126396776Y-82847499D01*
X126843223Y-82847499D01*
X126843223Y-82847498D01*
X126632564Y-82636839D01*
X126625171Y-82623300D01*
X126613840Y-82612829D01*
X126610904Y-82601503D01*
X126596743Y-82644620D01*
X126582288Y-82661986D01*
X126396775Y-82847498D01*
X121851408Y-82847498D01*
X121868306Y-82844374D01*
X125174992Y-82596374D01*
X125187780Y-82595183D01*
X125901834Y-82515602D01*
X125970640Y-82527740D01*
X126021962Y-82575151D01*
X126033439Y-82608919D01*
X126035460Y-82608370D01*
X126037909Y-82617373D01*
X126083211Y-82719974D01*
X126083214Y-82719979D01*
X126126978Y-82763743D01*
X126403743Y-82486979D01*
X126424849Y-82475453D01*
X126443517Y-82460288D01*
X126460869Y-82455785D01*
X126465066Y-82453494D01*
X126477656Y-82451427D01*
X126480866Y-82451069D01*
X126549671Y-82463202D01*
X126600997Y-82510609D01*
X126603132Y-82518838D01*
X126604063Y-82505824D01*
X126613308Y-82493473D01*
X126618126Y-82478818D01*
X126633820Y-82466074D01*
X126645935Y-82449891D01*
X126661173Y-82443862D01*
X126672365Y-82434775D01*
X126706523Y-82425920D01*
X126709074Y-82425636D01*
X126777879Y-82437785D01*
X126810469Y-82461194D01*
X127113019Y-82763744D01*
X127156786Y-82719978D01*
X127156787Y-82719975D01*
X127202088Y-82617379D01*
X127202089Y-82617375D01*
X127204999Y-82592294D01*
X127204999Y-82302714D01*
X127204997Y-82302691D01*
X127202091Y-82277630D01*
X127202090Y-82277627D01*
X127200117Y-82273158D01*
X127197557Y-82253614D01*
X127190159Y-82235340D01*
X127193040Y-82219116D01*
X127191045Y-82203879D01*
X127198582Y-82187908D01*
X127201929Y-82169067D01*
X127211133Y-82150044D01*
X127225133Y-82033858D01*
X127205547Y-81602979D01*
X127206103Y-81600705D01*
X127205889Y-81595953D01*
X127205500Y-81595953D01*
X127205499Y-81302643D01*
X127205499Y-81302636D01*
X127204538Y-81294346D01*
X127202586Y-81277512D01*
X127202585Y-81277510D01*
X127202585Y-81277509D01*
X127189427Y-81247709D01*
X127189373Y-81247586D01*
X127184927Y-81213638D01*
X127180069Y-81179854D01*
X127180367Y-81178814D01*
X127180301Y-81178308D01*
X127180839Y-81177166D01*
X127189374Y-81147412D01*
X127202584Y-81117495D01*
X127202584Y-81117494D01*
X127202584Y-81117493D01*
X127202585Y-81117491D01*
X127205500Y-81092365D01*
X127205499Y-80802636D01*
X127205255Y-80800533D01*
X127202586Y-80777512D01*
X127202585Y-80777510D01*
X127202585Y-80777509D01*
X127157206Y-80674735D01*
X127077765Y-80595294D01*
X127044552Y-80580629D01*
X126974992Y-80549915D01*
X126949865Y-80547000D01*
X126290143Y-80547000D01*
X126290117Y-80547002D01*
X126265012Y-80549913D01*
X126265008Y-80549915D01*
X126162235Y-80595293D01*
X126082795Y-80674733D01*
X126045933Y-80758216D01*
X126000846Y-80811591D01*
X125934060Y-80832118D01*
X125909469Y-80829971D01*
X122474288Y-80180685D01*
X122408272Y-80174500D01*
X122408264Y-80174500D01*
X118920000Y-80174500D01*
X118919978Y-80174500D01*
X118887675Y-80175972D01*
X118774479Y-80205648D01*
X118774473Y-80205651D01*
X118677047Y-80270473D01*
X118677045Y-80270475D01*
X118677043Y-80270477D01*
X118345743Y-80580629D01*
X118283351Y-80612075D01*
X118213862Y-80604797D01*
X118159338Y-80561105D01*
X118137092Y-80494872D01*
X118137000Y-80490106D01*
X118137000Y-80167304D01*
X118136999Y-80167302D01*
X118117552Y-80069535D01*
X118117551Y-80069534D01*
X118117551Y-80069531D01*
X118062166Y-79986641D01*
X118048551Y-79977544D01*
X117997659Y-79943539D01*
X117952854Y-79889927D01*
X117944147Y-79820602D01*
X117963448Y-79771545D01*
X117982292Y-79743345D01*
X118013566Y-79667844D01*
X125000000Y-79667844D01*
X125006401Y-79727372D01*
X125006403Y-79727379D01*
X125056645Y-79862086D01*
X125056649Y-79862093D01*
X125142809Y-79977187D01*
X125142812Y-79977190D01*
X125257906Y-80063350D01*
X125257913Y-80063354D01*
X125392620Y-80113596D01*
X125392627Y-80113598D01*
X125452155Y-80119999D01*
X125452172Y-80120000D01*
X125725000Y-80120000D01*
X125975000Y-80120000D01*
X126247828Y-80120000D01*
X126247844Y-80119999D01*
X126307372Y-80113598D01*
X126307379Y-80113596D01*
X126442086Y-80063354D01*
X126442093Y-80063350D01*
X126557187Y-79977190D01*
X126557190Y-79977187D01*
X126643350Y-79862093D01*
X126643354Y-79862086D01*
X126693596Y-79727379D01*
X126693598Y-79727372D01*
X126699999Y-79667844D01*
X126700000Y-79667827D01*
X126700000Y-79295000D01*
X125975000Y-79295000D01*
X125975000Y-80120000D01*
X125725000Y-80120000D01*
X125725000Y-79295000D01*
X125000000Y-79295000D01*
X125000000Y-79667844D01*
X118013566Y-79667844D01*
X118043299Y-79596062D01*
X118074400Y-79439707D01*
X118074400Y-79280289D01*
X118074393Y-79280256D01*
X118071922Y-79267831D01*
X118071922Y-79267829D01*
X118043300Y-79123941D01*
X118043299Y-79123934D01*
X117982292Y-78976651D01*
X117982291Y-78976650D01*
X117982288Y-78976644D01*
X117893724Y-78844099D01*
X117893721Y-78844095D01*
X117781002Y-78731376D01*
X117780998Y-78731373D01*
X117648453Y-78642809D01*
X117648444Y-78642804D01*
X117501164Y-78581799D01*
X117501156Y-78581797D01*
X117344812Y-78550698D01*
X117344809Y-78550698D01*
X116093191Y-78550698D01*
X116093188Y-78550698D01*
X115936843Y-78581797D01*
X115936835Y-78581799D01*
X115789555Y-78642804D01*
X115789546Y-78642809D01*
X115657001Y-78731373D01*
X115656997Y-78731376D01*
X115544278Y-78844095D01*
X115544275Y-78844099D01*
X115455711Y-78976644D01*
X115455706Y-78976653D01*
X115394701Y-79123933D01*
X115394699Y-79123941D01*
X115363600Y-79280284D01*
X115363600Y-79439711D01*
X115394699Y-79596054D01*
X115394701Y-79596062D01*
X115455706Y-79743342D01*
X115455711Y-79743351D01*
X115544275Y-79875896D01*
X115544278Y-79875900D01*
X115656997Y-79988619D01*
X115657001Y-79988622D01*
X115789546Y-80077186D01*
X115789552Y-80077189D01*
X115789553Y-80077190D01*
X115936836Y-80138197D01*
X116083167Y-80167304D01*
X116093186Y-80169297D01*
X116093189Y-80169298D01*
X116093191Y-80169298D01*
X116359000Y-80169298D01*
X116426039Y-80188983D01*
X116471794Y-80241787D01*
X116483000Y-80293298D01*
X116483000Y-80776910D01*
X116497614Y-80850379D01*
X116497614Y-80898761D01*
X116483000Y-80972229D01*
X116483000Y-80972233D01*
X116483000Y-81581833D01*
X116483000Y-81581835D01*
X116482999Y-81581835D01*
X116497660Y-81655535D01*
X116497770Y-81658826D01*
X116498534Y-81660441D01*
X116498267Y-81673685D01*
X116499006Y-81695732D01*
X116498470Y-81699844D01*
X116488000Y-81752485D01*
X116488000Y-81780289D01*
X116486963Y-81788257D01*
X116475983Y-81813173D01*
X116468315Y-81839291D01*
X116462104Y-81844672D01*
X116458790Y-81852195D01*
X116436081Y-81867221D01*
X116415511Y-81885046D01*
X116407377Y-81886215D01*
X116400522Y-81890752D01*
X116373298Y-81891115D01*
X116346353Y-81894990D01*
X116331911Y-81892028D01*
X116322476Y-81889500D01*
X116322475Y-81889500D01*
X116177525Y-81889500D01*
X116048993Y-81923940D01*
X116037511Y-81927017D01*
X115911988Y-81999488D01*
X115911982Y-81999493D01*
X115809493Y-82101982D01*
X115809488Y-82101988D01*
X115737017Y-82227511D01*
X115737016Y-82227515D01*
X115699500Y-82367525D01*
X115699500Y-82512475D01*
X115732824Y-82636839D01*
X115737017Y-82652488D01*
X115809488Y-82778011D01*
X115809490Y-82778013D01*
X115809491Y-82778015D01*
X115911985Y-82880509D01*
X115911986Y-82880510D01*
X115911988Y-82880511D01*
X116037511Y-82952982D01*
X116037512Y-82952982D01*
X116037515Y-82952984D01*
X116177525Y-82990500D01*
X116177528Y-82990500D01*
X116322473Y-82990500D01*
X116322475Y-82990500D01*
X116331905Y-82987973D01*
X116401754Y-82989634D01*
X116459618Y-83028796D01*
X116486294Y-83087251D01*
X116488000Y-83097430D01*
X116488000Y-83106885D01*
X116498065Y-83157487D01*
X116498382Y-83159378D01*
X116497706Y-83165005D01*
X116497706Y-83204063D01*
X116488000Y-83252862D01*
X116488000Y-83607011D01*
X116497706Y-83655811D01*
X116497706Y-83704189D01*
X116488000Y-83752988D01*
X116488000Y-84107137D01*
X116497706Y-84155937D01*
X116497706Y-84204315D01*
X116488000Y-84253114D01*
X116488000Y-84502857D01*
X116468315Y-84569896D01*
X116415511Y-84615651D01*
X116346353Y-84625595D01*
X116302000Y-84610244D01*
X116192488Y-84547017D01*
X116192489Y-84547017D01*
X116181006Y-84543940D01*
X116052475Y-84509500D01*
X115907525Y-84509500D01*
X115778993Y-84543940D01*
X115767511Y-84547017D01*
X115641988Y-84619488D01*
X115641982Y-84619493D01*
X115539493Y-84721982D01*
X115539488Y-84721988D01*
X115467017Y-84847511D01*
X115467016Y-84847515D01*
X115429500Y-84987525D01*
X115429500Y-85132475D01*
X115467016Y-85272485D01*
X115519564Y-85363501D01*
X115536037Y-85431399D01*
X115513185Y-85497426D01*
X115458264Y-85540617D01*
X115412177Y-85549500D01*
X114745563Y-85549500D01*
X114678524Y-85529815D01*
X114657882Y-85513181D01*
X114631752Y-85487051D01*
X114631748Y-85487048D01*
X114508834Y-85404919D01*
X114508821Y-85404912D01*
X114372250Y-85348343D01*
X114372240Y-85348340D01*
X114227253Y-85319500D01*
X114227251Y-85319500D01*
X112036082Y-85319500D01*
X112036080Y-85319500D01*
X111891092Y-85348340D01*
X111891086Y-85348342D01*
X111754508Y-85404914D01*
X111754496Y-85404921D01*
X111705269Y-85437813D01*
X111631588Y-85487044D01*
X111631580Y-85487050D01*
X110002181Y-87116450D01*
X109940858Y-87149935D01*
X109871166Y-87144951D01*
X109815233Y-87103079D01*
X109790816Y-87037615D01*
X109790500Y-87028769D01*
X109790500Y-79280254D01*
X111366000Y-79280254D01*
X111366000Y-79439681D01*
X111397099Y-79596024D01*
X111397101Y-79596032D01*
X111458106Y-79743312D01*
X111458111Y-79743321D01*
X111546675Y-79875866D01*
X111546678Y-79875870D01*
X111659397Y-79988589D01*
X111659401Y-79988592D01*
X111791946Y-80077156D01*
X111791955Y-80077161D01*
X111817022Y-80087544D01*
X111939236Y-80138167D01*
X112095586Y-80169267D01*
X112095589Y-80169268D01*
X112095591Y-80169268D01*
X113042411Y-80169268D01*
X113042412Y-80169267D01*
X113198764Y-80138167D01*
X113346047Y-80077160D01*
X113478599Y-79988592D01*
X113591324Y-79875867D01*
X113679892Y-79743315D01*
X113740899Y-79596032D01*
X113772000Y-79439677D01*
X113772000Y-79280259D01*
X113772000Y-79280256D01*
X113771999Y-79280254D01*
X113769528Y-79267831D01*
X113740899Y-79123904D01*
X113679905Y-78976653D01*
X113679893Y-78976623D01*
X113679888Y-78976614D01*
X113591324Y-78844069D01*
X113591321Y-78844065D01*
X113478602Y-78731346D01*
X113478598Y-78731343D01*
X113346053Y-78642779D01*
X113346044Y-78642774D01*
X113198764Y-78581769D01*
X113198756Y-78581767D01*
X113042412Y-78550668D01*
X113042409Y-78550668D01*
X112095591Y-78550668D01*
X112095588Y-78550668D01*
X111939243Y-78581767D01*
X111939235Y-78581769D01*
X111791955Y-78642774D01*
X111791946Y-78642779D01*
X111659401Y-78731343D01*
X111659397Y-78731346D01*
X111546678Y-78844065D01*
X111546675Y-78844069D01*
X111458111Y-78976614D01*
X111458106Y-78976623D01*
X111397101Y-79123903D01*
X111397099Y-79123911D01*
X111366000Y-79280254D01*
X109790500Y-79280254D01*
X109790500Y-78417525D01*
X114029500Y-78417525D01*
X114029500Y-78562475D01*
X114067016Y-78702485D01*
X114067017Y-78702488D01*
X114139488Y-78828011D01*
X114139490Y-78828013D01*
X114139491Y-78828015D01*
X114241985Y-78930509D01*
X114241986Y-78930510D01*
X114241988Y-78930511D01*
X114367511Y-79002982D01*
X114367512Y-79002982D01*
X114367515Y-79002984D01*
X114507525Y-79040500D01*
X114507528Y-79040500D01*
X114652472Y-79040500D01*
X114652475Y-79040500D01*
X114792485Y-79002984D01*
X114918015Y-78930509D01*
X115020509Y-78828015D01*
X115092984Y-78702485D01*
X115130500Y-78562475D01*
X115130500Y-78517844D01*
X118450000Y-78517844D01*
X118456401Y-78577372D01*
X118456403Y-78577379D01*
X118506645Y-78712086D01*
X118506649Y-78712093D01*
X118592809Y-78827187D01*
X118592812Y-78827190D01*
X118707906Y-78913350D01*
X118707913Y-78913354D01*
X118842620Y-78963596D01*
X118842627Y-78963598D01*
X118902155Y-78969999D01*
X118902172Y-78970000D01*
X119475000Y-78970000D01*
X119725000Y-78970000D01*
X120297828Y-78970000D01*
X120297844Y-78969999D01*
X120357372Y-78963598D01*
X120357379Y-78963596D01*
X120492086Y-78913354D01*
X120492093Y-78913350D01*
X120607187Y-78827190D01*
X120607190Y-78827187D01*
X120693350Y-78712093D01*
X120693354Y-78712086D01*
X120708247Y-78672155D01*
X125000000Y-78672155D01*
X125000000Y-79045000D01*
X125725000Y-79045000D01*
X125975000Y-79045000D01*
X126700000Y-79045000D01*
X126700000Y-78672164D01*
X126699997Y-78672135D01*
X126999500Y-78672135D01*
X126999500Y-79667870D01*
X126999501Y-79667876D01*
X127005908Y-79727483D01*
X127056202Y-79862328D01*
X127056206Y-79862335D01*
X127142452Y-79977544D01*
X127142455Y-79977547D01*
X127257664Y-80063793D01*
X127257671Y-80063797D01*
X127392517Y-80114091D01*
X127400062Y-80115874D01*
X127399523Y-80118151D01*
X127453287Y-80140408D01*
X127493147Y-80197793D01*
X127499500Y-80236975D01*
X127499500Y-80743643D01*
X127510275Y-80783857D01*
X127514500Y-80815950D01*
X127514500Y-81092356D01*
X127514502Y-81092382D01*
X127517413Y-81117485D01*
X127517413Y-81117486D01*
X127517414Y-81117490D01*
X127517415Y-81117491D01*
X127530626Y-81147412D01*
X127530628Y-81147415D01*
X127535065Y-81181314D01*
X127539930Y-81215145D01*
X127539591Y-81215886D01*
X127539697Y-81216694D01*
X127530628Y-81247583D01*
X127517415Y-81277508D01*
X127514500Y-81302631D01*
X127514500Y-81592356D01*
X127514502Y-81592382D01*
X127517413Y-81617485D01*
X127517413Y-81617486D01*
X127517414Y-81617490D01*
X127517415Y-81617491D01*
X127522042Y-81627971D01*
X127530628Y-81647415D01*
X127532798Y-81663992D01*
X127539829Y-81679161D01*
X127537239Y-81697920D01*
X127539697Y-81716694D01*
X127530628Y-81747583D01*
X127517415Y-81777508D01*
X127514500Y-81802631D01*
X127514500Y-82092356D01*
X127514502Y-82092382D01*
X127517413Y-82117485D01*
X127517413Y-82117486D01*
X127530628Y-82147415D01*
X127533186Y-82166958D01*
X127540584Y-82185230D01*
X127537628Y-82200893D01*
X127539697Y-82216694D01*
X127530628Y-82247583D01*
X127517415Y-82277508D01*
X127514500Y-82302631D01*
X127514500Y-82376055D01*
X127513048Y-82394978D01*
X127331754Y-83569067D01*
X127325388Y-83593476D01*
X127295909Y-83672515D01*
X127295908Y-83672517D01*
X127289501Y-83732116D01*
X127289501Y-83732123D01*
X127289500Y-83732135D01*
X127289500Y-85027870D01*
X127289501Y-85027876D01*
X127295908Y-85087483D01*
X127346202Y-85222328D01*
X127346206Y-85222335D01*
X127432452Y-85337544D01*
X127432455Y-85337547D01*
X127547664Y-85423793D01*
X127547671Y-85423797D01*
X127682517Y-85474091D01*
X127682516Y-85474091D01*
X127689444Y-85474835D01*
X127742127Y-85480500D01*
X133037872Y-85480499D01*
X133097483Y-85474091D01*
X133232331Y-85423796D01*
X133347546Y-85337546D01*
X133433796Y-85222331D01*
X133484091Y-85087483D01*
X133490500Y-85027873D01*
X133490499Y-83732128D01*
X133484091Y-83672517D01*
X133484090Y-83672515D01*
X133433797Y-83537671D01*
X133433793Y-83537664D01*
X133382123Y-83468643D01*
X133347546Y-83422454D01*
X133232331Y-83336204D01*
X133224968Y-83333457D01*
X133173677Y-83314326D01*
X133153965Y-83304920D01*
X131525729Y-82343486D01*
X131366451Y-82249436D01*
X131359103Y-82241577D01*
X134779500Y-82241577D01*
X134779500Y-82438422D01*
X134810290Y-82632826D01*
X134871117Y-82820029D01*
X134951353Y-82977500D01*
X134960476Y-82995405D01*
X135076172Y-83154646D01*
X135215354Y-83293828D01*
X135374595Y-83409524D01*
X135414105Y-83429655D01*
X135549970Y-83498882D01*
X135549972Y-83498882D01*
X135549975Y-83498884D01*
X135650317Y-83531487D01*
X135737173Y-83559709D01*
X135931578Y-83590500D01*
X135931583Y-83590500D01*
X136128422Y-83590500D01*
X136322826Y-83559709D01*
X136510025Y-83498884D01*
X136685405Y-83409524D01*
X136844646Y-83293828D01*
X136983828Y-83154646D01*
X137099524Y-82995405D01*
X137158068Y-82880506D01*
X137189515Y-82818787D01*
X137237489Y-82767990D01*
X137305310Y-82751195D01*
X137371445Y-82773732D01*
X137410485Y-82818787D01*
X137500474Y-82995403D01*
X137524736Y-83028796D01*
X137616172Y-83154646D01*
X137755354Y-83293828D01*
X137914595Y-83409524D01*
X137954105Y-83429655D01*
X138089970Y-83498882D01*
X138089972Y-83498882D01*
X138089975Y-83498884D01*
X138190317Y-83531487D01*
X138277173Y-83559709D01*
X138471578Y-83590500D01*
X138471583Y-83590500D01*
X138668422Y-83590500D01*
X138862826Y-83559709D01*
X139050025Y-83498884D01*
X139225405Y-83409524D01*
X139384646Y-83293828D01*
X139523828Y-83154646D01*
X139639524Y-82995405D01*
X139698068Y-82880506D01*
X139729515Y-82818787D01*
X139777489Y-82767990D01*
X139845310Y-82751195D01*
X139911445Y-82773732D01*
X139950485Y-82818787D01*
X140040474Y-82995403D01*
X140064736Y-83028796D01*
X140156172Y-83154646D01*
X140295354Y-83293828D01*
X140454595Y-83409524D01*
X140494105Y-83429655D01*
X140629970Y-83498882D01*
X140629972Y-83498882D01*
X140629975Y-83498884D01*
X140730317Y-83531487D01*
X140817173Y-83559709D01*
X141011578Y-83590500D01*
X141011583Y-83590500D01*
X141208422Y-83590500D01*
X141402826Y-83559709D01*
X141590025Y-83498884D01*
X141765405Y-83409524D01*
X141924646Y-83293828D01*
X142063828Y-83154646D01*
X142179524Y-82995405D01*
X142238068Y-82880506D01*
X142269515Y-82818787D01*
X142317489Y-82767990D01*
X142385310Y-82751195D01*
X142451445Y-82773732D01*
X142490485Y-82818787D01*
X142580474Y-82995403D01*
X142604736Y-83028796D01*
X142696172Y-83154646D01*
X142835354Y-83293828D01*
X142994595Y-83409524D01*
X143034105Y-83429655D01*
X143169970Y-83498882D01*
X143169972Y-83498882D01*
X143169975Y-83498884D01*
X143270317Y-83531487D01*
X143357173Y-83559709D01*
X143551578Y-83590500D01*
X143551583Y-83590500D01*
X143748422Y-83590500D01*
X143942826Y-83559709D01*
X144130025Y-83498884D01*
X144305405Y-83409524D01*
X144464646Y-83293828D01*
X144603828Y-83154646D01*
X144719524Y-82995405D01*
X144808884Y-82820025D01*
X144869709Y-82632826D01*
X144872156Y-82617375D01*
X144900500Y-82438422D01*
X144900500Y-82241577D01*
X144869709Y-82047173D01*
X144820261Y-81894990D01*
X144808884Y-81859975D01*
X144808882Y-81859972D01*
X144808882Y-81859970D01*
X144726099Y-81697500D01*
X144719524Y-81684595D01*
X144603828Y-81525354D01*
X144464646Y-81386172D01*
X144305405Y-81270476D01*
X144286550Y-81260869D01*
X144148205Y-81190378D01*
X144097409Y-81142403D01*
X144080500Y-81079893D01*
X144080500Y-80324499D01*
X144097862Y-80265371D01*
X148270000Y-80265371D01*
X148270000Y-81015000D01*
X148885856Y-81015000D01*
X148870000Y-81074174D01*
X148870000Y-81205826D01*
X148885856Y-81265000D01*
X148270000Y-81265000D01*
X148270000Y-82014628D01*
X148284503Y-82087540D01*
X148284505Y-82087544D01*
X148339760Y-82170239D01*
X148422455Y-82225494D01*
X148422459Y-82225496D01*
X148495371Y-82239999D01*
X148495374Y-82240000D01*
X149245000Y-82240000D01*
X149245000Y-81624144D01*
X149304174Y-81640000D01*
X149435826Y-81640000D01*
X149495000Y-81624144D01*
X149495000Y-82240000D01*
X150244626Y-82240000D01*
X150244628Y-82239999D01*
X150317540Y-82225496D01*
X150317544Y-82225494D01*
X150400239Y-82170239D01*
X150455494Y-82087544D01*
X150455496Y-82087540D01*
X150469999Y-82014628D01*
X150470000Y-82014626D01*
X150470000Y-81265000D01*
X149854144Y-81265000D01*
X149870000Y-81205826D01*
X149870000Y-81074174D01*
X149854144Y-81015000D01*
X150470000Y-81015000D01*
X150470000Y-80265373D01*
X150469999Y-80265371D01*
X150455496Y-80192459D01*
X150455494Y-80192455D01*
X150400239Y-80109760D01*
X150317544Y-80054505D01*
X150317540Y-80054503D01*
X150244627Y-80040000D01*
X149495000Y-80040000D01*
X149495000Y-80655855D01*
X149435826Y-80640000D01*
X149304174Y-80640000D01*
X149245000Y-80655855D01*
X149245000Y-80040000D01*
X148495373Y-80040000D01*
X148422459Y-80054503D01*
X148422455Y-80054505D01*
X148339760Y-80109760D01*
X148284505Y-80192455D01*
X148284503Y-80192459D01*
X148270000Y-80265371D01*
X144097862Y-80265371D01*
X144100185Y-80257460D01*
X144152989Y-80211705D01*
X144204500Y-80200499D01*
X144227871Y-80200499D01*
X144227872Y-80200499D01*
X144287483Y-80194091D01*
X144422331Y-80143796D01*
X144537546Y-80057546D01*
X144623796Y-79942331D01*
X144674091Y-79807483D01*
X144680500Y-79747873D01*
X144680499Y-78952128D01*
X144674091Y-78892517D01*
X144664403Y-78866543D01*
X144623797Y-78757671D01*
X144623793Y-78757664D01*
X144537547Y-78642455D01*
X144537544Y-78642452D01*
X144422335Y-78556206D01*
X144422328Y-78556202D01*
X144287482Y-78505908D01*
X144287483Y-78505908D01*
X144227883Y-78499501D01*
X144227881Y-78499500D01*
X144227873Y-78499500D01*
X144227864Y-78499500D01*
X143232129Y-78499500D01*
X143232123Y-78499501D01*
X143172516Y-78505908D01*
X143037671Y-78556202D01*
X143037664Y-78556206D01*
X142922455Y-78642452D01*
X142922452Y-78642455D01*
X142836206Y-78757664D01*
X142836202Y-78757671D01*
X142785908Y-78892517D01*
X142781824Y-78930509D01*
X142779501Y-78952123D01*
X142779500Y-78952135D01*
X142779500Y-79747870D01*
X142779501Y-79747876D01*
X142785908Y-79807483D01*
X142836202Y-79942328D01*
X142836206Y-79942335D01*
X142922452Y-80057544D01*
X142922455Y-80057547D01*
X143037664Y-80143793D01*
X143037671Y-80143797D01*
X143082618Y-80160561D01*
X143172517Y-80194091D01*
X143232127Y-80200500D01*
X143255497Y-80200499D01*
X143322536Y-80220181D01*
X143368292Y-80272983D01*
X143379500Y-80324499D01*
X143379500Y-81022945D01*
X143359815Y-81089984D01*
X143307011Y-81135739D01*
X143293819Y-81140876D01*
X143169970Y-81181117D01*
X142994594Y-81270476D01*
X142950321Y-81302643D01*
X142835354Y-81386172D01*
X142835352Y-81386174D01*
X142835351Y-81386174D01*
X142696174Y-81525351D01*
X142696174Y-81525352D01*
X142696172Y-81525354D01*
X142676484Y-81552452D01*
X142580476Y-81684594D01*
X142490485Y-81861213D01*
X142442511Y-81912009D01*
X142374690Y-81928804D01*
X142308555Y-81906267D01*
X142269515Y-81861213D01*
X142186099Y-81697500D01*
X142179524Y-81684595D01*
X142063828Y-81525354D01*
X141924646Y-81386172D01*
X141765405Y-81270476D01*
X141590025Y-81181116D01*
X141590024Y-81181115D01*
X141590023Y-81181115D01*
X141586174Y-81179864D01*
X141528501Y-81140423D01*
X141501307Y-81076062D01*
X141500500Y-81061936D01*
X141500500Y-80354499D01*
X141520185Y-80287460D01*
X141572989Y-80241705D01*
X141624500Y-80230499D01*
X141647871Y-80230499D01*
X141647872Y-80230499D01*
X141707483Y-80224091D01*
X141842331Y-80173796D01*
X141957546Y-80087546D01*
X142043796Y-79972331D01*
X142094091Y-79837483D01*
X142100500Y-79777873D01*
X142100499Y-78982128D01*
X142094091Y-78922517D01*
X142090673Y-78913354D01*
X142043797Y-78787671D01*
X142043793Y-78787664D01*
X141957547Y-78672455D01*
X141957544Y-78672452D01*
X141842335Y-78586206D01*
X141842328Y-78586202D01*
X141707482Y-78535908D01*
X141707483Y-78535908D01*
X141647883Y-78529501D01*
X141647881Y-78529500D01*
X141647873Y-78529500D01*
X141647864Y-78529500D01*
X140652129Y-78529500D01*
X140652123Y-78529501D01*
X140592516Y-78535908D01*
X140457671Y-78586202D01*
X140457664Y-78586206D01*
X140342455Y-78672452D01*
X140342452Y-78672455D01*
X140256206Y-78787664D01*
X140256202Y-78787671D01*
X140205908Y-78922517D01*
X140199501Y-78982116D01*
X140199501Y-78982123D01*
X140199500Y-78982135D01*
X140199500Y-79777870D01*
X140199501Y-79777876D01*
X140205908Y-79837483D01*
X140256202Y-79972328D01*
X140256206Y-79972335D01*
X140342452Y-80087544D01*
X140342455Y-80087547D01*
X140457664Y-80173793D01*
X140457671Y-80173797D01*
X140476139Y-80180685D01*
X140592517Y-80224091D01*
X140652127Y-80230500D01*
X140675497Y-80230499D01*
X140742536Y-80250181D01*
X140788292Y-80302983D01*
X140799500Y-80354499D01*
X140799500Y-81035942D01*
X140779815Y-81102981D01*
X140727011Y-81148736D01*
X140713819Y-81153873D01*
X140629970Y-81181117D01*
X140454594Y-81270476D01*
X140410321Y-81302643D01*
X140295354Y-81386172D01*
X140295352Y-81386174D01*
X140295351Y-81386174D01*
X140156174Y-81525351D01*
X140156174Y-81525352D01*
X140156172Y-81525354D01*
X140136484Y-81552452D01*
X140040476Y-81684594D01*
X139950485Y-81861213D01*
X139902511Y-81912009D01*
X139834690Y-81928804D01*
X139768555Y-81906267D01*
X139729515Y-81861213D01*
X139646099Y-81697500D01*
X139639524Y-81684595D01*
X139523828Y-81525354D01*
X139384646Y-81386172D01*
X139225405Y-81270476D01*
X139180475Y-81247583D01*
X139050025Y-81181115D01*
X138976180Y-81157121D01*
X138918505Y-81117683D01*
X138891308Y-81053324D01*
X138890500Y-81039191D01*
X138890500Y-80354499D01*
X138910185Y-80287460D01*
X138962989Y-80241705D01*
X139014500Y-80230499D01*
X139037871Y-80230499D01*
X139037872Y-80230499D01*
X139097483Y-80224091D01*
X139232331Y-80173796D01*
X139347546Y-80087546D01*
X139433796Y-79972331D01*
X139484091Y-79837483D01*
X139490500Y-79777873D01*
X139490499Y-78982128D01*
X139484091Y-78922517D01*
X139480673Y-78913354D01*
X139433797Y-78787671D01*
X139433793Y-78787664D01*
X139347547Y-78672455D01*
X139347544Y-78672452D01*
X139232335Y-78586206D01*
X139232328Y-78586202D01*
X139097482Y-78535908D01*
X139097483Y-78535908D01*
X139037883Y-78529501D01*
X139037881Y-78529500D01*
X139037873Y-78529500D01*
X139037864Y-78529500D01*
X138042129Y-78529500D01*
X138042123Y-78529501D01*
X137982516Y-78535908D01*
X137847671Y-78586202D01*
X137847664Y-78586206D01*
X137732455Y-78672452D01*
X137732452Y-78672455D01*
X137646206Y-78787664D01*
X137646202Y-78787671D01*
X137595908Y-78922517D01*
X137589501Y-78982116D01*
X137589501Y-78982123D01*
X137589500Y-78982135D01*
X137589500Y-79777870D01*
X137589501Y-79777876D01*
X137595908Y-79837483D01*
X137646202Y-79972328D01*
X137646206Y-79972335D01*
X137732452Y-80087544D01*
X137732455Y-80087547D01*
X137847664Y-80173793D01*
X137847671Y-80173797D01*
X137866139Y-80180685D01*
X137982517Y-80224091D01*
X138042127Y-80230500D01*
X138065497Y-80230499D01*
X138132536Y-80250181D01*
X138178292Y-80302983D01*
X138189500Y-80354499D01*
X138189500Y-81058687D01*
X138169815Y-81125726D01*
X138117011Y-81171481D01*
X138103821Y-81176617D01*
X138089973Y-81181116D01*
X137914594Y-81270476D01*
X137870321Y-81302643D01*
X137755354Y-81386172D01*
X137755352Y-81386174D01*
X137755351Y-81386174D01*
X137616174Y-81525351D01*
X137616174Y-81525352D01*
X137616172Y-81525354D01*
X137596484Y-81552452D01*
X137500476Y-81684594D01*
X137410485Y-81861213D01*
X137362511Y-81912009D01*
X137294690Y-81928804D01*
X137228555Y-81906267D01*
X137189515Y-81861213D01*
X137106099Y-81697500D01*
X137099524Y-81684595D01*
X136983828Y-81525354D01*
X136844646Y-81386172D01*
X136685405Y-81270476D01*
X136640475Y-81247583D01*
X136510025Y-81181115D01*
X136466180Y-81166869D01*
X136408505Y-81127431D01*
X136381308Y-81063072D01*
X136380500Y-81048939D01*
X136380500Y-80346976D01*
X136400185Y-80279937D01*
X136452989Y-80234182D01*
X136480135Y-80226736D01*
X136479932Y-80225876D01*
X136487479Y-80224092D01*
X136487481Y-80224091D01*
X136487483Y-80224091D01*
X136622331Y-80173796D01*
X136737546Y-80087546D01*
X136823796Y-79972331D01*
X136874091Y-79837483D01*
X136880500Y-79777873D01*
X136880499Y-78982128D01*
X136874091Y-78922517D01*
X136870673Y-78913354D01*
X136823797Y-78787671D01*
X136823793Y-78787664D01*
X136737547Y-78672455D01*
X136737544Y-78672452D01*
X136622335Y-78586206D01*
X136622328Y-78586202D01*
X136487482Y-78535908D01*
X136487483Y-78535908D01*
X136427883Y-78529501D01*
X136427881Y-78529500D01*
X136427873Y-78529500D01*
X136427864Y-78529500D01*
X135432129Y-78529500D01*
X135432123Y-78529501D01*
X135372516Y-78535908D01*
X135237671Y-78586202D01*
X135237664Y-78586206D01*
X135122455Y-78672452D01*
X135122452Y-78672455D01*
X135036206Y-78787664D01*
X135036202Y-78787671D01*
X134985908Y-78922517D01*
X134979501Y-78982116D01*
X134979501Y-78982123D01*
X134979500Y-78982135D01*
X134979500Y-79777870D01*
X134979501Y-79777876D01*
X134985908Y-79837483D01*
X135036202Y-79972328D01*
X135036206Y-79972335D01*
X135122452Y-80087544D01*
X135122455Y-80087547D01*
X135237664Y-80173793D01*
X135237671Y-80173797D01*
X135256139Y-80180685D01*
X135372517Y-80224091D01*
X135432127Y-80230500D01*
X135555500Y-80230499D01*
X135622539Y-80250183D01*
X135668294Y-80302987D01*
X135679500Y-80354499D01*
X135679500Y-81048939D01*
X135659815Y-81115978D01*
X135607011Y-81161733D01*
X135593820Y-81166869D01*
X135549974Y-81181115D01*
X135374594Y-81270476D01*
X135330321Y-81302643D01*
X135215354Y-81386172D01*
X135215352Y-81386174D01*
X135215351Y-81386174D01*
X135076174Y-81525351D01*
X135076174Y-81525352D01*
X135076172Y-81525354D01*
X135056484Y-81552452D01*
X134960476Y-81684594D01*
X134871117Y-81859970D01*
X134810290Y-82047173D01*
X134779500Y-82241577D01*
X131359103Y-82241577D01*
X131318732Y-82198399D01*
X131305499Y-82142661D01*
X131305499Y-81862129D01*
X131305498Y-81862123D01*
X131305400Y-81861213D01*
X131299091Y-81802517D01*
X131293772Y-81788257D01*
X131248797Y-81667671D01*
X131248793Y-81667664D01*
X131162547Y-81552455D01*
X131162544Y-81552452D01*
X131047335Y-81466206D01*
X131047328Y-81466202D01*
X130912482Y-81415908D01*
X130912483Y-81415908D01*
X130852883Y-81409501D01*
X130852881Y-81409500D01*
X130852873Y-81409500D01*
X130852865Y-81409500D01*
X129958753Y-81409500D01*
X129937507Y-81403261D01*
X129915419Y-81401682D01*
X129904635Y-81393609D01*
X129891714Y-81389815D01*
X129877214Y-81373081D01*
X129859486Y-81359810D01*
X129854778Y-81347189D01*
X129845959Y-81337011D01*
X129842807Y-81315093D01*
X129835069Y-81294346D01*
X129837931Y-81281185D01*
X129836015Y-81267853D01*
X129845214Y-81247709D01*
X129849921Y-81226073D01*
X129863190Y-81208346D01*
X129865040Y-81204297D01*
X129871045Y-81197846D01*
X130022076Y-81046815D01*
X130083397Y-81013333D01*
X130109755Y-81010499D01*
X130852871Y-81010499D01*
X130852872Y-81010499D01*
X130912483Y-81004091D01*
X131047331Y-80953796D01*
X131162546Y-80867546D01*
X131248796Y-80752331D01*
X131299091Y-80617483D01*
X131305500Y-80557873D01*
X131305499Y-79787128D01*
X131299091Y-79727517D01*
X131299078Y-79727483D01*
X131248797Y-79592671D01*
X131248793Y-79592664D01*
X131162547Y-79477455D01*
X131162544Y-79477452D01*
X131047335Y-79391206D01*
X131047328Y-79391202D01*
X130912482Y-79340908D01*
X130912483Y-79340908D01*
X130852883Y-79334501D01*
X130852881Y-79334500D01*
X130852873Y-79334500D01*
X130852864Y-79334500D01*
X129807129Y-79334500D01*
X129807123Y-79334501D01*
X129747516Y-79340908D01*
X129612671Y-79391202D01*
X129612664Y-79391206D01*
X129497455Y-79477452D01*
X129497452Y-79477455D01*
X129411206Y-79592664D01*
X129411202Y-79592671D01*
X129360910Y-79727513D01*
X129360909Y-79727517D01*
X129354500Y-79787127D01*
X129354500Y-79787134D01*
X129354500Y-79787135D01*
X129354500Y-80530243D01*
X129334815Y-80597282D01*
X129318181Y-80617924D01*
X128897180Y-81038925D01*
X128835857Y-81072410D01*
X128766165Y-81067426D01*
X128710232Y-81025554D01*
X128685815Y-80960090D01*
X128685499Y-80951258D01*
X128685499Y-80802636D01*
X128685255Y-80800533D01*
X128682586Y-80777512D01*
X128682585Y-80777510D01*
X128682585Y-80777509D01*
X128637206Y-80674735D01*
X128557765Y-80595294D01*
X128524552Y-80580629D01*
X128454992Y-80549915D01*
X128429868Y-80547000D01*
X128429865Y-80547000D01*
X128324500Y-80547000D01*
X128315814Y-80544449D01*
X128306853Y-80545738D01*
X128282812Y-80534759D01*
X128257461Y-80527315D01*
X128251533Y-80520474D01*
X128243297Y-80516713D01*
X128229007Y-80494478D01*
X128211706Y-80474511D01*
X128209418Y-80463996D01*
X128205523Y-80457935D01*
X128200500Y-80423000D01*
X128200500Y-80236976D01*
X128220185Y-80169937D01*
X128272989Y-80124182D01*
X128300135Y-80116736D01*
X128299932Y-80115876D01*
X128307479Y-80114092D01*
X128307481Y-80114091D01*
X128307483Y-80114091D01*
X128442331Y-80063796D01*
X128557546Y-79977546D01*
X128643796Y-79862331D01*
X128694091Y-79727483D01*
X128700500Y-79667873D01*
X128700499Y-78866542D01*
X128720183Y-78799504D01*
X128736813Y-78778867D01*
X129748862Y-77766819D01*
X129810185Y-77733334D01*
X129836543Y-77730500D01*
X134863023Y-77730500D01*
X134930062Y-77750185D01*
X134975817Y-77802989D01*
X134983266Y-77830134D01*
X134984124Y-77829932D01*
X134985907Y-77837479D01*
X135036202Y-77972328D01*
X135036206Y-77972335D01*
X135122452Y-78087544D01*
X135122455Y-78087547D01*
X135237664Y-78173793D01*
X135237671Y-78173797D01*
X135372517Y-78224091D01*
X135372516Y-78224091D01*
X135379444Y-78224835D01*
X135432127Y-78230500D01*
X136427872Y-78230499D01*
X136487483Y-78224091D01*
X136622331Y-78173796D01*
X136737546Y-78087546D01*
X136823796Y-77972331D01*
X136874091Y-77837483D01*
X136876912Y-77811241D01*
X136903649Y-77746694D01*
X136961041Y-77706846D01*
X137000201Y-77700500D01*
X137469799Y-77700500D01*
X137536838Y-77720185D01*
X137582593Y-77772989D01*
X137593089Y-77811248D01*
X137595908Y-77837483D01*
X137646202Y-77972328D01*
X137646206Y-77972335D01*
X137732452Y-78087544D01*
X137732455Y-78087547D01*
X137847664Y-78173793D01*
X137847671Y-78173797D01*
X137982517Y-78224091D01*
X137982516Y-78224091D01*
X137989444Y-78224835D01*
X138042127Y-78230500D01*
X139037872Y-78230499D01*
X139097483Y-78224091D01*
X139232331Y-78173796D01*
X139347546Y-78087546D01*
X139433796Y-77972331D01*
X139484091Y-77837483D01*
X139486912Y-77811241D01*
X139513649Y-77746694D01*
X139571041Y-77706846D01*
X139610201Y-77700500D01*
X140079799Y-77700500D01*
X140146838Y-77720185D01*
X140192593Y-77772989D01*
X140203089Y-77811248D01*
X140205908Y-77837483D01*
X140256202Y-77972328D01*
X140256206Y-77972335D01*
X140342452Y-78087544D01*
X140342455Y-78087547D01*
X140457664Y-78173793D01*
X140457671Y-78173797D01*
X140592517Y-78224091D01*
X140592516Y-78224091D01*
X140599444Y-78224835D01*
X140652127Y-78230500D01*
X141647872Y-78230499D01*
X141707483Y-78224091D01*
X141842331Y-78173796D01*
X141957546Y-78087546D01*
X142043796Y-77972331D01*
X142094091Y-77837483D01*
X142096912Y-77811241D01*
X142123649Y-77746694D01*
X142181041Y-77706846D01*
X142220201Y-77700500D01*
X142663023Y-77700500D01*
X142730062Y-77720185D01*
X142775817Y-77772989D01*
X142783266Y-77800134D01*
X142784124Y-77799932D01*
X142785907Y-77807479D01*
X142836202Y-77942328D01*
X142836206Y-77942335D01*
X142922452Y-78057544D01*
X142922455Y-78057547D01*
X143037664Y-78143793D01*
X143037671Y-78143797D01*
X143172517Y-78194091D01*
X143172516Y-78194091D01*
X143179444Y-78194835D01*
X143232127Y-78200500D01*
X144227872Y-78200499D01*
X144287483Y-78194091D01*
X144422331Y-78143796D01*
X144537546Y-78057546D01*
X144623796Y-77942331D01*
X144674091Y-77807483D01*
X144680500Y-77747873D01*
X144680499Y-76952128D01*
X144674091Y-76892517D01*
X144634985Y-76787669D01*
X144623797Y-76757671D01*
X144623793Y-76757664D01*
X144537547Y-76642455D01*
X144537544Y-76642452D01*
X144422335Y-76556206D01*
X144422328Y-76556202D01*
X144287482Y-76505908D01*
X144287483Y-76505908D01*
X144227883Y-76499501D01*
X144227881Y-76499500D01*
X144227873Y-76499500D01*
X144227864Y-76499500D01*
X143232129Y-76499500D01*
X143232123Y-76499501D01*
X143172516Y-76505908D01*
X143037671Y-76556202D01*
X143037664Y-76556206D01*
X142922455Y-76642452D01*
X142922452Y-76642455D01*
X142836206Y-76757664D01*
X142836202Y-76757671D01*
X142785908Y-76892517D01*
X142784126Y-76900062D01*
X142781853Y-76899525D01*
X142759571Y-76953312D01*
X142702177Y-76993157D01*
X142663024Y-76999500D01*
X142208899Y-76999500D01*
X142141860Y-76979815D01*
X142096105Y-76927011D01*
X142092717Y-76918833D01*
X142043797Y-76787671D01*
X142043793Y-76787664D01*
X141957547Y-76672455D01*
X141957544Y-76672452D01*
X141842335Y-76586206D01*
X141842328Y-76586202D01*
X141707482Y-76535908D01*
X141707483Y-76535908D01*
X141647883Y-76529501D01*
X141647881Y-76529500D01*
X141647873Y-76529500D01*
X141647864Y-76529500D01*
X140652129Y-76529500D01*
X140652123Y-76529501D01*
X140592516Y-76535908D01*
X140457671Y-76586202D01*
X140457664Y-76586206D01*
X140342455Y-76672452D01*
X140342452Y-76672455D01*
X140256206Y-76787664D01*
X140256202Y-76787671D01*
X140207283Y-76918833D01*
X140165412Y-76974767D01*
X140099948Y-76999184D01*
X140091101Y-76999500D01*
X139598899Y-76999500D01*
X139531860Y-76979815D01*
X139486105Y-76927011D01*
X139482717Y-76918833D01*
X139433797Y-76787671D01*
X139433793Y-76787664D01*
X139347547Y-76672455D01*
X139347544Y-76672452D01*
X139232335Y-76586206D01*
X139232328Y-76586202D01*
X139097482Y-76535908D01*
X139097483Y-76535908D01*
X139037883Y-76529501D01*
X139037881Y-76529500D01*
X139037873Y-76529500D01*
X139037864Y-76529500D01*
X138042129Y-76529500D01*
X138042123Y-76529501D01*
X137982516Y-76535908D01*
X137847671Y-76586202D01*
X137847664Y-76586206D01*
X137732455Y-76672452D01*
X137732452Y-76672455D01*
X137646206Y-76787664D01*
X137646202Y-76787671D01*
X137597283Y-76918833D01*
X137555412Y-76974767D01*
X137489948Y-76999184D01*
X137481101Y-76999500D01*
X136988899Y-76999500D01*
X136921860Y-76979815D01*
X136876105Y-76927011D01*
X136872717Y-76918833D01*
X136823797Y-76787671D01*
X136823793Y-76787664D01*
X136737547Y-76672455D01*
X136737544Y-76672452D01*
X136622335Y-76586206D01*
X136622328Y-76586202D01*
X136487482Y-76535908D01*
X136487483Y-76535908D01*
X136427883Y-76529501D01*
X136427881Y-76529500D01*
X136427873Y-76529500D01*
X136427864Y-76529500D01*
X135432129Y-76529500D01*
X135432123Y-76529501D01*
X135372516Y-76535908D01*
X135237671Y-76586202D01*
X135237664Y-76586206D01*
X135122455Y-76672452D01*
X135122452Y-76672455D01*
X135036206Y-76787664D01*
X135036202Y-76787671D01*
X134985908Y-76922517D01*
X134984126Y-76930062D01*
X134981853Y-76929525D01*
X134959571Y-76983312D01*
X134902177Y-77023157D01*
X134863024Y-77029500D01*
X129593856Y-77029500D01*
X129504712Y-77053386D01*
X129504711Y-77053386D01*
X129504709Y-77053387D01*
X129504706Y-77053388D01*
X129424794Y-77099526D01*
X129424785Y-77099533D01*
X128341021Y-78183296D01*
X128279698Y-78216781D01*
X128251194Y-78219075D01*
X128251194Y-78219500D01*
X127452129Y-78219500D01*
X127452123Y-78219501D01*
X127392516Y-78225908D01*
X127257671Y-78276202D01*
X127257664Y-78276206D01*
X127142455Y-78362452D01*
X127142452Y-78362455D01*
X127056206Y-78477664D01*
X127056202Y-78477671D01*
X127005908Y-78612517D01*
X126999501Y-78672116D01*
X126999500Y-78672135D01*
X126699997Y-78672135D01*
X126693598Y-78612627D01*
X126693596Y-78612620D01*
X126643354Y-78477913D01*
X126643350Y-78477906D01*
X126557190Y-78362812D01*
X126557187Y-78362809D01*
X126442093Y-78276649D01*
X126442086Y-78276645D01*
X126307379Y-78226403D01*
X126307372Y-78226401D01*
X126247844Y-78220000D01*
X125975000Y-78220000D01*
X125975000Y-79045000D01*
X125725000Y-79045000D01*
X125725000Y-78220000D01*
X125452155Y-78220000D01*
X125392627Y-78226401D01*
X125392620Y-78226403D01*
X125257913Y-78276645D01*
X125257906Y-78276649D01*
X125142812Y-78362809D01*
X125142809Y-78362812D01*
X125056649Y-78477906D01*
X125056645Y-78477913D01*
X125006403Y-78612620D01*
X125006401Y-78612627D01*
X125000000Y-78672155D01*
X120708247Y-78672155D01*
X120725642Y-78625518D01*
X120725642Y-78625517D01*
X120743597Y-78577376D01*
X120743598Y-78577372D01*
X120749999Y-78517844D01*
X120750000Y-78517827D01*
X120750000Y-78182500D01*
X119725000Y-78182500D01*
X119725000Y-78970000D01*
X119475000Y-78970000D01*
X119475000Y-78182500D01*
X118450000Y-78182500D01*
X118450000Y-78517844D01*
X115130500Y-78517844D01*
X115130500Y-78417525D01*
X115092984Y-78277515D01*
X115092228Y-78276206D01*
X115049080Y-78201471D01*
X115049079Y-78201470D01*
X115020509Y-78151985D01*
X114962122Y-78093598D01*
X114957961Y-78088436D01*
X114947023Y-78062043D01*
X114933334Y-78036972D01*
X114932177Y-78026216D01*
X114931213Y-78023889D01*
X114931660Y-78021406D01*
X114930500Y-78010614D01*
X114930500Y-77994499D01*
X114950185Y-77927460D01*
X115002989Y-77881705D01*
X115054500Y-77870499D01*
X115687871Y-77870499D01*
X115687872Y-77870499D01*
X115747483Y-77864091D01*
X115882331Y-77813796D01*
X115997546Y-77727546D01*
X116083796Y-77612331D01*
X116134091Y-77477483D01*
X116140500Y-77417873D01*
X116140500Y-77417844D01*
X116440000Y-77417844D01*
X116446401Y-77477372D01*
X116446403Y-77477379D01*
X116496645Y-77612086D01*
X116496649Y-77612093D01*
X116582809Y-77727187D01*
X116582812Y-77727190D01*
X116697906Y-77813350D01*
X116697913Y-77813354D01*
X116832620Y-77863596D01*
X116832627Y-77863598D01*
X116892155Y-77869999D01*
X116892172Y-77870000D01*
X117165000Y-77870000D01*
X117415000Y-77870000D01*
X117687828Y-77870000D01*
X117687844Y-77869999D01*
X117747372Y-77863598D01*
X117747379Y-77863596D01*
X117882086Y-77813354D01*
X117882093Y-77813350D01*
X117997187Y-77727190D01*
X117997190Y-77727187D01*
X118083350Y-77612093D01*
X118083354Y-77612086D01*
X118088923Y-77597155D01*
X118450000Y-77597155D01*
X118450000Y-77932500D01*
X119475000Y-77932500D01*
X119725000Y-77932500D01*
X120750000Y-77932500D01*
X120750000Y-77597172D01*
X120749999Y-77597155D01*
X120743598Y-77537627D01*
X120743596Y-77537620D01*
X120693354Y-77402913D01*
X120693350Y-77402906D01*
X120607190Y-77287812D01*
X120607187Y-77287809D01*
X120492093Y-77201649D01*
X120492086Y-77201645D01*
X120357379Y-77151403D01*
X120357372Y-77151401D01*
X120297844Y-77145000D01*
X119725000Y-77145000D01*
X119725000Y-77932500D01*
X119475000Y-77932500D01*
X119475000Y-77145000D01*
X118902155Y-77145000D01*
X118842627Y-77151401D01*
X118842620Y-77151403D01*
X118707913Y-77201645D01*
X118707906Y-77201649D01*
X118592812Y-77287809D01*
X118592809Y-77287812D01*
X118506649Y-77402906D01*
X118506645Y-77402913D01*
X118456403Y-77537620D01*
X118456401Y-77537627D01*
X118450000Y-77597155D01*
X118088923Y-77597155D01*
X118106318Y-77550518D01*
X118133596Y-77477379D01*
X118133598Y-77477372D01*
X118139999Y-77417844D01*
X118140000Y-77417827D01*
X118140000Y-77045000D01*
X117415000Y-77045000D01*
X117415000Y-77870000D01*
X117165000Y-77870000D01*
X117165000Y-77045000D01*
X116440000Y-77045000D01*
X116440000Y-77417844D01*
X116140500Y-77417844D01*
X116140499Y-76918833D01*
X116140499Y-76422155D01*
X116440000Y-76422155D01*
X116440000Y-76795000D01*
X117165000Y-76795000D01*
X117415000Y-76795000D01*
X118140000Y-76795000D01*
X118140000Y-76422172D01*
X118139999Y-76422155D01*
X118133598Y-76362627D01*
X118133596Y-76362620D01*
X118083354Y-76227913D01*
X118083350Y-76227906D01*
X117997190Y-76112812D01*
X117997187Y-76112809D01*
X117882093Y-76026649D01*
X117882086Y-76026645D01*
X117747379Y-75976403D01*
X117747372Y-75976401D01*
X117687844Y-75970000D01*
X117415000Y-75970000D01*
X117415000Y-76795000D01*
X117165000Y-76795000D01*
X117165000Y-75970000D01*
X116892155Y-75970000D01*
X116832627Y-75976401D01*
X116832620Y-75976403D01*
X116697913Y-76026645D01*
X116697906Y-76026649D01*
X116582812Y-76112809D01*
X116582809Y-76112812D01*
X116496649Y-76227906D01*
X116496645Y-76227913D01*
X116446403Y-76362620D01*
X116446401Y-76362627D01*
X116440000Y-76422155D01*
X116140499Y-76422155D01*
X116140499Y-76422129D01*
X116140498Y-76422123D01*
X116140497Y-76422116D01*
X116134091Y-76362517D01*
X116083884Y-76227906D01*
X116083797Y-76227671D01*
X116083793Y-76227664D01*
X115997547Y-76112455D01*
X115997544Y-76112452D01*
X115882335Y-76026206D01*
X115882328Y-76026202D01*
X115747482Y-75975908D01*
X115747483Y-75975908D01*
X115687883Y-75969501D01*
X115687881Y-75969500D01*
X115687873Y-75969500D01*
X115687864Y-75969500D01*
X114892129Y-75969500D01*
X114892123Y-75969501D01*
X114832516Y-75975908D01*
X114697671Y-76026202D01*
X114697664Y-76026206D01*
X114582455Y-76112452D01*
X114582452Y-76112455D01*
X114496206Y-76227664D01*
X114496202Y-76227671D01*
X114445908Y-76362517D01*
X114439501Y-76422116D01*
X114439501Y-76422123D01*
X114439500Y-76422135D01*
X114439500Y-77223454D01*
X114431523Y-77250617D01*
X114426611Y-77278503D01*
X114421069Y-77286221D01*
X114419815Y-77290493D01*
X114406601Y-77307577D01*
X114404922Y-77309394D01*
X114299530Y-77414788D01*
X114292974Y-77426144D01*
X114286064Y-77438113D01*
X114253386Y-77494711D01*
X114229500Y-77583856D01*
X114229500Y-78010614D01*
X114209815Y-78077653D01*
X114193181Y-78098295D01*
X114139493Y-78151982D01*
X114139488Y-78151988D01*
X114067017Y-78277511D01*
X114067016Y-78277515D01*
X114029500Y-78417525D01*
X109790500Y-78417525D01*
X109790500Y-75644500D01*
X109810185Y-75577461D01*
X109862989Y-75531706D01*
X109914500Y-75520500D01*
X152965500Y-75520500D01*
X153032539Y-75540185D01*
G37*
%TD.AperFunction*%
%TD*%
M02*
