%TF.GenerationSoftware,KiCad,Pcbnew,9.0.1*%
%TF.CreationDate,2026-09-05T14:03:46+03:00*%
%TF.ProjectId,12-3v3-buck,31322d33-7633-42d6-9275-636b2e6b6963,rev?*%
%TF.SameCoordinates,Original*%
%TF.FileFunction,Legend,Bot*%
%TF.FilePolarity,Positive*%
%FSLAX46Y46*%
G04 Gerber Fmt 4.6, Leading zero omitted, Abs format (unit mm)*
G04 Created by KiCad (PCBNEW 9.0.1) date 2026-09-05 14:03:46*
%MOMM*%
%LPD*%
G01*
G04 APERTURE LIST*
%ADD10C,0.100000*%
%ADD11C,0.200000*%
G04 APERTURE END LIST*
D10*
X133390000Y-84755000D02*
X133390000Y-88385000D01*
X130620000Y-86570000D02*
X136160000Y-86570000D01*
X130620000Y-84755000D02*
X136160000Y-84755000D01*
X136160000Y-88385000D01*
X130620000Y-88385000D01*
X130620000Y-84755000D01*
D11*
G36*
X147494822Y-83975605D02*
G01*
X147511946Y-83987434D01*
X147532768Y-83987963D01*
X147564128Y-83975357D01*
X147612504Y-83948626D01*
X147652879Y-83924892D01*
X147680686Y-83906864D01*
X147697919Y-83892260D01*
X147706926Y-83879163D01*
X147709648Y-83866170D01*
X147707314Y-83850525D01*
X147543875Y-83041342D01*
X147532994Y-83002711D01*
X147525681Y-82992005D01*
X147516325Y-82987517D01*
X147504647Y-82988007D01*
X147486780Y-82994351D01*
X147436217Y-83021569D01*
X147394298Y-83047393D01*
X147373042Y-83065164D01*
X147366613Y-83080651D01*
X147368891Y-83099007D01*
X147522985Y-83796262D01*
X147522404Y-83796598D01*
X147000863Y-83315437D01*
X146985567Y-83302622D01*
X146967840Y-83299883D01*
X146940534Y-83309374D01*
X146896047Y-83333436D01*
X146854834Y-83359628D01*
X146843267Y-83370754D01*
X146839051Y-83380163D01*
X146839911Y-83389964D01*
X146846590Y-83401404D01*
X146874820Y-83429172D01*
X147494822Y-83975605D01*
G37*
G36*
X146701703Y-83533239D02*
G01*
X146753379Y-83545750D01*
X146802628Y-83565965D01*
X146850272Y-83594234D01*
X146896661Y-83631255D01*
X146938335Y-83673810D01*
X146978342Y-83724584D01*
X147016652Y-83784498D01*
X147052816Y-83853380D01*
X147078663Y-83915710D01*
X147095520Y-83972270D01*
X147105173Y-84030232D01*
X147106174Y-84083332D01*
X147099225Y-84132438D01*
X147084238Y-84179631D01*
X147061184Y-84224555D01*
X147029460Y-84267690D01*
X146991729Y-84306198D01*
X146944670Y-84343988D01*
X146886980Y-84381044D01*
X146825204Y-84412355D01*
X146766984Y-84433533D01*
X146711702Y-84445648D01*
X146655448Y-84449658D01*
X146601764Y-84445256D01*
X146549982Y-84432622D01*
X146500620Y-84412136D01*
X146452760Y-84383463D01*
X146406051Y-84345870D01*
X146364033Y-84302719D01*
X146323366Y-84250876D01*
X146284084Y-84189326D01*
X146248731Y-84121691D01*
X146223612Y-84060143D01*
X146207438Y-84003937D01*
X146198411Y-83946377D01*
X146197832Y-83893379D01*
X146198934Y-83885880D01*
X146382244Y-83885880D01*
X146384887Y-83934546D01*
X146398652Y-83988794D01*
X146420915Y-84043486D01*
X146452324Y-84103615D01*
X146485969Y-84156101D01*
X146521854Y-84201453D01*
X146562081Y-84239973D01*
X146604459Y-84267348D01*
X146650634Y-84284271D01*
X146699910Y-84289303D01*
X146750424Y-84280849D01*
X146808024Y-84255157D01*
X146859515Y-84218738D01*
X146892545Y-84181611D01*
X146913428Y-84139174D01*
X146921740Y-84092838D01*
X146918658Y-84043997D01*
X146904496Y-83989208D01*
X146881763Y-83933744D01*
X146849115Y-83871425D01*
X146816124Y-83820029D01*
X146780675Y-83775354D01*
X146740760Y-83737439D01*
X146698742Y-83710623D01*
X146652820Y-83694111D01*
X146603421Y-83689016D01*
X146552748Y-83697245D01*
X146495124Y-83722845D01*
X146444277Y-83759089D01*
X146411551Y-83796690D01*
X146390792Y-83839572D01*
X146382244Y-83885880D01*
X146198934Y-83885880D01*
X146205068Y-83844127D01*
X146220269Y-83796833D01*
X146243512Y-83751945D01*
X146275386Y-83708979D01*
X146313120Y-83670595D01*
X146359481Y-83633359D01*
X146415586Y-83597293D01*
X146477769Y-83565813D01*
X146536246Y-83544661D01*
X146591660Y-83532723D01*
X146648016Y-83528832D01*
X146701703Y-83533239D01*
G37*
G36*
X145589620Y-84732205D02*
G01*
X145634274Y-84797062D01*
X145683011Y-84846092D01*
X145738612Y-84882810D01*
X145798182Y-84904889D01*
X145861723Y-84912731D01*
X145931363Y-84905978D01*
X146001668Y-84885121D01*
X146078972Y-84847548D01*
X146146231Y-84802425D01*
X146198170Y-84754686D01*
X146238463Y-84700706D01*
X146263668Y-84644037D01*
X146274821Y-84583339D01*
X146271542Y-84517726D01*
X146253787Y-84451312D01*
X146218683Y-84377688D01*
X145950168Y-83912607D01*
X145940519Y-83904077D01*
X145923371Y-83903684D01*
X145896646Y-83912838D01*
X145857746Y-83932900D01*
X145821503Y-83956222D01*
X145800530Y-83974606D01*
X145792266Y-83989601D01*
X145794542Y-84002458D01*
X146054783Y-84453208D01*
X146077048Y-84498685D01*
X146089062Y-84538472D01*
X146092939Y-84577509D01*
X146088649Y-84612250D01*
X146076677Y-84644565D01*
X146057289Y-84674070D01*
X146031542Y-84699698D01*
X145998218Y-84722699D01*
X145961080Y-84740246D01*
X145926068Y-84749407D01*
X145891127Y-84751052D01*
X145858097Y-84745006D01*
X145826826Y-84731514D01*
X145796351Y-84709866D01*
X145769285Y-84681650D01*
X145744006Y-84644481D01*
X145478636Y-84184847D01*
X145468957Y-84176263D01*
X145452103Y-84175770D01*
X145425431Y-84184894D01*
X145386848Y-84204773D01*
X145350923Y-84227911D01*
X145330267Y-84246112D01*
X145322298Y-84261007D01*
X145324861Y-84273629D01*
X145589620Y-84732205D01*
G37*
G36*
X144674049Y-84706979D02*
G01*
X144692627Y-84735737D01*
X144708456Y-84752897D01*
X144722240Y-84759675D01*
X144734046Y-84757653D01*
X144925737Y-84646981D01*
X145280744Y-85261871D01*
X145290741Y-85270271D01*
X145307859Y-85270611D01*
X145334553Y-85261404D01*
X145373136Y-85241525D01*
X145409696Y-85218020D01*
X145430964Y-85199537D01*
X145439281Y-85184511D01*
X145436952Y-85171684D01*
X145081945Y-84556794D01*
X145273635Y-84446121D01*
X145281606Y-84436725D01*
X145282311Y-84421582D01*
X145275366Y-84399293D01*
X145259749Y-84368825D01*
X145240653Y-84339168D01*
X145224640Y-84321691D01*
X145211325Y-84314995D01*
X145199385Y-84317517D01*
X144659797Y-84629049D01*
X144651959Y-84637945D01*
X144650784Y-84653007D01*
X144657914Y-84675613D01*
X144674049Y-84706979D01*
G37*
G36*
X146905407Y-80990968D02*
G01*
X146923893Y-81019567D01*
X146939458Y-81036879D01*
X146951916Y-81043436D01*
X146962743Y-81041062D01*
X146970071Y-81034121D01*
X146981430Y-81016031D01*
X147013587Y-80966583D01*
X147067954Y-80904312D01*
X147104498Y-80872763D01*
X147153217Y-80840844D01*
X147209805Y-80814792D01*
X147264908Y-80802023D01*
X147320181Y-80801168D01*
X147373211Y-80812046D01*
X147423241Y-80834126D01*
X147471155Y-80868238D01*
X147513351Y-80911980D01*
X147551303Y-80967491D01*
X147583267Y-81033492D01*
X147600622Y-81093215D01*
X147606197Y-81152174D01*
X147600144Y-81205104D01*
X147582755Y-81254444D01*
X147554107Y-81299511D01*
X147515772Y-81338609D01*
X147466646Y-81372850D01*
X147411744Y-81396581D01*
X147382720Y-81403311D01*
X147354066Y-81405979D01*
X147250630Y-81226821D01*
X147395574Y-81143138D01*
X147402887Y-81134853D01*
X147404401Y-81120203D01*
X147399393Y-81102007D01*
X147384037Y-81071254D01*
X147366406Y-81044135D01*
X147351492Y-81028562D01*
X147338544Y-81022500D01*
X147327186Y-81024686D01*
X147068602Y-81173979D01*
X147053626Y-81186997D01*
X147046296Y-81204343D01*
X147046797Y-81224995D01*
X147055987Y-81247751D01*
X147232575Y-81553609D01*
X147244042Y-81569699D01*
X147256797Y-81581153D01*
X147272315Y-81587509D01*
X147294414Y-81587567D01*
X147351257Y-81576113D01*
X147418325Y-81556357D01*
X147485037Y-81529756D01*
X147549145Y-81496692D01*
X147608060Y-81458538D01*
X147657386Y-81418157D01*
X147698134Y-81375561D01*
X147732774Y-81328177D01*
X147758793Y-81279239D01*
X147776783Y-81228341D01*
X147786955Y-81175321D01*
X147789229Y-81120078D01*
X147783321Y-81061978D01*
X147769689Y-81005000D01*
X147747475Y-80945706D01*
X147715794Y-80883592D01*
X147676515Y-80823260D01*
X147634526Y-80772730D01*
X147589823Y-80730981D01*
X147540143Y-80695552D01*
X147488980Y-80668813D01*
X147435936Y-80650189D01*
X147380713Y-80639475D01*
X147323564Y-80636859D01*
X147263872Y-80642571D01*
X147205279Y-80656156D01*
X147145363Y-80678228D01*
X147083673Y-80709522D01*
X147036169Y-80739407D01*
X146997203Y-80768823D01*
X146935782Y-80827058D01*
X146897746Y-80877926D01*
X146881246Y-80914315D01*
X146880191Y-80927884D01*
X146883304Y-80944503D01*
X146905407Y-80990968D01*
G37*
G36*
X146455795Y-82035856D02*
G01*
X146474537Y-82057328D01*
X146497456Y-82067715D01*
X146522371Y-82067150D01*
X146546443Y-82057553D01*
X146612702Y-82019298D01*
X146646151Y-81994557D01*
X146657250Y-81980577D01*
X146665417Y-81963692D01*
X146673131Y-81920389D01*
X146671817Y-81856563D01*
X146656852Y-81390763D01*
X146651023Y-81302752D01*
X146640500Y-81213573D01*
X146641716Y-81212870D01*
X146686991Y-81299471D01*
X146735936Y-81387055D01*
X146966226Y-81785930D01*
X146975642Y-81794666D01*
X146991432Y-81796126D01*
X147015930Y-81788610D01*
X147051868Y-81770258D01*
X147085150Y-81748645D01*
X147103590Y-81731371D01*
X147109609Y-81717249D01*
X147106403Y-81704858D01*
X146709600Y-81017575D01*
X146690814Y-80995076D01*
X146669339Y-80985331D01*
X146645487Y-80985314D01*
X146621332Y-80994505D01*
X146537887Y-81042681D01*
X146502307Y-81068371D01*
X146482136Y-81096938D01*
X146473511Y-81134633D01*
X146473731Y-81185694D01*
X146485435Y-81550226D01*
X146488464Y-81614824D01*
X146492085Y-81677882D01*
X146496750Y-81739208D01*
X146502030Y-81798911D01*
X146501448Y-81799247D01*
X146454389Y-81711631D01*
X146405890Y-81625552D01*
X146199199Y-81267554D01*
X146189520Y-81258970D01*
X146172912Y-81257560D01*
X146148119Y-81265176D01*
X146112363Y-81283845D01*
X146079481Y-81304804D01*
X146061388Y-81321948D01*
X146055816Y-81336235D01*
X146058992Y-81348573D01*
X146455795Y-82035856D01*
G37*
G36*
X145873071Y-81441884D02*
G01*
X145890848Y-81450515D01*
X145908020Y-81471766D01*
X146292947Y-82138478D01*
X146302765Y-82163975D01*
X146301351Y-82183686D01*
X146291631Y-82200722D01*
X146275115Y-82214204D01*
X146092308Y-82319747D01*
X146022980Y-82356157D01*
X145960525Y-82382066D01*
X145904113Y-82398860D01*
X145846349Y-82408315D01*
X145791513Y-82409114D01*
X145738912Y-82401663D01*
X145688251Y-82385750D01*
X145638587Y-82360557D01*
X145589414Y-82325175D01*
X145545510Y-82283075D01*
X145501718Y-82229014D01*
X145458022Y-82161100D01*
X145426224Y-82099002D01*
X145404235Y-82040916D01*
X145390981Y-81986241D01*
X145385309Y-81930462D01*
X145386197Y-81911639D01*
X145567905Y-81911639D01*
X145576604Y-81965442D01*
X145594844Y-82018896D01*
X145622325Y-82074066D01*
X145663180Y-82135916D01*
X145703859Y-82181825D01*
X145749273Y-82217516D01*
X145795668Y-82239726D01*
X145845155Y-82249952D01*
X145897660Y-82247611D01*
X145951212Y-82232785D01*
X146014828Y-82202033D01*
X146095893Y-82155230D01*
X145794986Y-81634044D01*
X145716300Y-81679473D01*
X145651692Y-81723882D01*
X145611817Y-81765461D01*
X145584812Y-81812113D01*
X145570593Y-81860755D01*
X145567905Y-81911639D01*
X145386197Y-81911639D01*
X145387800Y-81877670D01*
X145398149Y-81827199D01*
X145416233Y-81778928D01*
X145442386Y-81732309D01*
X145477299Y-81686952D01*
X145518054Y-81646438D01*
X145570677Y-81605050D01*
X145637127Y-81562736D01*
X145833524Y-81449346D01*
X145853458Y-81441783D01*
X145873071Y-81441884D01*
G37*
G36*
X135107556Y-85969820D02*
G01*
X135114112Y-86033698D01*
X135132835Y-86087850D01*
X135163090Y-86135175D01*
X135203238Y-86174251D01*
X135251830Y-86204589D01*
X135311133Y-86227435D01*
X135375763Y-86240935D01*
X135448397Y-86245631D01*
X135533149Y-86238853D01*
X135603186Y-86222184D01*
X135653378Y-86201606D01*
X135679329Y-86185486D01*
X135688549Y-86173213D01*
X135693983Y-86157215D01*
X135697403Y-86134073D01*
X135698441Y-86100307D01*
X135696759Y-86070178D01*
X135693006Y-86055061D01*
X135685879Y-86045375D01*
X135676581Y-86042421D01*
X135653012Y-86051763D01*
X135610330Y-86071730D01*
X135549575Y-86091758D01*
X135513381Y-86098592D01*
X135470257Y-86101039D01*
X135433966Y-86098697D01*
X135404006Y-86092185D01*
X135376977Y-86081245D01*
X135355157Y-86067212D01*
X135337509Y-86049316D01*
X135325116Y-86028194D01*
X135317767Y-86004327D01*
X135315224Y-85977208D01*
X135318303Y-85947574D01*
X135327192Y-85921826D01*
X135341915Y-85899146D01*
X135362729Y-85879755D01*
X135388434Y-85864675D01*
X135422141Y-85852705D01*
X135459666Y-85845687D01*
X135506466Y-85843119D01*
X135582975Y-85843119D01*
X135597996Y-85840737D01*
X135608254Y-85830724D01*
X135614055Y-85809719D01*
X135615765Y-85774975D01*
X135614055Y-85742308D01*
X135608620Y-85722646D01*
X135599034Y-85712998D01*
X135585051Y-85710251D01*
X135507870Y-85710251D01*
X135469503Y-85707881D01*
X135437528Y-85701275D01*
X135408645Y-85690031D01*
X135385932Y-85675568D01*
X135367538Y-85657039D01*
X135354180Y-85635146D01*
X135346047Y-85610449D01*
X135343251Y-85582634D01*
X135350761Y-85540929D01*
X135360109Y-85522495D01*
X135372987Y-85506857D01*
X135389350Y-85494272D01*
X135410906Y-85484143D01*
X135435318Y-85478002D01*
X135465555Y-85475778D01*
X135500306Y-85478401D01*
X135532478Y-85486097D01*
X135588837Y-85508689D01*
X135631213Y-85531587D01*
X135656797Y-85542212D01*
X135666384Y-85539830D01*
X135673223Y-85530549D01*
X135677314Y-85510582D01*
X135678657Y-85476816D01*
X135677985Y-85448239D01*
X135675238Y-85429310D01*
X135670109Y-85416243D01*
X135660217Y-85404153D01*
X135632190Y-85384858D01*
X135578945Y-85360068D01*
X135504817Y-85339612D01*
X135461812Y-85333368D01*
X135413593Y-85331186D01*
X135351454Y-85335137D01*
X135299836Y-85346146D01*
X135253412Y-85364795D01*
X135216550Y-85389193D01*
X135186868Y-85420510D01*
X135165320Y-85458375D01*
X135152380Y-85501203D01*
X135147856Y-85550943D01*
X135150487Y-85590116D01*
X135158115Y-85625621D01*
X135170885Y-85658587D01*
X135188156Y-85687292D01*
X135210278Y-85712233D01*
X135237677Y-85733393D01*
X135269123Y-85749787D01*
X135306309Y-85761908D01*
X135306309Y-85763984D01*
X135261573Y-85772845D01*
X135222961Y-85787676D01*
X135188559Y-85808399D01*
X135160496Y-85833288D01*
X135137840Y-85862549D01*
X135121234Y-85895387D01*
X135111032Y-85931002D01*
X135107556Y-85969820D01*
G37*
G36*
X134400290Y-85596250D02*
G01*
X134400656Y-85604433D01*
X134402000Y-85615057D01*
X134404747Y-85628368D01*
X134409144Y-85645404D01*
X134592265Y-86197027D01*
X134601485Y-86215833D01*
X134620597Y-86227069D01*
X134656806Y-86232503D01*
X134716585Y-86233907D01*
X134775691Y-86232198D01*
X134811595Y-86226397D01*
X134830341Y-86215162D01*
X134839561Y-86197027D01*
X135022621Y-85645404D01*
X135029154Y-85620858D01*
X135031902Y-85605104D01*
X135032207Y-85596250D01*
X135028483Y-85584282D01*
X135015171Y-85575734D01*
X134988854Y-85570971D01*
X134946844Y-85569567D01*
X134901721Y-85571277D01*
X134874732Y-85576100D01*
X134860749Y-85584954D01*
X134853910Y-85598937D01*
X134715241Y-86046634D01*
X134711150Y-86063731D01*
X134707059Y-86046634D01*
X134570405Y-85598937D01*
X134563933Y-85584954D01*
X134549950Y-85576100D01*
X134524304Y-85571277D01*
X134482295Y-85569567D01*
X134440956Y-85570971D01*
X134416044Y-85575734D01*
X134403709Y-85584282D01*
X134400290Y-85596250D01*
G37*
G36*
X133735888Y-85969820D02*
G01*
X133742445Y-86033698D01*
X133761168Y-86087850D01*
X133791422Y-86135175D01*
X133831571Y-86174251D01*
X133880163Y-86204589D01*
X133939465Y-86227435D01*
X134004095Y-86240935D01*
X134076729Y-86245631D01*
X134161482Y-86238853D01*
X134231518Y-86222184D01*
X134281710Y-86201606D01*
X134307661Y-86185486D01*
X134316881Y-86173213D01*
X134322316Y-86157215D01*
X134325735Y-86134073D01*
X134326773Y-86100307D01*
X134325091Y-86070178D01*
X134321339Y-86055061D01*
X134314211Y-86045375D01*
X134304913Y-86042421D01*
X134281344Y-86051763D01*
X134238662Y-86071730D01*
X134177907Y-86091758D01*
X134141713Y-86098592D01*
X134098589Y-86101039D01*
X134062298Y-86098697D01*
X134032338Y-86092185D01*
X134005309Y-86081245D01*
X133983490Y-86067212D01*
X133965842Y-86049316D01*
X133953448Y-86028194D01*
X133946099Y-86004327D01*
X133943556Y-85977208D01*
X133946635Y-85947574D01*
X133955524Y-85921826D01*
X133970248Y-85899146D01*
X133991061Y-85879755D01*
X134016766Y-85864675D01*
X134050473Y-85852705D01*
X134087998Y-85845687D01*
X134134798Y-85843119D01*
X134211307Y-85843119D01*
X134226328Y-85840737D01*
X134236586Y-85830724D01*
X134242387Y-85809719D01*
X134244097Y-85774975D01*
X134242387Y-85742308D01*
X134236953Y-85722646D01*
X134227366Y-85712998D01*
X134213383Y-85710251D01*
X134136202Y-85710251D01*
X134097835Y-85707881D01*
X134065861Y-85701275D01*
X134036977Y-85690031D01*
X134014264Y-85675568D01*
X133995870Y-85657039D01*
X133982513Y-85635146D01*
X133974380Y-85610449D01*
X133971583Y-85582634D01*
X133979093Y-85540929D01*
X133988441Y-85522495D01*
X134001319Y-85506857D01*
X134017683Y-85494272D01*
X134039238Y-85484143D01*
X134063650Y-85478002D01*
X134093887Y-85475778D01*
X134128638Y-85478401D01*
X134160810Y-85486097D01*
X134217169Y-85508689D01*
X134259545Y-85531587D01*
X134285130Y-85542212D01*
X134294716Y-85539830D01*
X134301555Y-85530549D01*
X134305646Y-85510582D01*
X134306989Y-85476816D01*
X134306318Y-85448239D01*
X134303570Y-85429310D01*
X134298441Y-85416243D01*
X134288549Y-85404153D01*
X134260522Y-85384858D01*
X134207277Y-85360068D01*
X134133149Y-85339612D01*
X134090144Y-85333368D01*
X134041925Y-85331186D01*
X133979786Y-85335137D01*
X133928169Y-85346146D01*
X133881744Y-85364795D01*
X133844882Y-85389193D01*
X133815200Y-85420510D01*
X133793652Y-85458375D01*
X133780713Y-85501203D01*
X133776188Y-85550943D01*
X133778819Y-85590116D01*
X133786447Y-85625621D01*
X133799217Y-85658587D01*
X133816489Y-85687292D01*
X133838610Y-85712233D01*
X133866009Y-85733393D01*
X133897455Y-85749787D01*
X133934641Y-85761908D01*
X133934641Y-85763984D01*
X133889906Y-85772845D01*
X133851293Y-85787676D01*
X133816892Y-85808399D01*
X133788828Y-85833288D01*
X133766172Y-85862549D01*
X133749566Y-85895387D01*
X133739364Y-85931002D01*
X133735888Y-85969820D01*
G37*
G36*
X132391393Y-86157337D02*
G01*
X132393102Y-86190982D01*
X132398231Y-86213757D01*
X132407146Y-86226275D01*
X132419419Y-86230000D01*
X132927628Y-86230000D01*
X132953579Y-86227313D01*
X132971347Y-86216749D01*
X132981239Y-86193974D01*
X132984292Y-86155200D01*
X132982277Y-86116793D01*
X132974767Y-86088278D01*
X132960723Y-86063792D01*
X132938497Y-86037597D01*
X132785540Y-85872733D01*
X132742685Y-85825376D01*
X132711778Y-85785844D01*
X132668059Y-85714281D01*
X132654430Y-85682143D01*
X132646504Y-85654624D01*
X132640703Y-85602784D01*
X132647909Y-85559553D01*
X132656833Y-85540363D01*
X132669097Y-85523954D01*
X132684666Y-85510500D01*
X132704268Y-85500080D01*
X132726564Y-85493705D01*
X132754093Y-85491409D01*
X132793038Y-85494096D01*
X132825473Y-85501606D01*
X132880123Y-85524321D01*
X132919446Y-85547341D01*
X132934654Y-85555723D01*
X132943992Y-85557843D01*
X132954617Y-85553752D01*
X132961822Y-85540013D01*
X132966218Y-85514246D01*
X132967928Y-85474740D01*
X132966890Y-85448300D01*
X132963837Y-85429799D01*
X132958341Y-85416060D01*
X132946434Y-85401955D01*
X132914988Y-85381683D01*
X132858629Y-85358236D01*
X132784868Y-85339002D01*
X132743982Y-85333169D01*
X132700787Y-85331186D01*
X132634312Y-85335807D01*
X132580253Y-85348588D01*
X132532141Y-85369911D01*
X132494524Y-85397070D01*
X132464674Y-85431036D01*
X132443600Y-85470771D01*
X132431124Y-85514628D01*
X132426869Y-85562545D01*
X132428937Y-85605312D01*
X132435112Y-85647236D01*
X132447177Y-85689030D01*
X132469245Y-85737056D01*
X132498975Y-85785517D01*
X132542335Y-85843546D01*
X132594186Y-85903397D01*
X132667326Y-85979101D01*
X132770519Y-86085408D01*
X132422106Y-86085408D01*
X132409528Y-86089499D01*
X132399575Y-86102016D01*
X132393469Y-86124426D01*
X132391393Y-86157337D01*
G37*
G36*
X131688217Y-85596250D02*
G01*
X131688584Y-85604433D01*
X131689927Y-85615057D01*
X131692675Y-85628368D01*
X131697071Y-85645404D01*
X131880192Y-86197027D01*
X131889413Y-86215833D01*
X131908525Y-86227069D01*
X131944734Y-86232503D01*
X132004512Y-86233907D01*
X132063619Y-86232198D01*
X132099522Y-86226397D01*
X132118268Y-86215162D01*
X132127488Y-86197027D01*
X132310548Y-85645404D01*
X132317082Y-85620858D01*
X132319829Y-85605104D01*
X132320135Y-85596250D01*
X132316410Y-85584282D01*
X132303099Y-85575734D01*
X132276782Y-85570971D01*
X132234772Y-85569567D01*
X132189648Y-85571277D01*
X132162659Y-85576100D01*
X132148676Y-85584954D01*
X132141837Y-85598937D01*
X132003169Y-86046634D01*
X131999078Y-86063731D01*
X131994986Y-86046634D01*
X131858333Y-85598937D01*
X131851860Y-85584954D01*
X131837877Y-85576100D01*
X131812232Y-85571277D01*
X131770222Y-85569567D01*
X131728884Y-85570971D01*
X131703971Y-85575734D01*
X131691637Y-85584282D01*
X131688217Y-85596250D01*
G37*
G36*
X131027907Y-85944113D02*
G01*
X131034386Y-86012929D01*
X131052881Y-86071730D01*
X131083059Y-86123663D01*
X131123223Y-86166374D01*
X131172455Y-86199857D01*
X131232521Y-86225237D01*
X131298564Y-86240340D01*
X131374243Y-86245631D01*
X131452157Y-86240319D01*
X131518408Y-86226946D01*
X131566585Y-86210765D01*
X131591131Y-86197515D01*
X131599679Y-86186280D01*
X131604137Y-86171564D01*
X131606518Y-86150010D01*
X131607190Y-86119235D01*
X131605847Y-86086812D01*
X131601389Y-86065319D01*
X131594245Y-86053656D01*
X131584658Y-86050237D01*
X131563837Y-86058175D01*
X131526956Y-86075638D01*
X131471269Y-86093162D01*
X131436814Y-86098907D01*
X131392684Y-86101039D01*
X131354074Y-86098920D01*
X131320632Y-86092918D01*
X131290125Y-86082034D01*
X131265616Y-86066723D01*
X131245720Y-86046512D01*
X131230812Y-86021538D01*
X131221756Y-85992650D01*
X131218477Y-85956264D01*
X131221154Y-85924819D01*
X131228736Y-85898196D01*
X131241853Y-85874697D01*
X131260854Y-85855026D01*
X131285079Y-85839964D01*
X131317579Y-85828525D01*
X131354311Y-85822081D01*
X131402209Y-85819672D01*
X131474322Y-85823824D01*
X131535444Y-85827915D01*
X131553200Y-85825158D01*
X131563776Y-85818023D01*
X131569759Y-85805613D01*
X131572324Y-85781448D01*
X131572324Y-85397986D01*
X131569287Y-85373140D01*
X131561761Y-85358785D01*
X131548825Y-85350114D01*
X131527933Y-85346817D01*
X131109240Y-85346817D01*
X131097638Y-85350908D01*
X131088418Y-85363792D01*
X131082923Y-85387178D01*
X131081213Y-85421983D01*
X131083372Y-85459811D01*
X131088418Y-85480968D01*
X131097743Y-85495124D01*
X131109240Y-85499225D01*
X131423458Y-85499225D01*
X131423458Y-85690894D01*
X131375953Y-85687536D01*
X131326433Y-85686803D01*
X131256988Y-85691200D01*
X131199060Y-85703473D01*
X131146922Y-85724536D01*
X131105454Y-85752505D01*
X131072215Y-85788526D01*
X131047752Y-85832800D01*
X131033119Y-85883235D01*
X131027907Y-85944113D01*
G37*
G36*
X135111647Y-87842650D02*
G01*
X135113723Y-87874645D01*
X135119524Y-87895528D01*
X135128073Y-87906641D01*
X135139003Y-87910000D01*
X135626755Y-87910000D01*
X135637014Y-87906641D01*
X135645562Y-87895528D01*
X135651363Y-87874645D01*
X135653378Y-87842650D01*
X135651668Y-87809982D01*
X135646234Y-87788733D01*
X135637685Y-87776948D01*
X135626755Y-87773224D01*
X135462075Y-87773224D01*
X135462075Y-87194856D01*
X135604163Y-87273014D01*
X135629809Y-87282234D01*
X135638891Y-87282009D01*
X135645501Y-87278143D01*
X135653378Y-87258054D01*
X135655393Y-87217876D01*
X135654721Y-87190949D01*
X135651302Y-87172936D01*
X135643791Y-87160662D01*
X135630785Y-87150404D01*
X135440887Y-87027855D01*
X135432338Y-87023459D01*
X135419027Y-87020711D01*
X135397534Y-87019368D01*
X135363034Y-87019002D01*
X135321025Y-87020040D01*
X135296783Y-87023459D01*
X135285854Y-87029993D01*
X135283106Y-87040251D01*
X135283106Y-87773224D01*
X135138941Y-87773224D01*
X135127706Y-87776948D01*
X135118852Y-87788733D01*
X135113357Y-87809982D01*
X135111647Y-87842650D01*
G37*
G36*
X134400290Y-87276250D02*
G01*
X134400656Y-87284433D01*
X134402000Y-87295057D01*
X134404747Y-87308368D01*
X134409144Y-87325404D01*
X134592265Y-87877027D01*
X134601485Y-87895833D01*
X134620597Y-87907069D01*
X134656806Y-87912503D01*
X134716585Y-87913907D01*
X134775691Y-87912198D01*
X134811595Y-87906397D01*
X134830341Y-87895162D01*
X134839561Y-87877027D01*
X135022621Y-87325404D01*
X135029154Y-87300858D01*
X135031902Y-87285104D01*
X135032207Y-87276250D01*
X135028483Y-87264282D01*
X135015171Y-87255734D01*
X134988854Y-87250971D01*
X134946844Y-87249567D01*
X134901721Y-87251277D01*
X134874732Y-87256100D01*
X134860749Y-87264954D01*
X134853910Y-87278937D01*
X134715241Y-87726634D01*
X134711150Y-87743731D01*
X134707059Y-87726634D01*
X134570405Y-87278937D01*
X134563933Y-87264954D01*
X134549950Y-87256100D01*
X134524304Y-87251277D01*
X134482295Y-87249567D01*
X134440956Y-87250971D01*
X134416044Y-87255734D01*
X134403709Y-87264282D01*
X134400290Y-87276250D01*
G37*
G36*
X134091325Y-87015718D02*
G01*
X134149880Y-87028283D01*
X134202229Y-87049546D01*
X134243120Y-87077070D01*
X134275874Y-87111834D01*
X134299173Y-87152114D01*
X134313095Y-87197219D01*
X134317919Y-87248651D01*
X134315284Y-87284622D01*
X134307661Y-87316917D01*
X134295016Y-87347045D01*
X134277619Y-87374619D01*
X134255980Y-87399613D01*
X134229809Y-87423040D01*
X134166916Y-87464317D01*
X134208278Y-87487935D01*
X134243120Y-87511762D01*
X134273983Y-87537997D01*
X134298441Y-87565006D01*
X134317991Y-87594587D01*
X134331963Y-87626372D01*
X134340340Y-87660274D01*
X134343198Y-87697020D01*
X134338219Y-87750155D01*
X134324086Y-87794961D01*
X134300243Y-87834061D01*
X134266689Y-87866585D01*
X134225001Y-87891537D01*
X134171740Y-87910610D01*
X134112543Y-87921629D01*
X134039910Y-87925631D01*
X133963872Y-87921193D01*
X133901241Y-87908900D01*
X133844808Y-87887695D01*
X133800430Y-87859808D01*
X133764686Y-87823671D01*
X133738941Y-87780307D01*
X133723525Y-87730962D01*
X133719239Y-87685113D01*
X133895745Y-87685113D01*
X133899666Y-87717222D01*
X133910742Y-87743094D01*
X133928901Y-87764187D01*
X133952669Y-87779157D01*
X133985117Y-87789059D01*
X134028919Y-87792763D01*
X134073753Y-87789142D01*
X134107148Y-87779459D01*
X134131745Y-87764858D01*
X134150540Y-87744000D01*
X134162105Y-87717553D01*
X134166244Y-87683770D01*
X134164257Y-87660527D01*
X134158429Y-87639195D01*
X134148730Y-87619129D01*
X134134859Y-87599689D01*
X134095231Y-87563907D01*
X134039849Y-87529836D01*
X133976407Y-87564579D01*
X133930977Y-87599994D01*
X133915013Y-87619318D01*
X133904294Y-87639195D01*
X133897943Y-87660734D01*
X133895745Y-87685113D01*
X133719239Y-87685113D01*
X133718120Y-87673145D01*
X133721180Y-87636571D01*
X133730088Y-87603536D01*
X133744579Y-87572616D01*
X133764587Y-87543147D01*
X133789258Y-87516168D01*
X133819908Y-87490268D01*
X133894341Y-87443862D01*
X133860326Y-87422707D01*
X133830838Y-87399837D01*
X133804730Y-87374494D01*
X133783699Y-87348302D01*
X133766659Y-87320119D01*
X133754023Y-87290661D01*
X133746052Y-87259822D01*
X133744864Y-87245659D01*
X133916201Y-87245659D01*
X133922858Y-87284171D01*
X133943190Y-87319481D01*
X133974403Y-87350406D01*
X134020065Y-87381763D01*
X134076790Y-87348607D01*
X134115686Y-87316734D01*
X134137912Y-87282234D01*
X134145056Y-87242240D01*
X134141704Y-87212751D01*
X134132302Y-87189162D01*
X134117090Y-87170127D01*
X134096792Y-87156419D01*
X134069092Y-87147414D01*
X134031667Y-87144054D01*
X134003390Y-87145867D01*
X133980803Y-87150832D01*
X133960668Y-87159381D01*
X133944594Y-87170799D01*
X133931875Y-87185396D01*
X133923040Y-87202978D01*
X133916201Y-87245659D01*
X133744864Y-87245659D01*
X133743399Y-87228196D01*
X133747531Y-87181256D01*
X133759458Y-87139841D01*
X133779798Y-87102828D01*
X133808978Y-87071270D01*
X133845986Y-87046425D01*
X133894707Y-87026878D01*
X133949783Y-87015416D01*
X134020065Y-87011186D01*
X134091325Y-87015718D01*
G37*
G36*
X132399575Y-87842650D02*
G01*
X132401651Y-87874645D01*
X132407452Y-87895528D01*
X132416000Y-87906641D01*
X132426930Y-87910000D01*
X132914683Y-87910000D01*
X132924941Y-87906641D01*
X132933490Y-87895528D01*
X132939290Y-87874645D01*
X132941305Y-87842650D01*
X132939596Y-87809982D01*
X132934161Y-87788733D01*
X132925613Y-87776948D01*
X132914683Y-87773224D01*
X132750002Y-87773224D01*
X132750002Y-87194856D01*
X132892090Y-87273014D01*
X132917736Y-87282234D01*
X132926818Y-87282009D01*
X132933429Y-87278143D01*
X132941305Y-87258054D01*
X132943320Y-87217876D01*
X132942649Y-87190949D01*
X132939229Y-87172936D01*
X132931719Y-87160662D01*
X132918713Y-87150404D01*
X132728814Y-87027855D01*
X132720266Y-87023459D01*
X132706954Y-87020711D01*
X132685461Y-87019368D01*
X132650962Y-87019002D01*
X132608952Y-87020040D01*
X132584711Y-87023459D01*
X132573781Y-87029993D01*
X132571033Y-87040251D01*
X132571033Y-87773224D01*
X132426869Y-87773224D01*
X132415634Y-87776948D01*
X132406780Y-87788733D01*
X132401284Y-87809982D01*
X132399575Y-87842650D01*
G37*
G36*
X131688217Y-87276250D02*
G01*
X131688584Y-87284433D01*
X131689927Y-87295057D01*
X131692675Y-87308368D01*
X131697071Y-87325404D01*
X131880192Y-87877027D01*
X131889413Y-87895833D01*
X131908525Y-87907069D01*
X131944734Y-87912503D01*
X132004512Y-87913907D01*
X132063619Y-87912198D01*
X132099522Y-87906397D01*
X132118268Y-87895162D01*
X132127488Y-87877027D01*
X132310548Y-87325404D01*
X132317082Y-87300858D01*
X132319829Y-87285104D01*
X132320135Y-87276250D01*
X132316410Y-87264282D01*
X132303099Y-87255734D01*
X132276782Y-87250971D01*
X132234772Y-87249567D01*
X132189648Y-87251277D01*
X132162659Y-87256100D01*
X132148676Y-87264954D01*
X132141837Y-87278937D01*
X132003169Y-87726634D01*
X131999078Y-87743731D01*
X131994986Y-87726634D01*
X131858333Y-87278937D01*
X131851860Y-87264954D01*
X131837877Y-87256100D01*
X131812232Y-87251277D01*
X131770222Y-87249567D01*
X131728884Y-87250971D01*
X131703971Y-87255734D01*
X131691637Y-87264282D01*
X131688217Y-87276250D01*
G37*
G36*
X131019725Y-87837337D02*
G01*
X131021434Y-87870982D01*
X131026564Y-87893757D01*
X131035478Y-87906275D01*
X131047752Y-87910000D01*
X131555960Y-87910000D01*
X131581911Y-87907313D01*
X131599679Y-87896749D01*
X131609571Y-87873974D01*
X131612624Y-87835200D01*
X131610609Y-87796793D01*
X131603099Y-87768278D01*
X131589055Y-87743792D01*
X131566829Y-87717597D01*
X131413872Y-87552733D01*
X131371018Y-87505376D01*
X131340110Y-87465844D01*
X131296391Y-87394281D01*
X131282762Y-87362143D01*
X131274836Y-87334624D01*
X131269036Y-87282784D01*
X131276241Y-87239553D01*
X131285165Y-87220363D01*
X131297429Y-87203954D01*
X131312998Y-87190500D01*
X131332600Y-87180080D01*
X131354896Y-87173705D01*
X131382425Y-87171409D01*
X131421370Y-87174096D01*
X131453805Y-87181606D01*
X131508455Y-87204321D01*
X131547778Y-87227341D01*
X131562987Y-87235723D01*
X131572324Y-87237843D01*
X131582949Y-87233752D01*
X131590154Y-87220013D01*
X131594550Y-87194246D01*
X131596260Y-87154740D01*
X131595222Y-87128300D01*
X131592169Y-87109799D01*
X131586673Y-87096060D01*
X131574767Y-87081955D01*
X131543320Y-87061683D01*
X131486961Y-87038236D01*
X131413200Y-87019002D01*
X131372314Y-87013169D01*
X131329119Y-87011186D01*
X131262644Y-87015807D01*
X131208586Y-87028588D01*
X131160473Y-87049911D01*
X131122856Y-87077070D01*
X131093006Y-87111036D01*
X131071932Y-87150771D01*
X131059456Y-87194628D01*
X131055201Y-87242545D01*
X131057269Y-87285312D01*
X131063444Y-87327236D01*
X131075509Y-87369030D01*
X131097577Y-87417056D01*
X131127307Y-87465517D01*
X131170667Y-87523546D01*
X131222518Y-87583397D01*
X131295658Y-87659101D01*
X131398851Y-87765408D01*
X131050438Y-87765408D01*
X131037860Y-87769499D01*
X131027907Y-87782016D01*
X131021801Y-87804426D01*
X131019725Y-87837337D01*
G37*
G36*
X137552794Y-89558431D02*
G01*
X137561709Y-89577238D01*
X137579478Y-89588107D01*
X137612939Y-89592869D01*
X137668199Y-89593907D01*
X137715033Y-89593541D01*
X137748128Y-89591831D01*
X137770354Y-89587801D01*
X137784703Y-89580963D01*
X137793557Y-89571071D01*
X137799357Y-89556355D01*
X138062407Y-88773862D01*
X138072299Y-88734966D01*
X138071319Y-88722038D01*
X138065460Y-88713473D01*
X138055102Y-88708059D01*
X138036456Y-88704619D01*
X137979059Y-88702909D01*
X137929844Y-88704314D01*
X137902550Y-88709077D01*
X137889239Y-88719274D01*
X137882034Y-88736310D01*
X137666856Y-89417198D01*
X137666184Y-89417198D01*
X137455097Y-88739729D01*
X137448258Y-88720983D01*
X137434275Y-88709748D01*
X137405882Y-88704314D01*
X137355324Y-88702909D01*
X137306536Y-88704986D01*
X137290957Y-88708837D01*
X137282601Y-88714877D01*
X137278446Y-88723796D01*
X137278510Y-88737042D01*
X137289073Y-88775205D01*
X137552794Y-89558431D01*
G37*
G36*
X137080856Y-88924499D02*
G01*
X137150832Y-88941596D01*
X137206885Y-88964249D01*
X137240347Y-88986231D01*
X137253292Y-89008152D01*
X137256711Y-89041186D01*
X137254696Y-89069518D01*
X137248895Y-89091133D01*
X137239309Y-89104628D01*
X137225997Y-89109330D01*
X137214574Y-89107276D01*
X137197665Y-89099621D01*
X137154251Y-89078066D01*
X137094473Y-89056573D01*
X137059337Y-89049372D01*
X137017658Y-89046803D01*
X136986268Y-89048688D01*
X136962643Y-89053703D01*
X136942270Y-89062723D01*
X136927105Y-89075075D01*
X136915832Y-89091060D01*
X136907993Y-89111284D01*
X136902192Y-89161964D01*
X136902192Y-89199211D01*
X136961605Y-89199211D01*
X137040427Y-89202510D01*
X137104426Y-89211545D01*
X137162547Y-89227799D01*
X137207252Y-89249525D01*
X137243804Y-89278949D01*
X137269412Y-89314494D01*
X137284787Y-89356272D01*
X137290233Y-89407184D01*
X137285935Y-89454453D01*
X137273869Y-89493401D01*
X137254014Y-89527508D01*
X137227768Y-89555317D01*
X137195697Y-89576994D01*
X137157365Y-89592930D01*
X137115459Y-89602353D01*
X137068217Y-89605631D01*
X137011467Y-89599845D01*
X136961299Y-89583039D01*
X136915958Y-89556151D01*
X136875570Y-89520146D01*
X136875570Y-89568628D01*
X136869769Y-89583710D01*
X136849986Y-89591526D01*
X136805228Y-89593907D01*
X136761875Y-89591526D01*
X136740320Y-89583710D01*
X136733482Y-89568628D01*
X136733482Y-89412252D01*
X136902192Y-89412252D01*
X136934540Y-89444429D01*
X136964047Y-89466107D01*
X136995828Y-89479870D01*
X137030664Y-89484487D01*
X137070224Y-89478635D01*
X137097953Y-89462688D01*
X137115878Y-89437408D01*
X137122194Y-89402665D01*
X137119976Y-89381105D01*
X137113646Y-89362854D01*
X137102848Y-89346980D01*
X137086657Y-89333178D01*
X137066423Y-89322812D01*
X137038846Y-89314799D01*
X137007933Y-89310311D01*
X136967772Y-89308632D01*
X136902192Y-89308632D01*
X136902192Y-89412252D01*
X136733482Y-89412252D01*
X136733482Y-89158483D01*
X136737501Y-89097989D01*
X136748503Y-89049795D01*
X136768249Y-89007741D01*
X136796313Y-88974935D01*
X136832658Y-88950147D01*
X136880027Y-88931887D01*
X136933633Y-88921645D01*
X137002637Y-88917843D01*
X137080856Y-88924499D01*
G37*
G36*
X136170502Y-89012915D02*
G01*
X136171906Y-89052971D01*
X136175997Y-89077395D01*
X136183142Y-89089668D01*
X136194438Y-89093087D01*
X136206711Y-89090706D01*
X136222098Y-89085577D01*
X136240844Y-89080448D01*
X136263375Y-89078066D01*
X136292074Y-89083928D01*
X136321810Y-89102247D01*
X136353928Y-89135464D01*
X136389771Y-89186571D01*
X136389771Y-89566552D01*
X136393862Y-89578520D01*
X136407906Y-89587069D01*
X136434223Y-89592198D01*
X136475805Y-89593907D01*
X136517510Y-89592198D01*
X136543827Y-89587069D01*
X136557810Y-89578520D01*
X136561901Y-89566552D01*
X136561901Y-88956922D01*
X136558482Y-88944954D01*
X136546208Y-88936406D01*
X136523311Y-88931277D01*
X136488140Y-88929567D01*
X136451931Y-88931277D01*
X136429766Y-88936406D01*
X136418469Y-88944954D01*
X136415050Y-88956922D01*
X136415050Y-89032759D01*
X136369987Y-88976339D01*
X136329687Y-88941107D01*
X136291402Y-88922972D01*
X136253178Y-88917843D01*
X136234066Y-88918881D01*
X136212878Y-88922240D01*
X136193766Y-88927674D01*
X136181798Y-88934146D01*
X136176303Y-88941596D01*
X136173250Y-88952831D01*
X136171174Y-88974202D01*
X136170502Y-89012915D01*
G37*
G36*
X135892493Y-89566552D02*
G01*
X135896584Y-89578520D01*
X135910628Y-89587069D01*
X135936945Y-89592198D01*
X135978527Y-89593907D01*
X136020232Y-89592198D01*
X136046549Y-89587069D01*
X136060532Y-89578520D01*
X136064623Y-89566552D01*
X136064623Y-88958265D01*
X136060532Y-88946297D01*
X136046549Y-88937444D01*
X136020232Y-88931643D01*
X135978527Y-88929567D01*
X135936945Y-88931643D01*
X135910628Y-88937444D01*
X135896584Y-88946297D01*
X135892493Y-88958265D01*
X135892493Y-89566552D01*
G37*
G36*
X135879548Y-88752369D02*
G01*
X135882454Y-88786297D01*
X135889908Y-88809083D01*
X135900736Y-88823871D01*
X135927403Y-88837707D01*
X135979260Y-88843593D01*
X136031675Y-88837828D01*
X136057479Y-88824542D01*
X136071759Y-88800496D01*
X136077629Y-88755727D01*
X136071571Y-88709138D01*
X136056807Y-88683920D01*
X136041384Y-88673861D01*
X136016419Y-88666688D01*
X135977916Y-88663831D01*
X135926088Y-88669666D01*
X135900064Y-88683248D01*
X135885493Y-88707633D01*
X135879548Y-88752369D01*
G37*
G36*
X135549942Y-88924499D02*
G01*
X135619917Y-88941596D01*
X135675971Y-88964249D01*
X135709433Y-88986231D01*
X135722377Y-89008152D01*
X135725797Y-89041186D01*
X135723782Y-89069518D01*
X135717981Y-89091133D01*
X135708394Y-89104628D01*
X135695083Y-89109330D01*
X135683660Y-89107276D01*
X135666751Y-89099621D01*
X135623337Y-89078066D01*
X135563558Y-89056573D01*
X135528422Y-89049372D01*
X135486744Y-89046803D01*
X135455354Y-89048688D01*
X135431728Y-89053703D01*
X135411356Y-89062723D01*
X135396191Y-89075075D01*
X135384918Y-89091060D01*
X135377079Y-89111284D01*
X135371278Y-89161964D01*
X135371278Y-89199211D01*
X135430690Y-89199211D01*
X135509513Y-89202510D01*
X135573511Y-89211545D01*
X135631633Y-89227799D01*
X135676338Y-89249525D01*
X135712889Y-89278949D01*
X135738497Y-89314494D01*
X135753873Y-89356272D01*
X135759319Y-89407184D01*
X135755021Y-89454453D01*
X135742955Y-89493401D01*
X135723100Y-89527508D01*
X135696854Y-89555317D01*
X135664782Y-89576994D01*
X135626451Y-89592930D01*
X135584545Y-89602353D01*
X135537302Y-89605631D01*
X135480553Y-89599845D01*
X135430385Y-89583039D01*
X135385044Y-89556151D01*
X135344656Y-89520146D01*
X135344656Y-89568628D01*
X135338855Y-89583710D01*
X135319071Y-89591526D01*
X135274314Y-89593907D01*
X135230961Y-89591526D01*
X135209406Y-89583710D01*
X135202568Y-89568628D01*
X135202568Y-89412252D01*
X135371278Y-89412252D01*
X135403626Y-89444429D01*
X135433133Y-89466107D01*
X135464913Y-89479870D01*
X135499750Y-89484487D01*
X135539310Y-89478635D01*
X135567039Y-89462688D01*
X135584964Y-89437408D01*
X135591280Y-89402665D01*
X135589062Y-89381105D01*
X135582732Y-89362854D01*
X135571933Y-89346980D01*
X135555743Y-89333178D01*
X135535509Y-89322812D01*
X135507932Y-89314799D01*
X135477019Y-89310311D01*
X135436857Y-89308632D01*
X135371278Y-89308632D01*
X135371278Y-89412252D01*
X135202568Y-89412252D01*
X135202568Y-89158483D01*
X135206587Y-89097989D01*
X135217588Y-89049795D01*
X135237335Y-89007741D01*
X135265399Y-88974935D01*
X135301743Y-88950147D01*
X135349113Y-88931887D01*
X135402719Y-88921645D01*
X135471723Y-88917843D01*
X135549942Y-88924499D01*
G37*
G36*
X134986596Y-88642459D02*
G01*
X135012913Y-88648260D01*
X135026896Y-88657480D01*
X135030987Y-88669692D01*
X135030987Y-89566613D01*
X135027568Y-89579253D01*
X135015600Y-89587801D01*
X134993068Y-89592503D01*
X134957897Y-89593907D01*
X134923093Y-89592503D01*
X134900195Y-89587740D01*
X134887922Y-89579253D01*
X134884136Y-89566613D01*
X134884136Y-89500362D01*
X134835959Y-89548234D01*
X134788148Y-89581024D01*
X134737285Y-89599830D01*
X134679888Y-89605631D01*
X134620177Y-89599283D01*
X134568879Y-89581024D01*
X134524061Y-89551275D01*
X134486570Y-89510621D01*
X134457580Y-89461180D01*
X134435340Y-89399856D01*
X134422230Y-89332561D01*
X134418392Y-89267477D01*
X134595868Y-89267477D01*
X134602707Y-89337269D01*
X134611854Y-89370734D01*
X134624933Y-89399490D01*
X134642439Y-89424505D01*
X134663524Y-89443942D01*
X134688757Y-89456602D01*
X134720188Y-89461039D01*
X134755054Y-89455076D01*
X134789553Y-89436371D01*
X134821746Y-89407728D01*
X134858857Y-89364319D01*
X134858857Y-89161903D01*
X134819900Y-89116840D01*
X134784057Y-89087226D01*
X134750291Y-89071045D01*
X134716769Y-89066343D01*
X134684194Y-89070761D01*
X134659066Y-89083135D01*
X134638550Y-89102411D01*
X134621819Y-89127953D01*
X134609802Y-89157422D01*
X134601669Y-89192250D01*
X134595868Y-89267477D01*
X134418392Y-89267477D01*
X134417571Y-89253555D01*
X134421055Y-89186865D01*
X134431249Y-89124656D01*
X134449267Y-89066406D01*
X134474602Y-89017677D01*
X134508713Y-88976560D01*
X134551477Y-88944893D01*
X134583947Y-88930280D01*
X134621828Y-88921090D01*
X134666210Y-88917843D01*
X134718173Y-88922667D01*
X134765983Y-88938054D01*
X134812451Y-88965043D01*
X134858857Y-89004672D01*
X134858857Y-88669631D01*
X134862948Y-88657358D01*
X134876992Y-88648199D01*
X134903309Y-88642459D01*
X134944891Y-88640383D01*
X134986596Y-88642459D01*
G37*
G36*
X134107566Y-89566613D02*
G01*
X134111657Y-89578581D01*
X134125701Y-89587069D01*
X134152018Y-89592198D01*
X134193600Y-89593907D01*
X134235305Y-89592198D01*
X134261622Y-89587069D01*
X134275605Y-89578581D01*
X134279696Y-89566613D01*
X134279696Y-88669692D01*
X134275605Y-88657480D01*
X134261622Y-88648260D01*
X134235305Y-88642459D01*
X134193600Y-88640383D01*
X134152018Y-88642459D01*
X134125701Y-88648260D01*
X134111657Y-88657480D01*
X134107566Y-88669692D01*
X134107566Y-89566613D01*
G37*
G36*
X133731450Y-88924049D02*
G01*
X133791638Y-88941779D01*
X133845154Y-88971220D01*
X133889640Y-89011205D01*
X133924694Y-89060770D01*
X133951128Y-89121969D01*
X133966790Y-89189691D01*
X133972316Y-89268576D01*
X133966949Y-89350976D01*
X133952166Y-89417625D01*
X133926311Y-89476582D01*
X133891045Y-89522894D01*
X133845650Y-89558925D01*
X133788951Y-89585115D01*
X133724854Y-89600193D01*
X133646496Y-89605631D01*
X133561805Y-89599891D01*
X133491463Y-89586519D01*
X133440905Y-89570704D01*
X133416664Y-89557821D01*
X133409459Y-89547807D01*
X133405368Y-89535045D01*
X133403292Y-89516788D01*
X133402620Y-89490898D01*
X133403658Y-89462322D01*
X133407444Y-89444736D01*
X133414221Y-89436127D01*
X133424480Y-89433684D01*
X133451163Y-89440401D01*
X133492440Y-89455177D01*
X133551547Y-89470015D01*
X133587057Y-89474891D01*
X133630743Y-89476671D01*
X133673362Y-89473529D01*
X133706946Y-89464947D01*
X133736172Y-89450259D01*
X133758848Y-89430753D01*
X133776084Y-89406222D01*
X133788218Y-89376226D01*
X133795037Y-89343033D01*
X133797438Y-89304724D01*
X133426495Y-89304724D01*
X133404139Y-89300790D01*
X133387965Y-89289703D01*
X133377839Y-89271883D01*
X133373921Y-89243297D01*
X133373921Y-89216003D01*
X133375319Y-89195303D01*
X133540617Y-89195303D01*
X133797438Y-89195303D01*
X133794244Y-89163581D01*
X133787547Y-89134364D01*
X133776937Y-89107313D01*
X133762939Y-89084783D01*
X133744907Y-89065990D01*
X133722639Y-89051383D01*
X133696926Y-89042233D01*
X133665608Y-89038988D01*
X133624392Y-89044076D01*
X133593223Y-89058105D01*
X133569621Y-89080692D01*
X133553327Y-89110045D01*
X133543312Y-89147508D01*
X133540617Y-89195303D01*
X133375319Y-89195303D01*
X133378148Y-89153409D01*
X133390347Y-89097301D01*
X133411566Y-89045969D01*
X133441577Y-89002840D01*
X133480690Y-88967661D01*
X133530725Y-88940375D01*
X133588352Y-88923865D01*
X133661517Y-88917843D01*
X133731450Y-88924049D01*
G37*
G36*
X132466681Y-89558431D02*
G01*
X132475596Y-89577238D01*
X132493365Y-89588107D01*
X132526826Y-89592869D01*
X132582086Y-89593907D01*
X132628920Y-89593541D01*
X132662014Y-89591831D01*
X132684241Y-89587801D01*
X132698590Y-89580963D01*
X132707444Y-89571071D01*
X132713244Y-89556355D01*
X132976294Y-88773862D01*
X132986186Y-88734966D01*
X132985206Y-88722038D01*
X132979347Y-88713473D01*
X132968989Y-88708059D01*
X132950343Y-88704619D01*
X132892946Y-88702909D01*
X132843731Y-88704314D01*
X132816437Y-88709077D01*
X132803126Y-88719274D01*
X132795921Y-88736310D01*
X132580743Y-89417198D01*
X132580071Y-89417198D01*
X132368984Y-88739729D01*
X132362145Y-88720983D01*
X132348162Y-88709748D01*
X132319769Y-88704314D01*
X132269211Y-88702909D01*
X132220423Y-88704986D01*
X132204844Y-88708837D01*
X132196488Y-88714877D01*
X132192333Y-88723796D01*
X132192397Y-88737042D01*
X132202960Y-88775205D01*
X132466681Y-89558431D01*
G37*
G36*
X131938287Y-88924537D02*
G01*
X132004146Y-88943183D01*
X132061983Y-88974038D01*
X132108377Y-89014624D01*
X132144475Y-89064750D01*
X132170842Y-89125327D01*
X132186277Y-89192043D01*
X132191664Y-89267904D01*
X132186632Y-89346002D01*
X132172552Y-89411458D01*
X132147890Y-89470160D01*
X132113811Y-89517459D01*
X132069637Y-89555018D01*
X132014099Y-89583100D01*
X131950801Y-89599653D01*
X131872683Y-89605631D01*
X131791954Y-89598960D01*
X131725832Y-89580352D01*
X131667718Y-89549363D01*
X131621296Y-89508545D01*
X131585196Y-89458154D01*
X131559136Y-89397841D01*
X131543935Y-89331405D01*
X131539146Y-89263080D01*
X131715573Y-89263080D01*
X131717931Y-89310216D01*
X131724488Y-89349603D01*
X131736054Y-89385454D01*
X131751782Y-89414206D01*
X131772826Y-89437717D01*
X131798921Y-89454872D01*
X131829330Y-89465183D01*
X131866516Y-89468855D01*
X131906667Y-89464744D01*
X131937590Y-89453468D01*
X131963290Y-89434927D01*
X131983019Y-89410054D01*
X131997187Y-89380253D01*
X132007260Y-89344108D01*
X132012818Y-89305215D01*
X132014771Y-89261065D01*
X132012333Y-89213950D01*
X132005551Y-89174603D01*
X131993714Y-89138643D01*
X131977890Y-89109635D01*
X131956817Y-89085838D01*
X131930751Y-89068663D01*
X131900422Y-89058290D01*
X131863829Y-89054619D01*
X131823164Y-89058850D01*
X131792449Y-89070373D01*
X131766926Y-89089120D01*
X131747020Y-89114092D01*
X131732659Y-89143935D01*
X131722779Y-89180099D01*
X131717448Y-89218974D01*
X131715573Y-89263080D01*
X131539146Y-89263080D01*
X131538620Y-89255570D01*
X131543663Y-89176877D01*
X131557732Y-89111345D01*
X131582330Y-89052629D01*
X131616167Y-89005404D01*
X131660068Y-88967900D01*
X131715573Y-88940069D01*
X131778879Y-88923757D01*
X131857601Y-88917843D01*
X131938287Y-88924537D01*
G37*
G36*
X131230385Y-89566613D02*
G01*
X131234476Y-89578581D01*
X131248520Y-89587069D01*
X131274837Y-89592198D01*
X131316420Y-89593907D01*
X131358124Y-89592198D01*
X131384441Y-89587069D01*
X131398424Y-89578581D01*
X131402515Y-89566613D01*
X131402515Y-88669692D01*
X131398424Y-88657480D01*
X131384441Y-88648260D01*
X131358124Y-88642459D01*
X131316420Y-88640383D01*
X131274837Y-88642459D01*
X131248520Y-88648260D01*
X131234476Y-88657480D01*
X131230385Y-88669692D01*
X131230385Y-89566613D01*
G37*
G36*
X130698913Y-89508300D02*
G01*
X130702698Y-89554584D01*
X130712590Y-89577238D01*
X130730664Y-89588839D01*
X130758691Y-89597754D01*
X130793557Y-89603555D01*
X130831414Y-89605631D01*
X130880687Y-89602164D01*
X130920258Y-89592625D01*
X130954892Y-89575902D01*
X130982417Y-89552569D01*
X131003422Y-89522666D01*
X131018626Y-89484426D01*
X131027115Y-89441307D01*
X131030228Y-89387156D01*
X131030228Y-89074159D01*
X131103379Y-89074159D01*
X131114361Y-89070460D01*
X131123162Y-89057978D01*
X131127932Y-89038975D01*
X131130001Y-89003817D01*
X131128292Y-88970050D01*
X131123162Y-88948312D01*
X131114614Y-88936955D01*
X131102646Y-88933475D01*
X131030228Y-88933475D01*
X131030228Y-88797920D01*
X131026503Y-88785708D01*
X131012826Y-88776488D01*
X130986203Y-88771053D01*
X130944865Y-88769344D01*
X130902855Y-88771053D01*
X130876538Y-88776488D01*
X130862861Y-88785708D01*
X130858770Y-88797920D01*
X130858770Y-88933475D01*
X130726268Y-88933475D01*
X130714300Y-88936955D01*
X130705751Y-88948312D01*
X130700622Y-88970050D01*
X130698913Y-89003817D01*
X130700982Y-89038975D01*
X130705751Y-89057978D01*
X130714553Y-89070460D01*
X130725535Y-89074159D01*
X130858770Y-89074159D01*
X130858770Y-89361083D01*
X130854279Y-89407393D01*
X130843077Y-89436065D01*
X130830588Y-89449414D01*
X130812579Y-89457882D01*
X130787023Y-89461039D01*
X130762416Y-89458658D01*
X130742998Y-89453224D01*
X130728649Y-89447728D01*
X130718025Y-89445347D01*
X130710209Y-89447728D01*
X130704408Y-89457315D01*
X130700622Y-89476793D01*
X130698913Y-89508300D01*
G37*
G36*
X130416934Y-88924499D02*
G01*
X130486910Y-88941596D01*
X130542964Y-88964249D01*
X130576425Y-88986231D01*
X130589370Y-89008152D01*
X130592789Y-89041186D01*
X130590774Y-89069518D01*
X130584973Y-89091133D01*
X130575387Y-89104628D01*
X130562076Y-89109330D01*
X130550652Y-89107276D01*
X130533743Y-89099621D01*
X130490329Y-89078066D01*
X130430551Y-89056573D01*
X130395415Y-89049372D01*
X130353736Y-89046803D01*
X130322346Y-89048688D01*
X130298721Y-89053703D01*
X130278349Y-89062723D01*
X130263183Y-89075075D01*
X130251910Y-89091060D01*
X130244071Y-89111284D01*
X130238271Y-89161964D01*
X130238271Y-89199211D01*
X130297683Y-89199211D01*
X130376506Y-89202510D01*
X130440504Y-89211545D01*
X130498625Y-89227799D01*
X130543330Y-89249525D01*
X130579882Y-89278949D01*
X130605490Y-89314494D01*
X130620866Y-89356272D01*
X130626311Y-89407184D01*
X130622013Y-89454453D01*
X130609947Y-89493401D01*
X130590092Y-89527508D01*
X130563846Y-89555317D01*
X130531775Y-89576994D01*
X130493443Y-89592930D01*
X130451537Y-89602353D01*
X130404295Y-89605631D01*
X130347546Y-89599845D01*
X130297377Y-89583039D01*
X130252036Y-89556151D01*
X130211648Y-89520146D01*
X130211648Y-89568628D01*
X130205847Y-89583710D01*
X130186064Y-89591526D01*
X130141306Y-89593907D01*
X130097953Y-89591526D01*
X130076399Y-89583710D01*
X130069560Y-89568628D01*
X130069560Y-89412252D01*
X130238271Y-89412252D01*
X130270619Y-89444429D01*
X130300125Y-89466107D01*
X130331906Y-89479870D01*
X130366742Y-89484487D01*
X130406302Y-89478635D01*
X130434031Y-89462688D01*
X130451956Y-89437408D01*
X130458272Y-89402665D01*
X130456054Y-89381105D01*
X130449724Y-89362854D01*
X130438926Y-89346980D01*
X130422735Y-89333178D01*
X130402501Y-89322812D01*
X130374924Y-89314799D01*
X130344011Y-89310311D01*
X130303850Y-89308632D01*
X130238271Y-89308632D01*
X130238271Y-89412252D01*
X130069560Y-89412252D01*
X130069560Y-89158483D01*
X130073580Y-89097989D01*
X130084581Y-89049795D01*
X130104327Y-89007741D01*
X130132391Y-88974935D01*
X130168736Y-88950147D01*
X130216106Y-88931887D01*
X130269711Y-88921645D01*
X130338715Y-88917843D01*
X130416934Y-88924499D01*
G37*
G36*
X129726391Y-88925728D02*
G01*
X129774392Y-88937138D01*
X129818053Y-88956210D01*
X129854321Y-88981591D01*
X129883995Y-89013679D01*
X129906589Y-89052604D01*
X129920475Y-89096566D01*
X129925334Y-89147920D01*
X129921447Y-89195402D01*
X129910985Y-89231268D01*
X129894069Y-89262602D01*
X129872700Y-89288665D01*
X129899478Y-89317076D01*
X129920572Y-89348443D01*
X129934333Y-89383112D01*
X129939012Y-89421899D01*
X129934977Y-89452826D01*
X129922953Y-89481067D01*
X129903731Y-89505077D01*
X129877524Y-89523749D01*
X129915137Y-89556538D01*
X129942798Y-89592381D01*
X129959834Y-89631704D01*
X129965635Y-89674752D01*
X129961569Y-89709721D01*
X129949576Y-89741369D01*
X129929335Y-89769027D01*
X129898346Y-89793637D01*
X129860034Y-89812409D01*
X129808220Y-89827770D01*
X129750316Y-89836751D01*
X129675291Y-89840104D01*
X129598119Y-89835529D01*
X129535584Y-89822946D01*
X129479390Y-89802073D01*
X129436238Y-89776418D01*
X129401206Y-89743903D01*
X129376826Y-89706931D01*
X129361957Y-89665701D01*
X129358039Y-89631093D01*
X129529111Y-89631093D01*
X129535950Y-89664982D01*
X129544925Y-89679995D01*
X129559214Y-89694108D01*
X129577357Y-89705446D01*
X129602201Y-89714991D01*
X129630444Y-89720718D01*
X129667780Y-89722868D01*
X129726608Y-89717823D01*
X129765111Y-89705038D01*
X129784808Y-89690817D01*
X129795863Y-89673803D01*
X129799610Y-89653014D01*
X129797595Y-89631765D01*
X129789047Y-89610577D01*
X129772011Y-89587679D01*
X129743618Y-89562644D01*
X129621313Y-89566064D01*
X129581284Y-89571637D01*
X129553719Y-89583893D01*
X129535329Y-89603780D01*
X129529111Y-89631093D01*
X129358039Y-89631093D01*
X129356981Y-89621751D01*
X129360798Y-89582205D01*
X129371697Y-89548478D01*
X129389563Y-89518671D01*
X129414012Y-89493401D01*
X129444201Y-89473401D01*
X129482339Y-89457803D01*
X129524589Y-89447966D01*
X129574907Y-89443087D01*
X129723101Y-89437592D01*
X129752266Y-89433102D01*
X129772011Y-89423731D01*
X129785165Y-89409191D01*
X129789413Y-89391491D01*
X129782941Y-89364319D01*
X129768225Y-89343314D01*
X129727254Y-89360106D01*
X129671200Y-89367250D01*
X129615428Y-89363440D01*
X129567030Y-89352595D01*
X129523086Y-89334164D01*
X129487102Y-89309548D01*
X129457900Y-89278045D01*
X129436238Y-89239816D01*
X129423102Y-89196488D01*
X129418469Y-89145172D01*
X129418797Y-89142913D01*
X129569412Y-89142913D01*
X129575945Y-89182175D01*
X129595057Y-89215331D01*
X129609150Y-89228036D01*
X129626809Y-89237923D01*
X129646997Y-89243943D01*
X129671871Y-89246106D01*
X129703156Y-89242822D01*
X129727975Y-89233689D01*
X129747770Y-89219117D01*
X129762598Y-89199564D01*
X129771789Y-89175492D01*
X129775064Y-89145600D01*
X129768897Y-89104933D01*
X129761050Y-89086548D01*
X129750090Y-89070800D01*
X129735981Y-89057735D01*
X129718339Y-89047536D01*
X129698210Y-89041227D01*
X129673948Y-89038988D01*
X129641783Y-89042341D01*
X129616581Y-89051619D01*
X129596767Y-89066343D01*
X129582011Y-89086180D01*
X129572748Y-89111203D01*
X129569412Y-89142913D01*
X129418797Y-89142913D01*
X129424942Y-89100659D01*
X129433537Y-89080443D01*
X129446435Y-89062435D01*
X129374750Y-89062435D01*
X129365280Y-89059034D01*
X129356310Y-89046864D01*
X129351005Y-89028983D01*
X129348799Y-88998627D01*
X129350978Y-88965976D01*
X129356004Y-88948435D01*
X129364741Y-88936845D01*
X129374750Y-88933475D01*
X129568068Y-88933475D01*
X129616917Y-88924865D01*
X129671871Y-88921751D01*
X129726391Y-88925728D01*
G37*
G36*
X129043941Y-88924049D02*
G01*
X129104129Y-88941779D01*
X129157645Y-88971220D01*
X129202131Y-89011205D01*
X129237185Y-89060770D01*
X129263620Y-89121969D01*
X129279281Y-89189691D01*
X129284808Y-89268576D01*
X129279440Y-89350976D01*
X129264658Y-89417625D01*
X129238802Y-89476582D01*
X129203536Y-89522894D01*
X129158142Y-89558925D01*
X129101442Y-89585115D01*
X129037346Y-89600193D01*
X128958988Y-89605631D01*
X128874296Y-89599891D01*
X128803954Y-89586519D01*
X128753396Y-89570704D01*
X128729155Y-89557821D01*
X128721950Y-89547807D01*
X128717859Y-89535045D01*
X128715783Y-89516788D01*
X128715111Y-89490898D01*
X128716149Y-89462322D01*
X128719935Y-89444736D01*
X128726713Y-89436127D01*
X128736971Y-89433684D01*
X128763654Y-89440401D01*
X128804931Y-89455177D01*
X128864038Y-89470015D01*
X128899548Y-89474891D01*
X128943234Y-89476671D01*
X128985853Y-89473529D01*
X129019438Y-89464947D01*
X129048663Y-89450259D01*
X129071339Y-89430753D01*
X129088576Y-89406222D01*
X129100710Y-89376226D01*
X129107528Y-89343033D01*
X129109930Y-89304724D01*
X128738986Y-89304724D01*
X128716630Y-89300790D01*
X128700457Y-89289703D01*
X128690330Y-89271883D01*
X128686413Y-89243297D01*
X128686413Y-89216003D01*
X128687811Y-89195303D01*
X128853108Y-89195303D01*
X129109930Y-89195303D01*
X129106735Y-89163581D01*
X129100038Y-89134364D01*
X129089428Y-89107313D01*
X129075430Y-89084783D01*
X129057398Y-89065990D01*
X129035130Y-89051383D01*
X129009417Y-89042233D01*
X128978100Y-89038988D01*
X128936883Y-89044076D01*
X128905714Y-89058105D01*
X128882112Y-89080692D01*
X128865818Y-89110045D01*
X128855803Y-89147508D01*
X128853108Y-89195303D01*
X128687811Y-89195303D01*
X128690639Y-89153409D01*
X128702838Y-89097301D01*
X128724057Y-89045969D01*
X128754068Y-89002840D01*
X128793182Y-88967661D01*
X128843217Y-88940375D01*
X128900843Y-88923865D01*
X128974009Y-88917843D01*
X129043941Y-88924049D01*
G37*
G36*
X147494822Y-86683554D02*
G01*
X147511946Y-86695383D01*
X147532768Y-86695912D01*
X147564128Y-86683306D01*
X147612504Y-86656575D01*
X147652879Y-86632841D01*
X147680686Y-86614813D01*
X147697919Y-86600209D01*
X147706926Y-86587112D01*
X147709648Y-86574119D01*
X147707314Y-86558474D01*
X147543875Y-85749291D01*
X147532994Y-85710660D01*
X147525681Y-85699954D01*
X147516325Y-85695466D01*
X147504647Y-85695956D01*
X147486780Y-85702300D01*
X147436217Y-85729518D01*
X147394298Y-85755342D01*
X147373042Y-85773113D01*
X147366613Y-85788600D01*
X147368891Y-85806956D01*
X147522985Y-86504211D01*
X147522404Y-86504547D01*
X147000863Y-86023386D01*
X146985567Y-86010571D01*
X146967840Y-86007832D01*
X146940534Y-86017323D01*
X146896047Y-86041385D01*
X146854834Y-86067577D01*
X146843267Y-86078703D01*
X146839051Y-86088112D01*
X146839911Y-86097913D01*
X146846590Y-86109353D01*
X146874820Y-86137121D01*
X147494822Y-86683554D01*
G37*
G36*
X146726768Y-86159002D02*
G01*
X146744545Y-86167633D01*
X146761717Y-86188884D01*
X147146644Y-86855596D01*
X147156462Y-86881093D01*
X147155048Y-86900804D01*
X147145328Y-86917840D01*
X147128812Y-86931322D01*
X146925329Y-87048803D01*
X146879386Y-87073361D01*
X146838384Y-87091527D01*
X146797390Y-87105546D01*
X146757638Y-87114949D01*
X146717825Y-87119835D01*
X146679582Y-87119825D01*
X146642279Y-87114461D01*
X146607006Y-87103418D01*
X146573858Y-87086478D01*
X146542199Y-87062854D01*
X146514051Y-87033356D01*
X146488285Y-86995483D01*
X146469581Y-86955987D01*
X146459555Y-86918367D01*
X146456584Y-86880665D01*
X146460221Y-86845149D01*
X146464595Y-86830179D01*
X146634661Y-86830179D01*
X146634790Y-86855762D01*
X146640819Y-86881393D01*
X146653261Y-86908272D01*
X146669681Y-86931201D01*
X146688443Y-86947961D01*
X146709926Y-86959798D01*
X146732930Y-86966273D01*
X146757042Y-86967658D01*
X146782914Y-86964066D01*
X146809283Y-86955404D01*
X146841500Y-86939266D01*
X146953923Y-86874359D01*
X146828871Y-86657762D01*
X146736595Y-86711037D01*
X146697252Y-86736608D01*
X146671802Y-86758669D01*
X146652439Y-86782595D01*
X146640596Y-86805735D01*
X146634661Y-86830179D01*
X146464595Y-86830179D01*
X146470156Y-86811144D01*
X146486171Y-86779331D01*
X146507514Y-86750377D01*
X146534252Y-86724003D01*
X146503615Y-86726939D01*
X146474638Y-86725283D01*
X146446693Y-86719234D01*
X146420732Y-86709096D01*
X146396669Y-86694900D01*
X146374288Y-86676402D01*
X146354488Y-86654387D01*
X146336924Y-86628173D01*
X146314154Y-86577953D01*
X146304836Y-86531561D01*
X146306990Y-86488446D01*
X146485125Y-86488446D01*
X146485989Y-86510593D01*
X146491817Y-86532795D01*
X146502900Y-86556248D01*
X146532211Y-86591994D01*
X146550606Y-86604829D01*
X146570939Y-86613278D01*
X146592798Y-86617082D01*
X146617060Y-86615981D01*
X146642306Y-86609067D01*
X146675502Y-86592886D01*
X146762437Y-86542694D01*
X146647154Y-86343019D01*
X146568468Y-86388448D01*
X146535318Y-86410053D01*
X146514615Y-86428283D01*
X146499136Y-86448092D01*
X146489623Y-86467672D01*
X146485125Y-86488446D01*
X146306990Y-86488446D01*
X146307132Y-86485602D01*
X146321005Y-86441354D01*
X146345424Y-86399975D01*
X146382595Y-86358133D01*
X146429171Y-86319758D01*
X146494948Y-86277472D01*
X146687221Y-86166464D01*
X146707154Y-86158901D01*
X146726768Y-86159002D01*
G37*
G36*
X145706379Y-87372743D02*
G01*
X145751034Y-87437600D01*
X145799771Y-87486630D01*
X145855371Y-87523348D01*
X145914941Y-87545427D01*
X145978482Y-87553269D01*
X146048122Y-87546515D01*
X146118427Y-87525659D01*
X146195731Y-87488086D01*
X146262991Y-87442963D01*
X146314930Y-87395224D01*
X146355222Y-87341243D01*
X146380427Y-87284575D01*
X146391580Y-87223877D01*
X146388302Y-87158264D01*
X146370546Y-87091850D01*
X146335442Y-87018226D01*
X146066928Y-86553145D01*
X146057279Y-86544615D01*
X146040130Y-86544222D01*
X146013405Y-86553376D01*
X145974505Y-86573438D01*
X145938262Y-86596760D01*
X145917289Y-86615144D01*
X145909025Y-86630139D01*
X145911301Y-86642996D01*
X146171542Y-87093746D01*
X146193807Y-87139223D01*
X146205822Y-87179010D01*
X146209698Y-87218047D01*
X146205408Y-87252788D01*
X146193437Y-87285103D01*
X146174048Y-87314608D01*
X146148301Y-87340236D01*
X146114977Y-87363237D01*
X146077839Y-87380784D01*
X146042828Y-87389945D01*
X146007886Y-87391590D01*
X145974857Y-87385544D01*
X145943585Y-87372052D01*
X145913111Y-87350404D01*
X145886045Y-87322188D01*
X145860765Y-87285019D01*
X145595395Y-86825385D01*
X145585716Y-86816801D01*
X145568862Y-86816308D01*
X145542190Y-86825432D01*
X145503607Y-86845311D01*
X145467682Y-86868449D01*
X145447026Y-86886650D01*
X145439057Y-86901545D01*
X145441620Y-86914167D01*
X145706379Y-87372743D01*
G37*
G36*
X145118311Y-87786297D02*
G01*
X145157504Y-87840642D01*
X145201876Y-87879135D01*
X145252654Y-87905650D01*
X145306689Y-87919869D01*
X145363122Y-87922481D01*
X145423024Y-87913762D01*
X145482267Y-87894783D01*
X145541921Y-87865563D01*
X145579833Y-87841505D01*
X145611950Y-87816742D01*
X145663299Y-87767072D01*
X145696081Y-87723468D01*
X145711390Y-87691855D01*
X145712689Y-87679488D01*
X145709666Y-87663590D01*
X145688681Y-87619794D01*
X145669688Y-87589583D01*
X145654165Y-87571612D01*
X145640729Y-87564704D01*
X145628472Y-87567409D01*
X145620759Y-87574421D01*
X145610594Y-87590422D01*
X145583976Y-87633711D01*
X145539568Y-87687341D01*
X145509307Y-87714083D01*
X145468991Y-87740709D01*
X145440433Y-87754830D01*
X145414212Y-87763311D01*
X145388200Y-87767106D01*
X145364973Y-87766075D01*
X145343115Y-87760174D01*
X145323280Y-87749182D01*
X145306079Y-87733639D01*
X145291408Y-87713152D01*
X145280937Y-87686582D01*
X145279866Y-87660308D01*
X145285883Y-87633785D01*
X145297717Y-87605865D01*
X145333794Y-87548795D01*
X145378039Y-87487433D01*
X145419200Y-87420729D01*
X145435208Y-87385060D01*
X145446057Y-87347690D01*
X145450830Y-87308833D01*
X145448735Y-87266965D01*
X145438132Y-87224595D01*
X145415463Y-87176607D01*
X145379723Y-87126998D01*
X145339272Y-87091780D01*
X145293021Y-87067372D01*
X145244343Y-87054364D01*
X145193399Y-87052090D01*
X145138974Y-87060415D01*
X145085105Y-87078005D01*
X145031449Y-87104374D01*
X144979386Y-87139862D01*
X144934835Y-87180178D01*
X144901802Y-87220050D01*
X144885887Y-87248416D01*
X144883642Y-87262967D01*
X144886396Y-87276043D01*
X144894287Y-87294472D01*
X144908604Y-87320614D01*
X144926325Y-87349231D01*
X144940613Y-87367140D01*
X144953069Y-87375037D01*
X144965426Y-87372627D01*
X144981515Y-87352621D01*
X145006249Y-87314862D01*
X145044228Y-87269879D01*
X145068874Y-87247915D01*
X145099411Y-87227584D01*
X145124871Y-87215080D01*
X145147349Y-87208156D01*
X145169405Y-87205417D01*
X145188825Y-87206843D01*
X145206825Y-87212398D01*
X145222807Y-87221983D01*
X145247618Y-87250668D01*
X145257907Y-87276702D01*
X145259142Y-87302746D01*
X145253210Y-87329149D01*
X145240974Y-87357373D01*
X145203733Y-87415115D01*
X145158906Y-87476813D01*
X145117163Y-87543852D01*
X145100637Y-87579851D01*
X145089460Y-87617380D01*
X145084385Y-87656396D01*
X145086313Y-87698024D01*
X145096546Y-87739908D01*
X145118311Y-87786297D01*
G37*
M02*
