%TF.GenerationSoftware,KiCad,Pcbnew,9.0.1*%
%TF.CreationDate,2026-09-05T14:03:46+03:00*%
%TF.ProjectId,12-3v3-buck,31322d33-7633-42d6-9275-636b2e6b6963,rev?*%
%TF.SameCoordinates,Original*%
%TF.FileFunction,Copper,L2,Bot*%
%TF.FilePolarity,Positive*%
%FSLAX46Y46*%
G04 Gerber Fmt 4.6, Leading zero omitted, Abs format (unit mm)*
G04 Created by KiCad (PCBNEW 9.0.1) date 2026-09-05 14:03:46*
%MOMM*%
%LPD*%
G01*
G04 APERTURE LIST*
%TA.AperFunction,ComponentPad*%
%ADD10C,2.000000*%
%TD*%
%TA.AperFunction,ComponentPad*%
%ADD11R,1.700000X1.700000*%
%TD*%
%TA.AperFunction,ComponentPad*%
%ADD12C,1.700000*%
%TD*%
%TA.AperFunction,WasherPad*%
%ADD13O,1.905000X1.117600*%
%TD*%
%TA.AperFunction,WasherPad*%
%ADD14O,2.209800X1.117600*%
%TD*%
%TA.AperFunction,ViaPad*%
%ADD15C,2.000000*%
%TD*%
%TA.AperFunction,ViaPad*%
%ADD16C,0.600000*%
%TD*%
%TA.AperFunction,Conductor*%
%ADD17C,0.200000*%
%TD*%
G04 APERTURE END LIST*
D10*
%TO.P,U1,1,1*%
%TO.N,Net-(R4-Pad1)*%
X143650000Y-82340000D03*
%TO.P,U1,2,2*%
%TO.N,Net-(R5-Pad1)*%
X141110000Y-82340000D03*
%TO.P,U1,3,3*%
%TO.N,Net-(R6-Pad1)*%
X138570000Y-82340000D03*
%TO.P,U1,4,4*%
%TO.N,Net-(R7-Pad1)*%
X136030000Y-82340000D03*
%TO.P,U1,5,C*%
%TO.N,Vout*%
X141110000Y-89960000D03*
%TD*%
D11*
%TO.P,J2,1,Pin_1*%
%TO.N,GNDREF*%
X149370000Y-81140000D03*
D12*
%TO.P,J2,2,Pin_2*%
%TO.N,Vout*%
X149370000Y-83680000D03*
%TO.P,J2,3,Pin_3*%
%TO.N,VBUS*%
X149370000Y-86220000D03*
%TD*%
D13*
%TO.P,J1,*%
%TO.N,*%
X112569000Y-79359968D03*
D14*
X116719000Y-79359998D03*
X116719000Y-88000002D03*
D13*
X112569000Y-88000032D03*
%TD*%
D15*
%TO.N,GNDREF*%
X152090000Y-76520000D03*
D16*
X138231660Y-84761346D03*
X133200000Y-91850000D03*
X121757035Y-91465775D03*
X115910000Y-80500000D03*
X145363902Y-89673605D03*
D15*
X152090000Y-94100000D03*
D16*
X149311192Y-79052005D03*
X118880000Y-88210000D03*
X118600382Y-90637545D03*
D15*
X110790000Y-76520000D03*
D16*
X126540000Y-84020000D03*
D15*
X110790000Y-94100000D03*
D16*
X121335106Y-87371503D03*
X111960000Y-83180000D03*
X123913560Y-85324367D03*
X118800000Y-76430000D03*
X122718783Y-76570294D03*
X125820000Y-77790000D03*
X132915395Y-79430034D03*
X147080000Y-81140000D03*
%TO.N,Net-(J1-CC2)*%
X115980000Y-85060000D03*
X114370000Y-89080000D03*
%TO.N,Net-(J1-CC1)*%
X114580000Y-78490000D03*
X116250000Y-82440000D03*
%TD*%
D17*
%TO.N,Net-(J1-CC2)*%
X115980000Y-85460000D02*
X114400000Y-87040000D01*
X114400000Y-87040000D02*
X114400000Y-89050000D01*
X114400000Y-89050000D02*
X114370000Y-89080000D01*
X115980000Y-85060000D02*
X115980000Y-85460000D01*
%TO.N,Net-(J1-CC1)*%
X114580000Y-80770000D02*
X114580000Y-78490000D01*
X116250000Y-82440000D02*
X114580000Y-80770000D01*
%TD*%
%TA.AperFunction,Conductor*%
%TO.N,GNDREF*%
G36*
X153032539Y-75540185D02*
G01*
X153078294Y-75592989D01*
X153089500Y-75644500D01*
X153089500Y-94975500D01*
X153069815Y-95042539D01*
X153017011Y-95088294D01*
X152965500Y-95099500D01*
X109914500Y-95099500D01*
X109847461Y-95079815D01*
X109801706Y-95027011D01*
X109790500Y-94975500D01*
X109790500Y-89861577D01*
X139859500Y-89861577D01*
X139859500Y-90058422D01*
X139890290Y-90252826D01*
X139951117Y-90440029D01*
X140040476Y-90615405D01*
X140156172Y-90774646D01*
X140295354Y-90913828D01*
X140454595Y-91029524D01*
X140537455Y-91071743D01*
X140629970Y-91118882D01*
X140629972Y-91118882D01*
X140629975Y-91118884D01*
X140730317Y-91151487D01*
X140817173Y-91179709D01*
X141011578Y-91210500D01*
X141011583Y-91210500D01*
X141208422Y-91210500D01*
X141402826Y-91179709D01*
X141590025Y-91118884D01*
X141765405Y-91029524D01*
X141924646Y-90913828D01*
X142063828Y-90774646D01*
X142179524Y-90615405D01*
X142268884Y-90440025D01*
X142329709Y-90252826D01*
X142360500Y-90058422D01*
X142360500Y-89861577D01*
X142329709Y-89667173D01*
X142268882Y-89479970D01*
X142179523Y-89304594D01*
X142063828Y-89145354D01*
X141924646Y-89006172D01*
X141765405Y-88890476D01*
X141590029Y-88801117D01*
X141402826Y-88740290D01*
X141208422Y-88709500D01*
X141208417Y-88709500D01*
X141011583Y-88709500D01*
X141011578Y-88709500D01*
X140817173Y-88740290D01*
X140629970Y-88801117D01*
X140454594Y-88890476D01*
X140363741Y-88956485D01*
X140295354Y-89006172D01*
X140295352Y-89006174D01*
X140295351Y-89006174D01*
X140156174Y-89145351D01*
X140156174Y-89145352D01*
X140156172Y-89145354D01*
X140106485Y-89213741D01*
X140040476Y-89304594D01*
X139951117Y-89479970D01*
X139890290Y-89667173D01*
X139859500Y-89861577D01*
X109790500Y-89861577D01*
X109790500Y-89007525D01*
X113819500Y-89007525D01*
X113819500Y-89152475D01*
X113857016Y-89292485D01*
X113857017Y-89292488D01*
X113929488Y-89418011D01*
X113929490Y-89418013D01*
X113929491Y-89418015D01*
X114031985Y-89520509D01*
X114031986Y-89520510D01*
X114031988Y-89520511D01*
X114157511Y-89592982D01*
X114157512Y-89592982D01*
X114157515Y-89592984D01*
X114297525Y-89630500D01*
X114297528Y-89630500D01*
X114442472Y-89630500D01*
X114442475Y-89630500D01*
X114582485Y-89592984D01*
X114708015Y-89520509D01*
X114810509Y-89418015D01*
X114882984Y-89292485D01*
X114920500Y-89152475D01*
X114920500Y-89007525D01*
X114882984Y-88867515D01*
X114849391Y-88809331D01*
X114810511Y-88741988D01*
X114810506Y-88741982D01*
X114786819Y-88718295D01*
X114753334Y-88656972D01*
X114750500Y-88630614D01*
X114750500Y-87920288D01*
X115363600Y-87920288D01*
X115363600Y-88079715D01*
X115394699Y-88236058D01*
X115394701Y-88236066D01*
X115455706Y-88383346D01*
X115455711Y-88383355D01*
X115544275Y-88515900D01*
X115544278Y-88515904D01*
X115656997Y-88628623D01*
X115657001Y-88628626D01*
X115789546Y-88717190D01*
X115789555Y-88717195D01*
X115792211Y-88718295D01*
X115936836Y-88778201D01*
X116093186Y-88809301D01*
X116093189Y-88809302D01*
X116093191Y-88809302D01*
X117344811Y-88809302D01*
X117344812Y-88809301D01*
X117501164Y-88778201D01*
X117648447Y-88717194D01*
X117780999Y-88628626D01*
X117893724Y-88515901D01*
X117982292Y-88383349D01*
X118043299Y-88236066D01*
X118074400Y-88079711D01*
X118074400Y-87920293D01*
X118074400Y-87920290D01*
X118074399Y-87920288D01*
X118043305Y-87763968D01*
X118043299Y-87763938D01*
X117982305Y-87616687D01*
X117982293Y-87616657D01*
X117982288Y-87616648D01*
X117893724Y-87484103D01*
X117893721Y-87484099D01*
X117781002Y-87371380D01*
X117780998Y-87371377D01*
X117648453Y-87282813D01*
X117648444Y-87282808D01*
X117501164Y-87221803D01*
X117501156Y-87221801D01*
X117344812Y-87190702D01*
X117344809Y-87190702D01*
X116093191Y-87190702D01*
X116093188Y-87190702D01*
X115936843Y-87221801D01*
X115936835Y-87221803D01*
X115789555Y-87282808D01*
X115789546Y-87282813D01*
X115657001Y-87371377D01*
X115656997Y-87371380D01*
X115544278Y-87484099D01*
X115544275Y-87484103D01*
X115455711Y-87616648D01*
X115455706Y-87616657D01*
X115394701Y-87763937D01*
X115394699Y-87763945D01*
X115363600Y-87920288D01*
X114750500Y-87920288D01*
X114750500Y-87236543D01*
X114770185Y-87169504D01*
X114786819Y-87148862D01*
X115802292Y-86133389D01*
X148269500Y-86133389D01*
X148269500Y-86306611D01*
X148296598Y-86477701D01*
X148350127Y-86642445D01*
X148428768Y-86796788D01*
X148530586Y-86936928D01*
X148653072Y-87059414D01*
X148793212Y-87161232D01*
X148947555Y-87239873D01*
X149112299Y-87293402D01*
X149283389Y-87320500D01*
X149283390Y-87320500D01*
X149456610Y-87320500D01*
X149456611Y-87320500D01*
X149627701Y-87293402D01*
X149792445Y-87239873D01*
X149946788Y-87161232D01*
X150086928Y-87059414D01*
X150209414Y-86936928D01*
X150311232Y-86796788D01*
X150389873Y-86642445D01*
X150443402Y-86477701D01*
X150470500Y-86306611D01*
X150470500Y-86133389D01*
X150443402Y-85962299D01*
X150389873Y-85797555D01*
X150311232Y-85643212D01*
X150209414Y-85503072D01*
X150086928Y-85380586D01*
X149946788Y-85278768D01*
X149792445Y-85200127D01*
X149627701Y-85146598D01*
X149627699Y-85146597D01*
X149627698Y-85146597D01*
X149496271Y-85125781D01*
X149456611Y-85119500D01*
X149283389Y-85119500D01*
X149243728Y-85125781D01*
X149112302Y-85146597D01*
X148947552Y-85200128D01*
X148793211Y-85278768D01*
X148736552Y-85319934D01*
X148653072Y-85380586D01*
X148653070Y-85380588D01*
X148653069Y-85380588D01*
X148530588Y-85503069D01*
X148530588Y-85503070D01*
X148530586Y-85503072D01*
X148486859Y-85563256D01*
X148428768Y-85643211D01*
X148350128Y-85797552D01*
X148296597Y-85962302D01*
X148284159Y-86040836D01*
X148269500Y-86133389D01*
X115802292Y-86133389D01*
X115894845Y-86040836D01*
X115973382Y-85962299D01*
X116260469Y-85675212D01*
X116306614Y-85595288D01*
X116312590Y-85572984D01*
X116328534Y-85513480D01*
X116328553Y-85513448D01*
X116360623Y-85457900D01*
X116420509Y-85398015D01*
X116492984Y-85272485D01*
X116530500Y-85132475D01*
X116530500Y-84987525D01*
X116492984Y-84847515D01*
X116420509Y-84721985D01*
X116318015Y-84619491D01*
X116318013Y-84619490D01*
X116318011Y-84619488D01*
X116192488Y-84547017D01*
X116192489Y-84547017D01*
X116181006Y-84543940D01*
X116052475Y-84509500D01*
X115907525Y-84509500D01*
X115778993Y-84543940D01*
X115767511Y-84547017D01*
X115641988Y-84619488D01*
X115641982Y-84619493D01*
X115539493Y-84721982D01*
X115539488Y-84721988D01*
X115467017Y-84847511D01*
X115467016Y-84847515D01*
X115429500Y-84987525D01*
X115429500Y-85132475D01*
X115447628Y-85200127D01*
X115467017Y-85272487D01*
X115494410Y-85319934D01*
X115510882Y-85387834D01*
X115488029Y-85453861D01*
X115474703Y-85469614D01*
X114119532Y-86824785D01*
X114119528Y-86824791D01*
X114084718Y-86885084D01*
X114084717Y-86885083D01*
X114073389Y-86904705D01*
X114073386Y-86904712D01*
X114049500Y-86993856D01*
X114049500Y-88570613D01*
X114029815Y-88637652D01*
X114013182Y-88658294D01*
X113929488Y-88741988D01*
X113857017Y-88867511D01*
X113857016Y-88867515D01*
X113819500Y-89007525D01*
X109790500Y-89007525D01*
X109790500Y-87920318D01*
X111366000Y-87920318D01*
X111366000Y-88079745D01*
X111397099Y-88236088D01*
X111397101Y-88236096D01*
X111458106Y-88383376D01*
X111458111Y-88383385D01*
X111546675Y-88515930D01*
X111546678Y-88515934D01*
X111659397Y-88628653D01*
X111659401Y-88628656D01*
X111791946Y-88717220D01*
X111791955Y-88717225D01*
X111825319Y-88731044D01*
X111939236Y-88778231D01*
X112095435Y-88809301D01*
X112095586Y-88809331D01*
X112095589Y-88809332D01*
X112095591Y-88809332D01*
X113042411Y-88809332D01*
X113042412Y-88809331D01*
X113198764Y-88778231D01*
X113346047Y-88717224D01*
X113478599Y-88628656D01*
X113591324Y-88515931D01*
X113679892Y-88383379D01*
X113740899Y-88236096D01*
X113772000Y-88079741D01*
X113772000Y-87920323D01*
X113772000Y-87920320D01*
X113771999Y-87920318D01*
X113740900Y-87763975D01*
X113740899Y-87763968D01*
X113679892Y-87616685D01*
X113679891Y-87616684D01*
X113679888Y-87616678D01*
X113591324Y-87484133D01*
X113591321Y-87484129D01*
X113478602Y-87371410D01*
X113478598Y-87371407D01*
X113346053Y-87282843D01*
X113346044Y-87282838D01*
X113198764Y-87221833D01*
X113198756Y-87221831D01*
X113042412Y-87190732D01*
X113042409Y-87190732D01*
X112095591Y-87190732D01*
X112095588Y-87190732D01*
X111939243Y-87221831D01*
X111939235Y-87221833D01*
X111791955Y-87282838D01*
X111791946Y-87282843D01*
X111659401Y-87371407D01*
X111659397Y-87371410D01*
X111546678Y-87484129D01*
X111546675Y-87484133D01*
X111458111Y-87616678D01*
X111458106Y-87616687D01*
X111397101Y-87763967D01*
X111397099Y-87763975D01*
X111366000Y-87920318D01*
X109790500Y-87920318D01*
X109790500Y-83593389D01*
X148269500Y-83593389D01*
X148269500Y-83766611D01*
X148296598Y-83937701D01*
X148350127Y-84102445D01*
X148428768Y-84256788D01*
X148530586Y-84396928D01*
X148653072Y-84519414D01*
X148793212Y-84621232D01*
X148947555Y-84699873D01*
X149112299Y-84753402D01*
X149283389Y-84780500D01*
X149283390Y-84780500D01*
X149456610Y-84780500D01*
X149456611Y-84780500D01*
X149627701Y-84753402D01*
X149792445Y-84699873D01*
X149946788Y-84621232D01*
X150086928Y-84519414D01*
X150209414Y-84396928D01*
X150311232Y-84256788D01*
X150389873Y-84102445D01*
X150443402Y-83937701D01*
X150470500Y-83766611D01*
X150470500Y-83593389D01*
X150443402Y-83422299D01*
X150389873Y-83257555D01*
X150311232Y-83103212D01*
X150209414Y-82963072D01*
X150086928Y-82840586D01*
X149946788Y-82738768D01*
X149792445Y-82660127D01*
X149627701Y-82606598D01*
X149627699Y-82606597D01*
X149627698Y-82606597D01*
X149496271Y-82585781D01*
X149456611Y-82579500D01*
X149283389Y-82579500D01*
X149243728Y-82585781D01*
X149112302Y-82606597D01*
X149112299Y-82606598D01*
X148971075Y-82652485D01*
X148947552Y-82660128D01*
X148793211Y-82738768D01*
X148713256Y-82796859D01*
X148653072Y-82840586D01*
X148653070Y-82840588D01*
X148653069Y-82840588D01*
X148530588Y-82963069D01*
X148530588Y-82963070D01*
X148530586Y-82963072D01*
X148507096Y-82995403D01*
X148428768Y-83103211D01*
X148350128Y-83257552D01*
X148296597Y-83422302D01*
X148284468Y-83498882D01*
X148269500Y-83593389D01*
X109790500Y-83593389D01*
X109790500Y-79280254D01*
X111366000Y-79280254D01*
X111366000Y-79439681D01*
X111397099Y-79596024D01*
X111397101Y-79596032D01*
X111458106Y-79743312D01*
X111458111Y-79743321D01*
X111546675Y-79875866D01*
X111546678Y-79875870D01*
X111659397Y-79988589D01*
X111659401Y-79988592D01*
X111791946Y-80077156D01*
X111791955Y-80077161D01*
X111825319Y-80090980D01*
X111939236Y-80138167D01*
X112095586Y-80169267D01*
X112095589Y-80169268D01*
X112095591Y-80169268D01*
X113042411Y-80169268D01*
X113042412Y-80169267D01*
X113198764Y-80138167D01*
X113346047Y-80077160D01*
X113478599Y-79988592D01*
X113591324Y-79875867D01*
X113679892Y-79743315D01*
X113740899Y-79596032D01*
X113772000Y-79439677D01*
X113772000Y-79280259D01*
X113772000Y-79280256D01*
X113771999Y-79280254D01*
X113740905Y-79123934D01*
X113740899Y-79123904D01*
X113679905Y-78976653D01*
X113679893Y-78976623D01*
X113679888Y-78976614D01*
X113591324Y-78844069D01*
X113591321Y-78844065D01*
X113478602Y-78731346D01*
X113478598Y-78731343D01*
X113346053Y-78642779D01*
X113346044Y-78642774D01*
X113198764Y-78581769D01*
X113198756Y-78581767D01*
X113042412Y-78550668D01*
X113042409Y-78550668D01*
X112095591Y-78550668D01*
X112095588Y-78550668D01*
X111939243Y-78581767D01*
X111939235Y-78581769D01*
X111791955Y-78642774D01*
X111791946Y-78642779D01*
X111659401Y-78731343D01*
X111659397Y-78731346D01*
X111546678Y-78844065D01*
X111546675Y-78844069D01*
X111458111Y-78976614D01*
X111458106Y-78976623D01*
X111397101Y-79123903D01*
X111397099Y-79123911D01*
X111366000Y-79280254D01*
X109790500Y-79280254D01*
X109790500Y-78417525D01*
X114029500Y-78417525D01*
X114029500Y-78562475D01*
X114051025Y-78642806D01*
X114067017Y-78702488D01*
X114139488Y-78828011D01*
X114139493Y-78828017D01*
X114193181Y-78881705D01*
X114226666Y-78943028D01*
X114229500Y-78969386D01*
X114229500Y-80816143D01*
X114253386Y-80905287D01*
X114253387Y-80905290D01*
X114299527Y-80985208D01*
X114299531Y-80985213D01*
X115663181Y-82348863D01*
X115696666Y-82410186D01*
X115699500Y-82436544D01*
X115699500Y-82512475D01*
X115737016Y-82652485D01*
X115737017Y-82652488D01*
X115809488Y-82778011D01*
X115809490Y-82778013D01*
X115809491Y-82778015D01*
X115911985Y-82880509D01*
X115911986Y-82880510D01*
X115911988Y-82880511D01*
X116037511Y-82952982D01*
X116037512Y-82952982D01*
X116037515Y-82952984D01*
X116177525Y-82990500D01*
X116177528Y-82990500D01*
X116322472Y-82990500D01*
X116322475Y-82990500D01*
X116462485Y-82952984D01*
X116588015Y-82880509D01*
X116690509Y-82778015D01*
X116762984Y-82652485D01*
X116800500Y-82512475D01*
X116800500Y-82367525D01*
X116766752Y-82241577D01*
X134779500Y-82241577D01*
X134779500Y-82438422D01*
X134810290Y-82632826D01*
X134871117Y-82820029D01*
X134957977Y-82990500D01*
X134960476Y-82995405D01*
X135076172Y-83154646D01*
X135215354Y-83293828D01*
X135374595Y-83409524D01*
X135457455Y-83451743D01*
X135549970Y-83498882D01*
X135549972Y-83498882D01*
X135549975Y-83498884D01*
X135650317Y-83531487D01*
X135737173Y-83559709D01*
X135931578Y-83590500D01*
X135931583Y-83590500D01*
X136128422Y-83590500D01*
X136322826Y-83559709D01*
X136510025Y-83498884D01*
X136685405Y-83409524D01*
X136844646Y-83293828D01*
X136983828Y-83154646D01*
X137099524Y-82995405D01*
X137188884Y-82820025D01*
X137189515Y-82818787D01*
X137237489Y-82767990D01*
X137305310Y-82751195D01*
X137371445Y-82773732D01*
X137410485Y-82818787D01*
X137500474Y-82995403D01*
X137535234Y-83043246D01*
X137616172Y-83154646D01*
X137755354Y-83293828D01*
X137914595Y-83409524D01*
X137997455Y-83451743D01*
X138089970Y-83498882D01*
X138089972Y-83498882D01*
X138089975Y-83498884D01*
X138190317Y-83531487D01*
X138277173Y-83559709D01*
X138471578Y-83590500D01*
X138471583Y-83590500D01*
X138668422Y-83590500D01*
X138862826Y-83559709D01*
X139050025Y-83498884D01*
X139225405Y-83409524D01*
X139384646Y-83293828D01*
X139523828Y-83154646D01*
X139639524Y-82995405D01*
X139728884Y-82820025D01*
X139729515Y-82818787D01*
X139777489Y-82767990D01*
X139845310Y-82751195D01*
X139911445Y-82773732D01*
X139950485Y-82818787D01*
X140040474Y-82995403D01*
X140075234Y-83043246D01*
X140156172Y-83154646D01*
X140295354Y-83293828D01*
X140454595Y-83409524D01*
X140537455Y-83451743D01*
X140629970Y-83498882D01*
X140629972Y-83498882D01*
X140629975Y-83498884D01*
X140730317Y-83531487D01*
X140817173Y-83559709D01*
X141011578Y-83590500D01*
X141011583Y-83590500D01*
X141208422Y-83590500D01*
X141402826Y-83559709D01*
X141590025Y-83498884D01*
X141765405Y-83409524D01*
X141924646Y-83293828D01*
X142063828Y-83154646D01*
X142179524Y-82995405D01*
X142268884Y-82820025D01*
X142269515Y-82818787D01*
X142317489Y-82767990D01*
X142385310Y-82751195D01*
X142451445Y-82773732D01*
X142490485Y-82818787D01*
X142580474Y-82995403D01*
X142615234Y-83043246D01*
X142696172Y-83154646D01*
X142835354Y-83293828D01*
X142994595Y-83409524D01*
X143077455Y-83451743D01*
X143169970Y-83498882D01*
X143169972Y-83498882D01*
X143169975Y-83498884D01*
X143270317Y-83531487D01*
X143357173Y-83559709D01*
X143551578Y-83590500D01*
X143551583Y-83590500D01*
X143748422Y-83590500D01*
X143942826Y-83559709D01*
X144130025Y-83498884D01*
X144130028Y-83498881D01*
X144130032Y-83498881D01*
X144170948Y-83478033D01*
X144170950Y-83478032D01*
X144192912Y-83466841D01*
X144305405Y-83409524D01*
X144464646Y-83293828D01*
X144603828Y-83154646D01*
X144719524Y-82995405D01*
X144808884Y-82820025D01*
X144869709Y-82632826D01*
X144888771Y-82512472D01*
X144900500Y-82438422D01*
X144900500Y-82241577D01*
X144869709Y-82047173D01*
X144808882Y-81859970D01*
X144719523Y-81684594D01*
X144603828Y-81525354D01*
X144464646Y-81386172D01*
X144305405Y-81270476D01*
X144294658Y-81265000D01*
X144130029Y-81181117D01*
X143942826Y-81120290D01*
X143748422Y-81089500D01*
X143748417Y-81089500D01*
X143551583Y-81089500D01*
X143551578Y-81089500D01*
X143357173Y-81120290D01*
X143169970Y-81181117D01*
X142994594Y-81270476D01*
X142934750Y-81313956D01*
X142835354Y-81386172D01*
X142835352Y-81386174D01*
X142835351Y-81386174D01*
X142696174Y-81525351D01*
X142696174Y-81525352D01*
X142696172Y-81525354D01*
X142646485Y-81593741D01*
X142580476Y-81684594D01*
X142490485Y-81861213D01*
X142442511Y-81912009D01*
X142374690Y-81928804D01*
X142308555Y-81906267D01*
X142269515Y-81861213D01*
X142179523Y-81684594D01*
X142063828Y-81525354D01*
X141924646Y-81386172D01*
X141765405Y-81270476D01*
X141754658Y-81265000D01*
X141590029Y-81181117D01*
X141402826Y-81120290D01*
X141208422Y-81089500D01*
X141208417Y-81089500D01*
X141011583Y-81089500D01*
X141011578Y-81089500D01*
X140817173Y-81120290D01*
X140629970Y-81181117D01*
X140454594Y-81270476D01*
X140394750Y-81313956D01*
X140295354Y-81386172D01*
X140295352Y-81386174D01*
X140295351Y-81386174D01*
X140156174Y-81525351D01*
X140156174Y-81525352D01*
X140156172Y-81525354D01*
X140106485Y-81593741D01*
X140040476Y-81684594D01*
X139950485Y-81861213D01*
X139902511Y-81912009D01*
X139834690Y-81928804D01*
X139768555Y-81906267D01*
X139729515Y-81861213D01*
X139639523Y-81684594D01*
X139523828Y-81525354D01*
X139384646Y-81386172D01*
X139225405Y-81270476D01*
X139214658Y-81265000D01*
X139050029Y-81181117D01*
X138862826Y-81120290D01*
X138668422Y-81089500D01*
X138668417Y-81089500D01*
X138471583Y-81089500D01*
X138471578Y-81089500D01*
X138277173Y-81120290D01*
X138089970Y-81181117D01*
X137914594Y-81270476D01*
X137854750Y-81313956D01*
X137755354Y-81386172D01*
X137755352Y-81386174D01*
X137755351Y-81386174D01*
X137616174Y-81525351D01*
X137616174Y-81525352D01*
X137616172Y-81525354D01*
X137566485Y-81593741D01*
X137500476Y-81684594D01*
X137410485Y-81861213D01*
X137362511Y-81912009D01*
X137294690Y-81928804D01*
X137228555Y-81906267D01*
X137189515Y-81861213D01*
X137099523Y-81684594D01*
X136983828Y-81525354D01*
X136844646Y-81386172D01*
X136685405Y-81270476D01*
X136674658Y-81265000D01*
X136510029Y-81181117D01*
X136322826Y-81120290D01*
X136128422Y-81089500D01*
X136128417Y-81089500D01*
X135931583Y-81089500D01*
X135931578Y-81089500D01*
X135737173Y-81120290D01*
X135549970Y-81181117D01*
X135374594Y-81270476D01*
X135314750Y-81313956D01*
X135215354Y-81386172D01*
X135215352Y-81386174D01*
X135215351Y-81386174D01*
X135076174Y-81525351D01*
X135076174Y-81525352D01*
X135076172Y-81525354D01*
X135026485Y-81593741D01*
X134960476Y-81684594D01*
X134871117Y-81859970D01*
X134810290Y-82047173D01*
X134779500Y-82241577D01*
X116766752Y-82241577D01*
X116762984Y-82227515D01*
X116761818Y-82225496D01*
X116690511Y-82101988D01*
X116690506Y-82101982D01*
X116588017Y-81999493D01*
X116588011Y-81999488D01*
X116462488Y-81927017D01*
X116462489Y-81927017D01*
X116451006Y-81923940D01*
X116322475Y-81889500D01*
X116322472Y-81889500D01*
X116246544Y-81889500D01*
X116179505Y-81869815D01*
X116158863Y-81853181D01*
X114966819Y-80661137D01*
X114933334Y-80599814D01*
X114930500Y-80573456D01*
X114930500Y-80265371D01*
X148270000Y-80265371D01*
X148270000Y-81015000D01*
X148885856Y-81015000D01*
X148870000Y-81074174D01*
X148870000Y-81205826D01*
X148885856Y-81265000D01*
X148270000Y-81265000D01*
X148270000Y-82014628D01*
X148284503Y-82087540D01*
X148284505Y-82087544D01*
X148339760Y-82170239D01*
X148422455Y-82225494D01*
X148422459Y-82225496D01*
X148495371Y-82239999D01*
X148495374Y-82240000D01*
X149245000Y-82240000D01*
X149245000Y-81624144D01*
X149304174Y-81640000D01*
X149435826Y-81640000D01*
X149495000Y-81624144D01*
X149495000Y-82240000D01*
X150244626Y-82240000D01*
X150244628Y-82239999D01*
X150317540Y-82225496D01*
X150317544Y-82225494D01*
X150400239Y-82170239D01*
X150455494Y-82087544D01*
X150455496Y-82087540D01*
X150469999Y-82014628D01*
X150470000Y-82014626D01*
X150470000Y-81265000D01*
X149854144Y-81265000D01*
X149870000Y-81205826D01*
X149870000Y-81074174D01*
X149854144Y-81015000D01*
X150470000Y-81015000D01*
X150470000Y-80265373D01*
X150469999Y-80265371D01*
X150455496Y-80192459D01*
X150455494Y-80192455D01*
X150400239Y-80109760D01*
X150317544Y-80054505D01*
X150317540Y-80054503D01*
X150244627Y-80040000D01*
X149495000Y-80040000D01*
X149495000Y-80655855D01*
X149435826Y-80640000D01*
X149304174Y-80640000D01*
X149245000Y-80655855D01*
X149245000Y-80040000D01*
X148495373Y-80040000D01*
X148422459Y-80054503D01*
X148422455Y-80054505D01*
X148339760Y-80109760D01*
X148284505Y-80192455D01*
X148284503Y-80192459D01*
X148270000Y-80265371D01*
X114930500Y-80265371D01*
X114930500Y-79280284D01*
X115363600Y-79280284D01*
X115363600Y-79439711D01*
X115394699Y-79596054D01*
X115394701Y-79596062D01*
X115455706Y-79743342D01*
X115455711Y-79743351D01*
X115544275Y-79875896D01*
X115544278Y-79875900D01*
X115656997Y-79988619D01*
X115657001Y-79988622D01*
X115789546Y-80077186D01*
X115789552Y-80077189D01*
X115789553Y-80077190D01*
X115936836Y-80138197D01*
X116093035Y-80169267D01*
X116093186Y-80169297D01*
X116093189Y-80169298D01*
X116093191Y-80169298D01*
X117344811Y-80169298D01*
X117344812Y-80169297D01*
X117501164Y-80138197D01*
X117648447Y-80077190D01*
X117780999Y-79988622D01*
X117893724Y-79875897D01*
X117982292Y-79743345D01*
X118043299Y-79596062D01*
X118074400Y-79439707D01*
X118074400Y-79280289D01*
X118074400Y-79280286D01*
X118074399Y-79280284D01*
X118043300Y-79123941D01*
X118043299Y-79123934D01*
X117982292Y-78976651D01*
X117982291Y-78976650D01*
X117982288Y-78976644D01*
X117893724Y-78844099D01*
X117893721Y-78844095D01*
X117781002Y-78731376D01*
X117780998Y-78731373D01*
X117648453Y-78642809D01*
X117648444Y-78642804D01*
X117501164Y-78581799D01*
X117501156Y-78581797D01*
X117344812Y-78550698D01*
X117344809Y-78550698D01*
X116093191Y-78550698D01*
X116093188Y-78550698D01*
X115936843Y-78581797D01*
X115936835Y-78581799D01*
X115789555Y-78642804D01*
X115789546Y-78642809D01*
X115657001Y-78731373D01*
X115656997Y-78731376D01*
X115544278Y-78844095D01*
X115544275Y-78844099D01*
X115455711Y-78976644D01*
X115455706Y-78976653D01*
X115394701Y-79123933D01*
X115394699Y-79123941D01*
X115363600Y-79280284D01*
X114930500Y-79280284D01*
X114930500Y-78969386D01*
X114950185Y-78902347D01*
X114966819Y-78881705D01*
X115020509Y-78828015D01*
X115092984Y-78702485D01*
X115130500Y-78562475D01*
X115130500Y-78417525D01*
X115092984Y-78277515D01*
X115020509Y-78151985D01*
X114918015Y-78049491D01*
X114918013Y-78049490D01*
X114918011Y-78049488D01*
X114792488Y-77977017D01*
X114792489Y-77977017D01*
X114781006Y-77973940D01*
X114652475Y-77939500D01*
X114507525Y-77939500D01*
X114378993Y-77973940D01*
X114367511Y-77977017D01*
X114241988Y-78049488D01*
X114241982Y-78049493D01*
X114139493Y-78151982D01*
X114139488Y-78151988D01*
X114067017Y-78277511D01*
X114067016Y-78277515D01*
X114029500Y-78417525D01*
X109790500Y-78417525D01*
X109790500Y-75644500D01*
X109810185Y-75577461D01*
X109862989Y-75531706D01*
X109914500Y-75520500D01*
X152965500Y-75520500D01*
X153032539Y-75540185D01*
G37*
%TD.AperFunction*%
%TD*%
M02*
