M48
; DRILL file {KiCad 9.0.1} date 2026-09-05T14:04:00+0300
; FORMAT={-:-/ absolute / metric / decimal}
; #@! TF.CreationDate,2026-09-05T14:04:00+03:00
; #@! TF.GenerationSoftware,Kicad,Pcbnew,9.0.1
; #@! TF.FileFunction,Plated,1,2,PTH
FMAT,2
METRIC
; #@! TA.AperFunction,Plated,PTH,ViaDrill
T1C0.300
; #@! TA.AperFunction,Plated,PTH,ComponentDrill
T2C1.000
; #@! TA.AperFunction,Plated,PTH,ViaDrill
T3C1.500
%
G90
G05
T1
X111.96Y-83.18
X114.37Y-89.08
X114.58Y-78.49
X115.91Y-80.5
X115.98Y-85.06
X116.25Y-82.44
X118.6Y-90.638
X118.8Y-76.43
X118.88Y-88.21
X121.335Y-87.372
X121.757Y-91.466
X122.719Y-76.57
X123.914Y-85.324
X125.82Y-77.79
X126.54Y-84.02
X132.915Y-79.43
X133.2Y-91.85
X138.232Y-84.761
X145.364Y-89.674
X147.08Y-81.14
X149.311Y-79.052
T2
X136.03Y-82.34
X138.57Y-82.34
X141.11Y-82.34
X141.11Y-89.96
X143.65Y-82.34
X149.37Y-81.14
X149.37Y-83.68
X149.37Y-86.22
T3
X110.79Y-76.52
X110.79Y-94.1
X152.09Y-76.52
X152.09Y-94.1
M30
